999
dxfrw 0.6.3
  0
SECTION
  2
HEADER
  9
$ACADVER
  1
AC1021
  9
$DWGCODEPAGE
  3
ANSI_1252
  9
$INSBASE
 10
0
 20
0
 30
0
  9
$EXTMIN
 10
-395
 20
-395
 30
0
  9
$EXTMAX
 10
395
 20
395
 30
0
  9
$LIMMIN
 10
0
 20
0
  9
$LIMMAX
 10
420
 20
297
  9
$ORTHOMODE
 70
    0
  9
$REGENMODE
 70
    1
  9
$FILLMODE
 70
    1
  9
$QTEXTMODE
 70
    0
  9
$MIRRTEXT
 70
    0
  9
$LTSCALE
 40
1
  9
$ATTMODE
 70
    0
  9
$TEXTSIZE
 40
2.5
  9
$TRACEWID
 40
15.68
  9
$TEXTSTYLE
  7
STANDARD
  9
$CLAYER
  8
Rod
  9
$CELTYPE
  6
BYLAYER
  9
$CECOLOR
 62
  256
  9
$CELTSCALE
 40
1
  9
$DISPSILH
 70
    0
  9
$DIMSCALE
 40
2.5
  9
$DIMASZ
 40
2.5
  9
$DIMEXO
 40
0.625
  9
$DIMDLI
 40
3.75
  9
$DIMRND
 40
0
  9
$DIMDLE
 40
0
  9
$DIMEXE
 40
1.25
  9
$DIMTP
 40
0
  9
$DIMTM
 40
0
  9
$DIMTXT
 40
2.5
  9
$DIMCEN
 40
2.5
  9
$DIMTSZ
 40
0
  9
$DIMTOL
 70
    0
  9
$DIMLIM
 70
    0
  9
$DIMTIH
 70
    0
  9
$DIMTOH
 70
    0
  9
$DIMSE1
 70
    0
  9
$DIMSE2
 70
    0
  9
$DIMTAD
 70
    1
  9
$DIMZIN
 70
    8
  9
$DIMBLK
  1

  9
$DIMASO
 70
    1
  9
$DIMSHO
 70
    1
  9
$DIMPOST
  1

  9
$DIMAPOST
  1

  9
$DIMALT
 70
    0
  9
$DIMALTD
 70
    3
  9
$DIMALTF
 40
0.03937
  9
$DIMLFAC
 40
1
  9
$DIMTOFL
 70
    1
  9
$DIMTVP
 40
0
  9
$DIMTIX
 70
    0
  9
$DIMSOXD
 70
    0
  9
$DIMSAH
 70
    0
  9
$DIMBLK1
  1

  9
$DIMBLK2
  1

  9
$DIMSTYLE
  2
STANDARD
  9
$DIMCLRD
 70
    0
  9
$DIMCLRE
 70
    0
  9
$DIMCLRT
 70
    0
  9
$DIMTFAC
 40
1
  9
$DIMGAP
 40
0.625
  9
$DIMJUST
 70
    0
  9
$DIMSD1
 70
    0
  9
$DIMSD2
 70
    0
  9
$DIMTOLJ
 70
    0
  9
$DIMTZIN
 70
    8
  9
$DIMALTZ
 70
    0
  9
$DIMALTTZ
 70
    0
  9
$DIMUPT
 70
    0
  9
$DIMDEC
 70
    2
  9
$DIMTDEC
 70
    2
  9
$DIMALTU
 70
    2
  9
$DIMALTTD
 70
    3
  9
$DIMTXSTY
  7
STANDARD
  9
$DIMAUNIT
 70
    0
  9
$DIMADEC
 70
    0
  9
$DIMALTRND
 40
0
  9
$DIMAZIN
 70
    0
  9
$DIMDSEP
 70
   44
  9
$DIMATFIT
 70
    3
  9
$DIMFRAC
 70
    0
  9
$DIMLDRBLK
  1
STANDARD
  9
$DIMLUNIT
 70
    2
  9
$DIMLWD
 70
   -2
  9
$DIMLWE
 70
   -2
  9
$DIMTMOVE
 70
    0
  9
$DIMFXL
 40
1
  9
$DIMFXLON
 70
    0
  9
$DIMJOGANG
 40
0.7854
  9
$DIMTFILL
 70
    0
  9
$DIMTFILLCLR
 70
    0
  9
$DIMARCSYM
 70
    0
  9
$DIMLTYPE
  6

  9
$DIMLTEX1
  6

  9
$DIMLTEX2
  6

  9
$LUNITS
 70
    2
  9
$LUPREC
 70
    4
  9
$SKETCHINC
 40
1
  9
$FILLETRAD
 40
0
  9
$AUNITS
 70
    0
  9
$AUPREC
 70
    2
  9
$MENU
  1
.
  9
$ELEVATION
 40
0
  9
$PELEVATION
 40
0
  9
$THICKNESS
 40
0
  9
$LIMCHECK
 70
    0
  9
$CHAMFERA
 40
0
  9
$CHAMFERB
 40
0
  9
$CHAMFERC
 40
0
  9
$CHAMFERD
 40
0
  9
$SKPOLY
 70
    0
  9
$USRTIMER
 70
    1
  9
$ANGBASE
 50
0
  9
$ANGDIR
 70
    0
  9
$PDMODE
 70
   96
  9
$PDSIZE
 40
-2
  9
$PLINEWID
 40
0
  9
$SPLFRAME
 70
    0
  9
$SPLINETYPE
 70
    2
  9
$SPLINESEGS
 70
    8
  9
$HANDSEED
  5
20000
  9
$SURFTAB1
 70
    6
  9
$SURFTAB2
 70
    6
  9
$SURFTYPE
 70
    6
  9
$SURFU
 70
    6
  9
$SURFV
 70
    6
  9
$UCSBASE
  2

  9
$UCSNAME
  2

  9
$UCSORG
 10
0
 20
0
 30
0
  9
$UCSXDIR
 10
1
 20
0
 30
0
  9
$UCSYDIR
 10
0
 20
1
 30
0
  9
$UCSORTHOREF
  2

  9
$UCSORTHOVIEW
 70
    0
  9
$UCSORGTOP
 10
0
 20
0
 30
0
  9
$UCSORGBOTTOM
 10
0
 20
0
 30
0
  9
$UCSORGLEFT
 10
0
 20
0
 30
0
  9
$UCSORGRIGHT
 10
0
 20
0
 30
0
  9
$UCSORGFRONT
 10
0
 20
0
 30
0
  9
$UCSORGBACK
 10
0
 20
0
 30
0
  9
$PUCSBASE
  2

  9
$PUCSNAME
  2

  9
$PUCSORG
 10
0
 20
0
 30
0
  9
$PUCSXDIR
 10
1
 20
0
 30
0
  9
$PUCSYDIR
 10
0
 20
1
 30
0
  9
$PUCSORTHOREF
  2

  9
$PUCSORTHOVIEW
 70
    0
  9
$PUCSORGTOP
 10
0
 20
0
 30
0
  9
$PUCSORGBOTTOM
 10
0
 20
0
 30
0
  9
$PUCSORGLEFT
 10
0
 20
0
 30
0
  9
$PUCSORGRIGHT
 10
0
 20
0
 30
0
  9
$PUCSORGFRONT
 10
0
 20
0
 30
0
  9
$PUCSORGBACK
 10
0
 20
0
 30
0
  9
$USERI1
 70
    0
  9
$USERI2
 70
    0
  9
$USERI3
 70
    0
  9
$USERI4
 70
    0
  9
$USERI5
 70
    0
  9
$USERR1
 40
0
  9
$USERR2
 40
0
  9
$USERR3
 40
0
  9
$USERR4
 40
0
  9
$USERR5
 40
0
  9
$WORLDVIEW
 70
    1
  9
$SHADEDGE
 70
    3
  9
$SHADEDIF
 70
   70
  9
$TILEMODE
 70
    1
  9
$MAXACTVP
 70
   64
  9
$PINSBASE
 10
0
 20
0
 30
0
  9
$PLIMCHECK
 70
    0
  9
$PEXTMIN
 10
0
 20
0
 30
0
  9
$PEXTMAX
 10
0
 20
0
 30
0
  9
$SNAPSTYLE
 70
    0
  9
$PLIMMIN
 10
0
 20
0
  9
$PLIMMAX
 10
420
 20
297
  9
$UNITMODE
 70
    0
  9
$VISRETAIN
 70
    1
  9
$PLINEGEN
 70
    0
  9
$PSLTSCALE
 70
    1
  9
$TREEDEPTH
 70
 3020
  9
$CMLSTYLE
  2
Standard
  9
$CMLJUST
 70
    0
  9
$CMLSCALE
 40
20
  9
$PROXYGRAPHICS
 70
    1
  9
$MEASUREMENT
 70
    1
  9
$CELWEIGHT
370
   -1
  9
$ENDCAPS
280
    0
  9
$JOINSTYLE
280
    0
  9
$LWDISPLAY
290
    0
  9
$INSUNITS
 70
    4
  9
$HYPERLINKBASE
  1

  9
$STYLESHEET
  1

  9
$XEDIT
290
    1
  9
$CEPSNTYPE
380
    0
  9
$PSTYLEMODE
290
    1
  9
$EXTNAMES
290
    1
  9
$PSVPSCALE
 40
1
  9
$OLESTARTUP
290
    0
  9
$SORTENTS
280
  127
  9
$INDEXCTL
280
    0
  9
$HIDETEXT
280
    1
  9
$XCLIPFRAME
290
    0
  9
$HALOGAP
280
    0
  9
$OBSCOLOR
 70
  257
  9
$OBSLTYPE
280
    0
  9
$INTERSECTIONDISPLAY
280
    0
  9
$INTERSECTIONCOLOR
 70
  257
  9
$DIMASSOC
280
    1
  9
$PROJECTNAME
  1

  9
$CAMERADISPLAY
290
    0
  9
$LENSLENGTH
 40
50
  9
$CAMERAHEIGHT
 40
0
  9
$STEPSPERSEC
 40
2
  9
$STEPSIZE
 40
50
  9
$3DDWFPREC
 40
2
  9
$PSOLWIDTH
 40
5
  9
$PSOLHEIGHT
 40
80
  9
$LOFTANG1
 40
1.570796326794897
  9
$LOFTANG2
 40
1.570796326794897
  9
$LOFTMAG1
 40
0
  9
$LOFTMAG2
 40
0
  9
$LOFTPARAM
 70
    7
  9
$LOFTNORMALS
280
    1
  9
$LATITUDE
 40
1
  9
$LONGITUDE
 40
1
  9
$NORTHDIRECTION
 40
0
  9
$TIMEZONE
 70
-8000
  9
$LIGHTGLYPHDISPLAY
280
    1
  9
$TILEMODELIGHTSYNCH
280
    1
  9
$SOLIDHIST
280
    1
  9
$SHOWHIST
280
    1
  9
$DWFFRAME
280
    2
  9
$DGNFRAME
280
    0
  9
$REALWORLDSCALE
290
    1
  9
$INTERFERECOLOR
 62
    1
  9
$CSHADOW
280
    0
  9
$SHADOWPLANELOCATION
 40
0
  0
ENDSEC
  0
SECTION
  2
CLASSES
  0
ENDSEC
  0
SECTION
  2
TABLES
  0
TABLE
  2
VPORT
  5
8
330
0
100
AcDbSymbolTable
 70
    1
  0
VPORT
  5
31
330
2
100
AcDbSymbolTableRecord
100
AcDbViewportTableRecord
  2
*ACTIVE
 70
    0
 10
0
 20
0
 11
1
 21
1
 12
344.2746730083235
 22
202.4316290130797
 13
0
 23
0
 14
10
 24
10
 15
10
 25
10
 16
0
 26
0
 36
1
 17
0
 27
0
 37
0
 40
808.7871581450655
 41
1.70150987224158
 42
50
 43
0
 44
0
 50
0
 51
0
 71
    0
 72
  100
 73
    1
 74
    3
 75
    0
 76
    1
 77
    0
 78
    0
281
    0
 65
    1
110
0
120
0
130
0
111
1
121
0
131
0
112
0
122
1
132
0
 79
    0
146
0
348
10020
 60
    7
 61
    5
292
1
282
    1
141
0
142
0
 63
  250
421
3358443
  0
ENDTAB
  0
TABLE
  2
LTYPE
  5
5
330
0
100
AcDbSymbolTable
 70
    4
  0
LTYPE
  5
14
330
5
100
AcDbSymbolTableRecord
100
AcDbLinetypeTableRecord
  2
ByBlock
 70
    0
  3

 72
   65
 73
    0
 40
0
  0
LTYPE
  5
15
330
5
100
AcDbSymbolTableRecord
100
AcDbLinetypeTableRecord
  2
ByLayer
 70
    0
  3

 72
   65
 73
    0
 40
0
  0
LTYPE
  5
16
330
5
100
AcDbSymbolTableRecord
100
AcDbLinetypeTableRecord
  2
Continuous
 70
    0
  3
Solid line
 72
   65
 73
    0
 40
0
  0
LTYPE
  5
32
330
5
100
AcDbSymbolTableRecord
100
AcDbLinetypeTableRecord
  2
DOT
 70
    0
  3
Dot . . . . . . . . . . . . . . . . . . . . . .
 72
   65
 73
    2
 40
6.35
 49
0
 74
    0
 49
-6.35
 74
    0
  0
LTYPE
  5
33
330
5
100
AcDbSymbolTableRecord
100
AcDbLinetypeTableRecord
  2
DOTTINY
 70
    0
  3
Dot (.15x) .....................................
 72
   65
 73
    2
 40
0.9525
 49
0
 74
    0
 49
-0.9525
 74
    0
  0
LTYPE
  5
34
330
5
100
AcDbSymbolTableRecord
100
AcDbLinetypeTableRecord
  2
DOT2
 70
    0
  3
Dot (.5x) .....................................
 72
   65
 73
    2
 40
3.175
 49
0
 74
    0
 49
-3.175
 74
    0
  0
LTYPE
  5
35
330
5
100
AcDbSymbolTableRecord
100
AcDbLinetypeTableRecord
  2
DOTX2
 70
    0
  3
Dot (2x) .  .  .  .  .  .  .  .  .  .  .  .  .
 72
   65
 73
    2
 40
12.7
 49
0
 74
    0
 49
-12.7
 74
    0
  0
LTYPE
  5
36
330
5
100
AcDbSymbolTableRecord
100
AcDbLinetypeTableRecord
  2
DASHED
 70
    0
  3
Dashed _ _ _ _ _ _ _ _ _ _ _ _ _ _ _ _ _
 72
   65
 73
    2
 40
19.05
 49
12.7
 74
    0
 49
-6.35
 74
    0
  0
LTYPE
  5
37
330
5
100
AcDbSymbolTableRecord
100
AcDbLinetypeTableRecord
  2
DASHEDTINY
 70
    0
  3
Dashed (.15x) _ _ _ _ _ _ _ _ _ _ _ _ _ _ _ _ _
 72
   65
 73
    2
 40
2.8575
 49
1.905
 74
    0
 49
-0.9525
 74
    0
  0
LTYPE
  5
38
330
5
100
AcDbSymbolTableRecord
100
AcDbLinetypeTableRecord
  2
DASHED2
 70
    0
  3
Dashed (.5x) _ _ _ _ _ _ _ _ _ _ _ _ _ _ _ _ _
 72
   65
 73
    2
 40
9.524999999999999
 49
6.35
 74
    0
 49
-3.175
 74
    0
  0
LTYPE
  5
39
330
5
100
AcDbSymbolTableRecord
100
AcDbLinetypeTableRecord
  2
DASHEDX2
 70
    0
  3
Dashed (2x) ____  ____  ____  ____  ____  ___
 72
   65
 73
    2
 40
38.09999999999999
 49
25.4
 74
    0
 49
-12.7
 74
    0
  0
LTYPE
  5
3A
330
5
100
AcDbSymbolTableRecord
100
AcDbLinetypeTableRecord
  2
DASHDOT
 70
    0
  3
Dash dot __ . __ . __ . __ . __ . __ . __ . __
 72
   65
 73
    4
 40
25.4
 49
12.7
 74
    0
 49
-6.35
 74
    0
 49
0
 74
    0
 49
-6.35
 74
    0
  0
LTYPE
  5
3B
330
5
100
AcDbSymbolTableRecord
100
AcDbLinetypeTableRecord
  2
DASHDOTTINY
 70
    0
  3
Dash dot (.15x) _._._._._._._._._._._._._._._.
 72
   65
 73
    4
 40
3.81
 49
1.905
 74
    0
 49
-0.9525
 74
    0
 49
0
 74
    0
 49
-0.9525
 74
    0
  0
LTYPE
  5
3C
330
5
100
AcDbSymbolTableRecord
100
AcDbLinetypeTableRecord
  2
DASHDOT2
 70
    0
  3
Dash dot (.5x) _._._._._._._._._._._._._._._.
 72
   65
 73
    4
 40
12.7
 49
6.35
 74
    0
 49
-3.175
 74
    0
 49
0
 74
    0
 49
-3.175
 74
    0
  0
LTYPE
  5
3D
330
5
100
AcDbSymbolTableRecord
100
AcDbLinetypeTableRecord
  2
DASHDOTX2
 70
    0
  3
Dash dot (2x) ____  .  ____  .  ____  .  ___
 72
   65
 73
    4
 40
50.8
 49
25.4
 74
    0
 49
-12.7
 74
    0
 49
0
 74
    0
 49
-12.7
 74
    0
  0
LTYPE
  5
3E
330
5
100
AcDbSymbolTableRecord
100
AcDbLinetypeTableRecord
  2
DIVIDE
 70
    0
  3
Divide ____ . . ____ . . ____ . . ____ . . ____
 72
   65
 73
    6
 40
31.75
 49
12.7
 74
    0
 49
-6.35
 74
    0
 49
0
 74
    0
 49
-6.35
 74
    0
 49
0
 74
    0
 49
-6.35
 74
    0
  0
LTYPE
  5
3F
330
5
100
AcDbSymbolTableRecord
100
AcDbLinetypeTableRecord
  2
DIVIDETINY
 70
    0
  3
Divide (.15x) __..__..__..__..__..__..__..__.._
 72
   65
 73
    6
 40
4.7625
 49
1.905
 74
    0
 49
-0.9525
 74
    0
 49
0
 74
    0
 49
-0.9525
 74
    0
 49
0
 74
    0
 49
-0.9525
 74
    0
  0
LTYPE
  5
40
330
5
100
AcDbSymbolTableRecord
100
AcDbLinetypeTableRecord
  2
DIVIDE2
 70
    0
  3
Divide (.5x) __..__..__..__..__..__..__..__.._
 72
   65
 73
    6
 40
15.875
 49
6.35
 74
    0
 49
-3.175
 74
    0
 49
0
 74
    0
 49
-3.175
 74
    0
 49
0
 74
    0
 49
-3.175
 74
    0
  0
LTYPE
  5
41
330
5
100
AcDbSymbolTableRecord
100
AcDbLinetypeTableRecord
  2
DIVIDEX2
 70
    0
  3
Divide (2x) ________  .  .  ________  .  .  _
 72
   65
 73
    6
 40
63.5
 49
25.4
 74
    0
 49
-12.7
 74
    0
 49
0
 74
    0
 49
-12.7
 74
    0
 49
0
 74
    0
 49
-12.7
 74
    0
  0
LTYPE
  5
42
330
5
100
AcDbSymbolTableRecord
100
AcDbLinetypeTableRecord
  2
BORDER
 70
    0
  3
Border __ __ . __ __ . __ __ . __ __ . __ __ .
 72
   65
 73
    6
 40
44.45
 49
12.7
 74
    0
 49
-6.35
 74
    0
 49
12.7
 74
    0
 49
-6.35
 74
    0
 49
0
 74
    0
 49
-6.35
 74
    0
  0
LTYPE
  5
43
330
5
100
AcDbSymbolTableRecord
100
AcDbLinetypeTableRecord
  2
BORDERTINY
 70
    0
  3
Border (.15x) __.__.__.__.__.__.__.__.__.__.__.
 72
   65
 73
    6
 40
6.6675
 49
1.905
 74
    0
 49
-0.9525
 74
    0
 49
1.905
 74
    0
 49
-0.9525
 74
    0
 49
0
 74
    0
 49
-0.9525
 74
    0
  0
LTYPE
  5
44
330
5
100
AcDbSymbolTableRecord
100
AcDbLinetypeTableRecord
  2
BORDER2
 70
    0
  3
Border (.5x) __.__.__.__.__.__.__.__.__.__.__.
 72
   65
 73
    6
 40
22.225
 49
6.35
 74
    0
 49
-3.175
 74
    0
 49
6.35
 74
    0
 49
-3.175
 74
    0
 49
0
 74
    0
 49
-3.175
 74
    0
  0
LTYPE
  5
45
330
5
100
AcDbSymbolTableRecord
100
AcDbLinetypeTableRecord
  2
BORDERX2
 70
    0
  3
Border (2x) ____  ____  .  ____  ____  .  ___
 72
   65
 73
    6
 40
88.89999999999999
 49
25.4
 74
    0
 49
-12.7
 74
    0
 49
25.4
 74
    0
 49
-12.7
 74
    0
 49
0
 74
    0
 49
-12.7
 74
    0
  0
LTYPE
  5
46
330
5
100
AcDbSymbolTableRecord
100
AcDbLinetypeTableRecord
  2
CENTER
 70
    0
  3
Center ____ _ ____ _ ____ _ ____ _ ____ _ ____
 72
   65
 73
    4
 40
50.8
 49
31.75
 74
    0
 49
-6.35
 74
    0
 49
6.35
 74
    0
 49
-6.35
 74
    0
  0
LTYPE
  5
47
330
5
100
AcDbSymbolTableRecord
100
AcDbLinetypeTableRecord
  2
CENTERTINY
 70
    0
  3
Center (.15x) ___ _ ___ _ ___ _ ___ _ ___ _ ___
 72
   65
 73
    4
 40
7.619999999999999
 49
4.7625
 74
    0
 49
-0.9525
 74
    0
 49
0.9525
 74
    0
 49
-0.9525
 74
    0
  0
LTYPE
  5
48
330
5
100
AcDbSymbolTableRecord
100
AcDbLinetypeTableRecord
  2
CENTER2
 70
    0
  3
Center (.5x) ___ _ ___ _ ___ _ ___ _ ___ _ ___
 72
   65
 73
    4
 40
28.575
 49
19.05
 74
    0
 49
-3.175
 74
    0
 49
3.175
 74
    0
 49
-3.175
 74
    0
  0
LTYPE
  5
49
330
5
100
AcDbSymbolTableRecord
100
AcDbLinetypeTableRecord
  2
CENTERX2
 70
    0
  3
Center (2x) ________  __  ________  __  _____
 72
   65
 73
    4
 40
101.6
 49
63.5
 74
    0
 49
-12.7
 74
    0
 49
12.7
 74
    0
 49
-12.7
 74
    0
  0
ENDTAB
  0
TABLE
  2
LAYER
  5
2
330
0
100
AcDbSymbolTable
 70
    1
  0
LAYER
  5
10
330
2
100
AcDbSymbolTableRecord
100
AcDbLayerTableRecord
  2
0
 70
    0
 62
    7
  6
CONTINUOUS
370
   25
390
F
  0
LAYER
  5
4A
330
2
100
AcDbSymbolTableRecord
100
AcDbLayerTableRecord
  2
Rod
 70
    0
 62
    4
  6
CONTINUOUS
370
    0
390
F
  0
ENDTAB
  0
TABLE
  2
STYLE
  5
3
330
0
100
AcDbSymbolTable
 70
    3
  0
STYLE
  5
4B
330
2
100
AcDbSymbolTableRecord
100
AcDbTextStyleTableRecord
  2
Standard
 70
    0
 40
0
 41
1
 50
0
 71
    0
 42
1
  3
txt
  4

  0
ENDTAB
  0
TABLE
  2
VIEW
  5
6
330
0
100
AcDbSymbolTable
 70
    0
  0
ENDTAB
  0
TABLE
  2
UCS
  5
7
330
0
100
AcDbSymbolTable
 70
    0
  0
ENDTAB
  0
TABLE
  2
APPID
  5
9
330
0
100
AcDbSymbolTable
 70
    1
  0
APPID
  5
12
330
9
100
AcDbSymbolTableRecord
100
AcDbRegAppTableRecord
  2
ACAD
 70
    0
  0
APPID
  5
4C
330
9
100
AcDbSymbolTableRecord
100
AcDbRegAppTableRecord
  2
LibreCad
 70
    0
  0
ENDTAB
  0
TABLE
  2
DIMSTYLE
  5
A
330
0
100
AcDbSymbolTable
 70
    1
100
AcDbDimStyleTable
 71
    1
  0
DIMSTYLE
105
4D
330
A
100
AcDbSymbolTableRecord
100
AcDbDimStyleTableRecord
  2
Standard
 70
    0
 40
1
 41
2.5
 42
0.625
 43
0.38
 44
1.25
 45
0
 46
0
 47
0
 48
0
 49
1
140
2.5
141
0.09
142
2.5
143
25.4
144
1
145
0
146
1
147
0.625
148
0
 71
    0
 72
    0
 73
    0
 74
    1
 75
    0
 76
    0
 77
    0
 78
    1
 79
    0
170
    0
171
    2
172
    0
173
    0
174
    0
175
    0
176
    0
177
    0
178
    0
179
    0
271
    2
272
    4
273
    2
274
    2
275
    0
276
    0
277
    2
278
    0
279
    0
280
    0
281
    0
282
    0
283
    1
284
    0
285
    0
286
    0
288
    0
289
    3
340
4B
  0
ENDTAB
  0
TABLE
  2
BLOCK_RECORD
  5
1
330
0
100
AcDbSymbolTable
 70
    2
  0
BLOCK_RECORD
  5
1F
330
1
100
AcDbSymbolTableRecord
100
AcDbBlockTableRecord
  2
*Model_Space
 70
    0
280
    1
281
    0
  0
BLOCK_RECORD
  5
1E
330
1
100
AcDbSymbolTableRecord
100
AcDbBlockTableRecord
  2
*Paper_Space
 70
    0
280
    1
281
    0
  0
ENDTAB
  0
ENDSEC
  0
SECTION
  2
BLOCKS
  0
BLOCK
  5
20
330
1F
100
AcDbEntity
  8
0
100
AcDbBlockBegin
  2
*Model_Space
 70
    0
 10
0
 20
0
 30
0
  3
*Model_Space
  1

  0
ENDBLK
  5
21
330
1F
100
AcDbEntity
  8
0
100
AcDbBlockEnd
  0
BLOCK
  5
1C
330
1B
100
AcDbEntity
  8
0
100
AcDbBlockBegin
  2
*Paper_Space
 70
    0
 10
0
 20
0
 30
0
  3
*Paper_Space
  1

  0
ENDBLK
  5
1D
330
1F
100
AcDbEntity
  8
0
100
AcDbBlockEnd
  0
ENDSEC
  0
SECTION
  2
ENTITIES
  0
CIRCLE
  5
4E
100
AcDbEntity
  8
0
  6
ByLayer
 62
  256
370
   -1
100
AcDbCircle
 10
0
 20
0
 40
100
  0
LINE
  5
4F
100
AcDbEntity
  8
0
  6
ByLayer
 62
  256
370
   -1
100
AcDbLine
 10
70
 20
1.5
 11
70
 21
-1.5
  0
LINE
  5
50
100
AcDbEntity
  8
0
  6
ByLayer
 62
  256
370
   -1
100
AcDbLine
 10
99.9887493671163
 20
1.500000000000007
 11
70
 21
1.5
  0
LINE
  5
51
100
AcDbEntity
  8
0
  6
ByLayer
 62
  256
370
   -1
100
AcDbLine
 10
70
 20
-1.5
 11
99.9887493671163
 21
-1.5
  0
LINE
  5
52
100
AcDbEntity
  8
0
  6
ByLayer
 62
  256
370
   -1
100
AcDbLine
 10
68.67607044435417
 20
13.63258406620344
 11
69.19701497735497
 21
10.67816080716681
  0
LINE
  5
53
100
AcDbEntity
  8
0
  6
ByLayer
 62
  256
370
   -1
100
AcDbLine
 10
98.20922332423024
 20
18.8400757443135
 11
68.67607044435417
 21
13.63258406620344
  0
LINE
  5
54
100
AcDbEntity
  8
0
  6
ByLayer
 62
  256
370
   -1
100
AcDbLine
 10
69.19701497735497
 20
10.67816080716681
 11
98.73016785723104
 21
15.88565248527687
  0
LINE
  5
55
100
AcDbEntity
  8
0
  6
ByLayer
 62
  256
370
   -1
100
AcDbLine
 10
65.26545324002508
 20
25.35094896397567
 11
66.29151367000209
 21
22.53187110161795
  0
LINE
  5
56
100
AcDbEntity
  8
0
  6
ByLayer
 62
  256
370
   -1
100
AcDbLine
 10
93.44565972690235
 20
35.60770532067436
 11
65.26545324002508
 21
25.35094896397567
  0
LINE
  5
57
100
AcDbEntity
  8
0
  6
ByLayer
 62
  256
370
   -1
100
AcDbLine
 10
66.29151367000209
 20
22.53187110161795
 11
94.47172015687936
 21
32.78862745831662
  0
LINE
  5
58
100
AcDbEntity
  8
0
  6
ByLayer
 62
  256
370
   -1
100
AcDbLine
 10
59.87177826491071
 20
36.29903810567665
 11
61.37177826491071
 21
33.70096189432333
  0
LINE
  5
59
100
AcDbEntity
  8
0
  6
ByLayer
 62
  256
370
   -1
100
AcDbLine
 10
85.84279704455793
 20
51.29341278923481
 11
59.87177826491071
 21
36.29903810567665
  0
LINE
  5
5A
100
AcDbEntity
  8
0
  6
ByLayer
 62
  256
370
   -1
100
AcDbLine
 10
61.37177826491071
 20
33.70096189432333
 11
87.34279704455793
 21
48.69533657788148
  0
LINE
  5
5B
100
AcDbEntity
  8
0
  6
ByLayer
 62
  256
370
   -1
100
AcDbLine
 10
52.65892960379865
 20
46.14419934273621
 11
54.58729243285827
 21
43.84606601337929
  0
LINE
  5
5C
100
AcDbEntity
  8
0
  6
ByLayer
 62
  256
370
   -1
100
AcDbLine
 10
75.63164441256585
 20
65.42059586591363
 11
52.65892960379865
 21
46.14419934273621
  0
LINE
  5
5D
100
AcDbEntity
  8
0
  6
ByLayer
 62
  256
370
   -1
100
AcDbLine
 10
54.58729243285827
 20
43.84606601337929
 11
77.56000724162547
 21
63.12246253655669
  0
LINE
  5
5E
100
AcDbEntity
  8
0
  6
ByLayer
 62
  256
370
   -1
100
AcDbLine
 10
43.84606601337929
 20
54.58729243285827
 11
46.14419934273622
 21
52.65892960379865
  0
LINE
  5
5F
100
AcDbEntity
  8
0
  6
ByLayer
 62
  256
370
   -1
100
AcDbLine
 10
63.12246253655668
 20
77.56000724162548
 11
43.84606601337929
 21
54.58729243285827
  0
LINE
  5
60
100
AcDbEntity
  8
0
  6
ByLayer
 62
  256
370
   -1
100
AcDbLine
 10
46.14419934273622
 20
52.65892960379865
 11
65.42059586591363
 21
75.63164441256586
  0
LINE
  5
61
100
AcDbEntity
  8
0
  6
ByLayer
 62
  256
370
   -1
100
AcDbLine
 10
33.70096189432335
 20
61.3717782649107
 11
36.29903810567667
 21
59.8717782649107
  0
LINE
  5
62
100
AcDbEntity
  8
0
  6
ByLayer
 62
  256
370
   -1
100
AcDbLine
 10
48.6953365778815
 20
87.34279704455793
 11
33.70096189432335
 21
61.3717782649107
  0
LINE
  5
63
100
AcDbEntity
  8
0
  6
ByLayer
 62
  256
370
   -1
100
AcDbLine
 10
36.29903810567667
 20
59.8717782649107
 11
51.29341278923482
 21
85.84279704455793
  0
LINE
  5
64
100
AcDbEntity
  8
0
  6
ByLayer
 62
  256
370
   -1
100
AcDbLine
 10
22.53187110161796
 20
66.29151367000209
 11
25.35094896397568
 21
65.26545324002508
  0
LINE
  5
65
100
AcDbEntity
  8
0
  6
ByLayer
 62
  256
370
   -1
100
AcDbLine
 10
32.78862745831663
 20
94.47172015687936
 11
22.53187110161796
 21
66.29151367000209
  0
LINE
  5
66
100
AcDbEntity
  8
0
  6
ByLayer
 62
  256
370
   -1
100
AcDbLine
 10
25.35094896397568
 20
65.26545324002508
 11
35.60770532067436
 21
93.44565972690235
  0
LINE
  5
67
100
AcDbEntity
  8
0
  6
ByLayer
 62
  256
370
   -1
100
AcDbLine
 10
10.67816080716682
 20
69.19701497735497
 11
13.63258406620344
 21
68.67607044435417
  0
LINE
  5
68
100
AcDbEntity
  8
0
  6
ByLayer
 62
  256
370
   -1
100
AcDbLine
 10
15.88565248527687
 20
98.73016785723104
 11
10.67816080716682
 21
69.19701497735497
  0
LINE
  5
69
100
AcDbEntity
  8
0
  6
ByLayer
 62
  256
370
   -1
100
AcDbLine
 10
13.63258406620344
 20
68.67607044435417
 11
18.8400757443135
 21
98.20922332423024
  0
LINE
  5
6A
100
AcDbEntity
  8
0
  6
ByLayer
 62
  256
370
   -1
100
AcDbLine
 10
-1.499999999999996
 20
70
 11
1.500000000000004
 21
70
  0
LINE
  5
6B
100
AcDbEntity
  8
0
  6
ByLayer
 62
  256
370
   -1
100
AcDbLine
 10
-1.500000000000001
 20
99.9887493671163
 11
-1.499999999999996
 21
70
  0
LINE
  5
6C
100
AcDbEntity
  8
0
  6
ByLayer
 62
  256
370
   -1
100
AcDbLine
 10
1.500000000000004
 20
70
 11
1.500000000000006
 21
99.9887493671163
  0
LINE
  5
6D
100
AcDbEntity
  8
0
  6
ByLayer
 62
  256
370
   -1
100
AcDbLine
 10
-13.63258406620343
 20
68.67607044435417
 11
-10.67816080716681
 21
69.19701497735497
  0
LINE
  5
6E
100
AcDbEntity
  8
0
  6
ByLayer
 62
  256
370
   -1
100
AcDbLine
 10
-18.84007574431349
 20
98.20922332423024
 11
-13.63258406620343
 21
68.67607044435417
  0
LINE
  5
6F
100
AcDbEntity
  8
0
  6
ByLayer
 62
  256
370
   -1
100
AcDbLine
 10
-10.67816080716681
 20
69.19701497735497
 11
-15.88565248527686
 21
98.73016785723104
  0
LINE
  5
70
100
AcDbEntity
  8
0
  6
ByLayer
 62
  256
370
   -1
100
AcDbLine
 10
-25.35094896397567
 20
65.26545324002508
 11
-22.53187110161795
 21
66.29151367000209
  0
LINE
  5
71
100
AcDbEntity
  8
0
  6
ByLayer
 62
  256
370
   -1
100
AcDbLine
 10
-35.60770532067436
 20
93.44565972690235
 11
-25.35094896397567
 21
65.26545324002508
  0
LINE
  5
72
100
AcDbEntity
  8
0
  6
ByLayer
 62
  256
370
   -1
100
AcDbLine
 10
-22.53187110161795
 20
66.29151367000209
 11
-32.78862745831662
 21
94.47172015687936
  0
LINE
  5
73
100
AcDbEntity
  8
0
  6
ByLayer
 62
  256
370
   -1
100
AcDbLine
 10
-36.29903810567664
 20
59.87177826491071
 11
-33.70096189432333
 21
61.37177826491071
  0
LINE
  5
74
100
AcDbEntity
  8
0
  6
ByLayer
 62
  256
370
   -1
100
AcDbLine
 10
-51.29341278923479
 20
85.84279704455793
 11
-36.29903810567664
 21
59.87177826491071
  0
LINE
  5
75
100
AcDbEntity
  8
0
  6
ByLayer
 62
  256
370
   -1
100
AcDbLine
 10
-33.70096189432333
 20
61.37177826491071
 11
-48.69533657788147
 21
87.34279704455793
  0
LINE
  5
76
100
AcDbEntity
  8
0
  6
ByLayer
 62
  256
370
   -1
100
AcDbLine
 10
-46.14419934273622
 20
52.65892960379865
 11
-43.84606601337929
 21
54.58729243285827
  0
LINE
  5
77
100
AcDbEntity
  8
0
  6
ByLayer
 62
  256
370
   -1
100
AcDbLine
 10
-65.42059586591363
 20
75.63164441256585
 11
-46.14419934273622
 21
52.65892960379865
  0
LINE
  5
78
100
AcDbEntity
  8
0
  6
ByLayer
 62
  256
370
   -1
100
AcDbLine
 10
-43.84606601337929
 20
54.58729243285827
 11
-63.12246253655669
 21
77.56000724162547
  0
LINE
  5
79
100
AcDbEntity
  8
0
  6
ByLayer
 62
  256
370
   -1
100
AcDbLine
 10
-54.58729243285826
 20
43.8460660133793
 11
-52.65892960379864
 21
46.14419934273623
  0
LINE
  5
7A
100
AcDbEntity
  8
0
  6
ByLayer
 62
  256
370
   -1
100
AcDbLine
 10
-77.56000724162548
 20
63.1224625365567
 11
-54.58729243285826
 21
43.8460660133793
  0
LINE
  5
7B
100
AcDbEntity
  8
0
  6
ByLayer
 62
  256
370
   -1
100
AcDbLine
 10
-52.65892960379864
 20
46.14419934273623
 11
-75.63164441256586
 21
65.42059586591364
  0
LINE
  5
7C
100
AcDbEntity
  8
0
  6
ByLayer
 62
  256
370
   -1
100
AcDbLine
 10
-61.37177826491071
 20
33.70096189432333
 11
-59.87177826491071
 21
36.29903810567665
  0
LINE
  5
7D
100
AcDbEntity
  8
0
  6
ByLayer
 62
  256
370
   -1
100
AcDbLine
 10
-87.34279704455793
 20
48.69533657788148
 11
-61.37177826491071
 21
33.70096189432333
  0
LINE
  5
7E
100
AcDbEntity
  8
0
  6
ByLayer
 62
  256
370
   -1
100
AcDbLine
 10
-59.87177826491071
 20
36.29903810567665
 11
-85.84279704455793
 21
51.2934127892348
  0
LINE
  5
7F
100
AcDbEntity
  8
0
  6
ByLayer
 62
  256
370
   -1
100
AcDbLine
 10
-66.29151367000209
 20
22.53187110161796
 11
-65.26545324002508
 21
25.35094896397568
  0
LINE
  5
80
100
AcDbEntity
  8
0
  6
ByLayer
 62
  256
370
   -1
100
AcDbLine
 10
-94.47172015687936
 20
32.78862745831663
 11
-66.29151367000209
 21
22.53187110161796
  0
LINE
  5
81
100
AcDbEntity
  8
0
  6
ByLayer
 62
  256
370
   -1
100
AcDbLine
 10
-65.26545324002508
 20
25.35094896397568
 11
-93.44565972690235
 21
35.60770532067436
  0
LINE
  5
82
100
AcDbEntity
  8
0
  6
ByLayer
 62
  256
370
   -1
100
AcDbLine
 10
-69.19701497735497
 20
10.67816080716684
 11
-68.67607044435417
 21
13.63258406620346
  0
LINE
  5
83
100
AcDbEntity
  8
0
  6
ByLayer
 62
  256
370
   -1
100
AcDbLine
 10
-98.73016785723104
 20
15.8856524852769
 11
-69.19701497735497
 21
10.67816080716684
  0
LINE
  5
84
100
AcDbEntity
  8
0
  6
ByLayer
 62
  256
370
   -1
100
AcDbLine
 10
-68.67607044435417
 20
13.63258406620346
 11
-98.20922332423024
 21
18.84007574431353
  0
LINE
  5
85
100
AcDbEntity
  8
0
  6
ByLayer
 62
  256
370
   -1
100
AcDbLine
 10
-70
 20
-1.499999999999991
 11
-70
 21
1.500000000000009
  0
LINE
  5
86
100
AcDbEntity
  8
0
  6
ByLayer
 62
  256
370
   -1
100
AcDbLine
 10
-99.9887493671163
 20
-1.499999999999995
 11
-70
 21
-1.499999999999991
  0
LINE
  5
87
100
AcDbEntity
  8
0
  6
ByLayer
 62
  256
370
   -1
100
AcDbLine
 10
-70
 20
1.500000000000009
 11
-99.9887493671163
 21
1.500000000000012
  0
LINE
  5
88
100
AcDbEntity
  8
0
  6
ByLayer
 62
  256
370
   -1
100
AcDbLine
 10
-68.67607044435417
 20
-13.63258406620341
 11
-69.19701497735497
 21
-10.67816080716679
  0
LINE
  5
89
100
AcDbEntity
  8
0
  6
ByLayer
 62
  256
370
   -1
100
AcDbLine
 10
-98.20922332423025
 20
-18.84007574431347
 11
-68.67607044435417
 21
-13.63258406620341
  0
LINE
  5
8A
100
AcDbEntity
  8
0
  6
ByLayer
 62
  256
370
   -1
100
AcDbLine
 10
-69.19701497735497
 20
-10.67816080716679
 11
-98.73016785723105
 21
-15.88565248527684
  0
LINE
  5
8B
100
AcDbEntity
  8
0
  6
ByLayer
 62
  256
370
   -1
100
AcDbLine
 10
-65.26545324002508
 20
-25.35094896397567
 11
-66.29151367000209
 21
-22.53187110161794
  0
LINE
  5
8C
100
AcDbEntity
  8
0
  6
ByLayer
 62
  256
370
   -1
100
AcDbLine
 10
-93.44565972690235
 20
-35.60770532067435
 11
-65.26545324002508
 21
-25.35094896397567
  0
LINE
  5
8D
100
AcDbEntity
  8
0
  6
ByLayer
 62
  256
370
   -1
100
AcDbLine
 10
-66.29151367000209
 20
-22.53187110161794
 11
-94.47172015687936
 21
-32.78862745831661
  0
LINE
  5
8E
100
AcDbEntity
  8
0
  6
ByLayer
 62
  256
370
   -1
100
AcDbLine
 10
-59.87177826491072
 20
-36.29903810567664
 11
-61.37177826491072
 21
-33.70096189432332
  0
LINE
  5
8F
100
AcDbEntity
  8
0
  6
ByLayer
 62
  256
370
   -1
100
AcDbLine
 10
-85.84279704455794
 20
-51.29341278923479
 11
-59.87177826491072
 21
-36.29903810567664
  0
LINE
  5
90
100
AcDbEntity
  8
0
  6
ByLayer
 62
  256
370
   -1
100
AcDbLine
 10
-61.37177826491072
 20
-33.70096189432332
 11
-87.34279704455794
 21
-48.69533657788146
  0
LINE
  5
91
100
AcDbEntity
  8
0
  6
ByLayer
 62
  256
370
   -1
100
AcDbLine
 10
-52.65892960379865
 20
-46.14419934273621
 11
-54.58729243285827
 21
-43.84606601337929
  0
LINE
  5
92
100
AcDbEntity
  8
0
  6
ByLayer
 62
  256
370
   -1
100
AcDbLine
 10
-75.63164441256585
 20
-65.42059586591363
 11
-52.65892960379865
 21
-46.14419934273621
  0
LINE
  5
93
100
AcDbEntity
  8
0
  6
ByLayer
 62
  256
370
   -1
100
AcDbLine
 10
-54.58729243285827
 20
-43.84606601337929
 11
-77.56000724162547
 21
-63.12246253655669
  0
LINE
  5
94
100
AcDbEntity
  8
0
  6
ByLayer
 62
  256
370
   -1
100
AcDbLine
 10
-43.8460660133793
 20
-54.58729243285826
 11
-46.14419934273623
 21
-52.65892960379864
  0
LINE
  5
95
100
AcDbEntity
  8
0
  6
ByLayer
 62
  256
370
   -1
100
AcDbLine
 10
-63.1224625365567
 20
-77.56000724162548
 11
-43.8460660133793
 21
-54.58729243285826
  0
LINE
  5
96
100
AcDbEntity
  8
0
  6
ByLayer
 62
  256
370
   -1
100
AcDbLine
 10
-46.14419934273623
 20
-52.65892960379864
 11
-65.42059586591364
 21
-75.63164441256586
  0
LINE
  5
97
100
AcDbEntity
  8
0
  6
ByLayer
 62
  256
370
   -1
100
AcDbLine
 10
-33.70096189432337
 20
-61.37177826491069
 11
-36.29903810567669
 21
-59.87177826491069
  0
LINE
  5
98
100
AcDbEntity
  8
0
  6
ByLayer
 62
  256
370
   -1
100
AcDbLine
 10
-48.69533657788153
 20
-87.3427970445579
 11
-33.70096189432337
 21
-61.37177826491069
  0
LINE
  5
99
100
AcDbEntity
  8
0
  6
ByLayer
 62
  256
370
   -1
100
AcDbLine
 10
-36.29903810567669
 20
-59.87177826491069
 11
-51.29341278923485
 21
-85.8427970445579
  0
LINE
  5
9A
100
AcDbEntity
  8
0
  6
ByLayer
 62
  256
370
   -1
100
AcDbLine
 10
-22.53187110161799
 20
-66.29151367000208
 11
-25.35094896397572
 21
-65.26545324002507
  0
LINE
  5
9B
100
AcDbEntity
  8
0
  6
ByLayer
 62
  256
370
   -1
100
AcDbLine
 10
-32.78862745831668
 20
-94.47172015687934
 11
-22.53187110161799
 21
-66.29151367000208
  0
LINE
  5
9C
100
AcDbEntity
  8
0
  6
ByLayer
 62
  256
370
   -1
100
AcDbLine
 10
-25.35094896397572
 20
-65.26545324002507
 11
-35.60770532067441
 21
-93.44565972690233
  0
LINE
  5
9D
100
AcDbEntity
  8
0
  6
ByLayer
 62
  256
370
   -1
100
AcDbLine
 10
-10.67816080716681
 20
-69.19701497735497
 11
-13.63258406620344
 21
-68.67607044435417
  0
LINE
  5
9E
100
AcDbEntity
  8
0
  6
ByLayer
 62
  256
370
   -1
100
AcDbLine
 10
-15.88565248527686
 20
-98.73016785723104
 11
-10.67816080716681
 21
-69.19701497735497
  0
LINE
  5
9F
100
AcDbEntity
  8
0
  6
ByLayer
 62
  256
370
   -1
100
AcDbLine
 10
-13.63258406620344
 20
-68.67607044435417
 11
-18.84007574431349
 21
-98.20922332423024
  0
LINE
  5
A0
100
AcDbEntity
  8
0
  6
ByLayer
 62
  256
370
   -1
100
AcDbLine
 10
1.499999999999987
 20
-70
 11
-1.500000000000013
 21
-70
  0
LINE
  5
A1
100
AcDbEntity
  8
0
  6
ByLayer
 62
  256
370
   -1
100
AcDbLine
 10
1.499999999999989
 20
-99.9887493671163
 11
1.499999999999987
 21
-70
  0
LINE
  5
A2
100
AcDbEntity
  8
0
  6
ByLayer
 62
  256
370
   -1
100
AcDbLine
 10
-1.500000000000013
 20
-70
 11
-1.500000000000018
 21
-99.9887493671163
  0
LINE
  5
A3
100
AcDbEntity
  8
0
  6
ByLayer
 62
  256
370
   -1
100
AcDbLine
 10
13.63258406620341
 20
-68.67607044435417
 11
10.67816080716679
 21
-69.19701497735497
  0
LINE
  5
A4
100
AcDbEntity
  8
0
  6
ByLayer
 62
  256
370
   -1
100
AcDbLine
 10
18.84007574431346
 20
-98.20922332423025
 11
13.63258406620341
 21
-68.67607044435417
  0
LINE
  5
A5
100
AcDbEntity
  8
0
  6
ByLayer
 62
  256
370
   -1
100
AcDbLine
 10
10.67816080716679
 20
-69.19701497735497
 11
15.88565248527683
 21
-98.73016785723105
  0
LINE
  5
A6
100
AcDbEntity
  8
0
  6
ByLayer
 62
  256
370
   -1
100
AcDbLine
 10
25.35094896397563
 20
-65.2654532400251
 11
22.53187110161791
 21
-66.2915136700021
  0
LINE
  5
A7
100
AcDbEntity
  8
0
  6
ByLayer
 62
  256
370
   -1
100
AcDbLine
 10
35.6077053206743
 20
-93.44565972690236
 11
25.35094896397563
 21
-65.2654532400251
  0
LINE
  5
A8
100
AcDbEntity
  8
0
  6
ByLayer
 62
  256
370
   -1
100
AcDbLine
 10
22.53187110161791
 20
-66.2915136700021
 11
32.78862745831656
 21
-94.47172015687937
  0
LINE
  5
A9
100
AcDbEntity
  8
0
  6
ByLayer
 62
  256
370
   -1
100
AcDbLine
 10
36.29903810567667
 20
-59.8717782649107
 11
33.70096189432335
 21
-61.3717782649107
  0
LINE
  5
AA
100
AcDbEntity
  8
0
  6
ByLayer
 62
  256
370
   -1
100
AcDbLine
 10
51.29341278923483
 20
-85.84279704455793
 11
36.29903810567667
 21
-59.8717782649107
  0
LINE
  5
AB
100
AcDbEntity
  8
0
  6
ByLayer
 62
  256
370
   -1
100
AcDbLine
 10
33.70096189432335
 20
-61.3717782649107
 11
48.69533657788151
 21
-87.34279704455793
  0
LINE
  5
AC
100
AcDbEntity
  8
0
  6
ByLayer
 62
  256
370
   -1
100
AcDbLine
 10
46.14419934273621
 20
-52.65892960379865
 11
43.84606601337929
 21
-54.58729243285828
  0
LINE
  5
AD
100
AcDbEntity
  8
0
  6
ByLayer
 62
  256
370
   -1
100
AcDbLine
 10
65.42059586591363
 20
-75.63164441256586
 11
46.14419934273621
 21
-52.65892960379865
  0
LINE
  5
AE
100
AcDbEntity
  8
0
  6
ByLayer
 62
  256
370
   -1
100
AcDbLine
 10
43.84606601337929
 20
-54.58729243285828
 11
63.12246253655669
 21
-77.56000724162548
  0
LINE
  5
AF
100
AcDbEntity
  8
0
  6
ByLayer
 62
  256
370
   -1
100
AcDbLine
 10
54.58729243285826
 20
-43.84606601337931
 11
52.65892960379863
 21
-46.14419934273624
  0
LINE
  5
B0
100
AcDbEntity
  8
0
  6
ByLayer
 62
  256
370
   -1
100
AcDbLine
 10
77.56000724162547
 20
-63.12246253655671
 11
54.58729243285826
 21
-43.84606601337931
  0
LINE
  5
B1
100
AcDbEntity
  8
0
  6
ByLayer
 62
  256
370
   -1
100
AcDbLine
 10
52.65892960379863
 20
-46.14419934273624
 11
75.63164441256585
 21
-65.42059586591365
  0
LINE
  5
B2
100
AcDbEntity
  8
0
  6
ByLayer
 62
  256
370
   -1
100
AcDbLine
 10
61.37177826491069
 20
-33.70096189432337
 11
59.87177826491069
 21
-36.29903810567669
  0
LINE
  5
B3
100
AcDbEntity
  8
0
  6
ByLayer
 62
  256
370
   -1
100
AcDbLine
 10
87.3427970445579
 20
-48.69533657788153
 11
61.37177826491069
 21
-33.70096189432337
  0
LINE
  5
B4
100
AcDbEntity
  8
0
  6
ByLayer
 62
  256
370
   -1
100
AcDbLine
 10
59.87177826491069
 20
-36.29903810567669
 11
85.8427970445579
 21
-51.29341278923485
  0
LINE
  5
B5
100
AcDbEntity
  8
0
  6
ByLayer
 62
  256
370
   -1
100
AcDbLine
 10
66.29151367000208
 20
-22.531871101618
 11
65.26545324002507
 21
-25.35094896397572
  0
LINE
  5
B6
100
AcDbEntity
  8
0
  6
ByLayer
 62
  256
370
   -1
100
AcDbLine
 10
94.47172015687933
 20
-32.78862745831668
 11
66.29151367000208
 21
-22.531871101618
  0
LINE
  5
B7
100
AcDbEntity
  8
0
  6
ByLayer
 62
  256
370
   -1
100
AcDbLine
 10
65.26545324002507
 20
-25.35094896397572
 11
93.44565972690232
 21
-35.60770532067442
  0
LINE
  5
B8
100
AcDbEntity
  8
0
  6
ByLayer
 62
  256
370
   -1
100
AcDbLine
 10
69.19701497735497
 20
-10.67816080716682
 11
68.67607044435417
 21
-13.63258406620344
  0
LINE
  5
B9
100
AcDbEntity
  8
0
  6
ByLayer
 62
  256
370
   -1
100
AcDbLine
 10
98.73016785723104
 20
-15.88565248527686
 11
69.19701497735497
 21
-10.67816080716682
  0
LINE
  5
BA
100
AcDbEntity
  8
0
  6
ByLayer
 62
  256
370
   -1
100
AcDbLine
 10
68.67607044435417
 20
-13.63258406620344
 11
98.20922332423024
 21
-18.84007574431349
  0
LWPOLYLINE
  5
BB
100
AcDbEntity
  8
Rod
  6
ByLayer
 62
  256
370
   -1
100
AcDbPolyline
 90
    4
 70
    1
 43
0
 10
70
 20
-1.5
 10
370
 20
-1.5
 10
370
 20
1.5
 10
70
 20
1.5
  0
LWPOLYLINE
  5
BC
100
AcDbEntity
  8
Rod
  6
ByLayer
 62
  256
370
   -1
100
AcDbPolyline
 90
    4
 70
    1
 43
0
 10
69.19701497735497
 20
10.67816080716681
 10
266.1585655797966
 20
45.40779634055287
 10
265.6376210467957
 20
48.3622195995895
 10
68.67607044435417
 20
13.63258406620344
  0
LWPOLYLINE
  5
BD
100
AcDbEntity
  8
Rod
  6
ByLayer
 62
  256
370
   -1
100
AcDbPolyline
 90
    4
 70
    1
 43
0
 10
68.67607044435417
 20
-13.63258406620344
 10
314.8780086974061
 20
-57.04462848293602
 10
315.398953230407
 20
-54.09020522389939
 10
69.19701497735497
 20
-10.67816080716681
  0
LWPOLYLINE
  5
BE
100
AcDbEntity
  8
Rod
  6
ByLayer
 62
  256
370
   -1
100
AcDbPolyline
 90
    4
 70
    1
 43
0
 10
61.37177826491071
 20
33.70096189432333
 10
321.1793994002423
 20
183.7009618943233
 10
319.6793994002423
 20
186.2990381056766
 10
59.87177826491071
 20
36.29903810567665
  0
LWPOLYLINE
  5
BF
100
AcDbEntity
  8
Rod
  6
ByLayer
 62
  256
370
   -1
100
AcDbPolyline
 90
    4
 70
    1
 43
0
 10
54.58729243285828
 20
43.84606601337929
 10
207.7961810566539
 20
172.4035879506871
 10
205.8678182275943
 20
174.701721280044
 10
52.65892960379865
 20
46.14419934273621
  0
LWPOLYLINE
  5
C0
100
AcDbEntity
  8
Rod
  6
ByLayer
 62
  256
370
   -1
100
AcDbPolyline
 90
    4
 70
    1
 43
0
 10
66.29151367000209
 20
22.53187110161794
 10
301.2146688664791
 20
108.0369069330351
 10
300.1886084365022
 20
110.8559847953928
 10
65.2654532400251
 20
25.35094896397567
  0
LWPOLYLINE
  5
C1
100
AcDbEntity
  8
Rod
  6
ByLayer
 62
  256
370
   -1
100
AcDbPolyline
 90
    4
 70
    1
 43
0
 10
36.29903810567667
 20
59.8717782649107
 10
186.2990381056767
 20
319.6793994002423
 10
183.7009618943234
 20
321.1793994002423
 10
33.70096189432335
 20
61.3717782649107
  0
LWPOLYLINE
  5
C2
100
AcDbEntity
  8
Rod
  6
ByLayer
 62
  256
370
   -1
100
AcDbPolyline
 90
    4
 70
    1
 43
0
 10
25.35094896397569
 20
65.26545324002508
 10
93.75497762910946
 20
253.2039773972067
 10
90.9358997667517
 20
254.2300378271837
 10
22.53187110161796
 20
66.29151367000209
  0
LWPOLYLINE
  5
C3
100
AcDbEntity
  8
Rod
  6
ByLayer
 62
  256
370
   -1
100
AcDbPolyline
 90
    4
 70
    1
 43
0
 10
46.14419934273622
 20
52.65892960379865
 10
206.841101764371
 20
244.1700403835431
 10
204.5429684350141
 20
246.0984032126028
 10
43.8460660133793
 20
54.58729243285827
  0
LWPOLYLINE
  5
C4
100
AcDbEntity
  8
Rod
  6
ByLayer
 62
  256
370
   -1
100
AcDbPolyline
 90
    4
 70
    1
 43
0
 10
1.500000000000004
 20
70
 10
1.500000000000023
 20
370
 10
-1.499999999999977
 20
370
 10
-1.499999999999996
 20
70
  0
LWPOLYLINE
  5
C5
100
AcDbEntity
  8
Rod
  6
ByLayer
 62
  256
370
   -1
100
AcDbPolyline
 90
    4
 70
    1
 43
0
 10
-10.67816080716681
 20
69.19701497735497
 10
-45.40779634055286
 20
266.1585655797966
 10
-48.36221959958949
 20
265.6376210467957
 10
-13.63258406620343
 20
68.67607044435417
  0
LWPOLYLINE
  5
C6
100
AcDbEntity
  8
Rod
  6
ByLayer
 62
  256
370
   -1
100
AcDbPolyline
 90
    4
 70
    1
 43
0
 10
13.63258406620344
 20
68.67607044435417
 10
57.04462848293604
 20
314.8780086974061
 10
54.09020522389941
 20
315.398953230407
 10
10.67816080716682
 20
69.19701497735497
  0
LWPOLYLINE
  5
C7
100
AcDbEntity
  8
Rod
  6
ByLayer
 62
  256
370
   -1
100
AcDbPolyline
 90
    4
 70
    1
 43
0
 10
-33.70096189432333
 20
61.37177826491071
 10
-183.7009618943233
 20
321.1793994002423
 10
-186.2990381056766
 20
319.6793994002423
 10
-36.29903810567664
 20
59.87177826491071
  0
LWPOLYLINE
  5
C8
100
AcDbEntity
  8
Rod
  6
ByLayer
 62
  256
370
   -1
100
AcDbPolyline
 90
    4
 70
    1
 43
0
 10
-43.84606601337927
 20
54.58729243285828
 10
-172.4035879506871
 20
207.7961810566539
 10
-174.701721280044
 20
205.8678182275943
 10
-46.1441993427362
 20
52.65892960379865
  0
LWPOLYLINE
  5
C9
100
AcDbEntity
  8
Rod
  6
ByLayer
 62
  256
370
   -1
100
AcDbPolyline
 90
    4
 70
    1
 43
0
 10
-22.53187110161793
 20
66.29151367000209
 10
-108.0369069330351
 20
301.2146688664791
 10
-110.8559847953928
 20
300.1886084365022
 10
-25.35094896397566
 20
65.2654532400251
  0
LWPOLYLINE
  5
CA
100
AcDbEntity
  8
Rod
  6
ByLayer
 62
  256
370
   -1
100
AcDbPolyline
 90
    4
 70
    1
 43
0
 10
-59.8717782649107
 20
36.29903810567668
 10
-319.6793994002422
 20
186.2990381056768
 10
-321.1793994002422
 20
183.7009618943235
 10
-61.3717782649107
 20
33.70096189432336
  0
LWPOLYLINE
  5
CB
100
AcDbEntity
  8
Rod
  6
ByLayer
 62
  256
370
   -1
100
AcDbPolyline
 90
    4
 70
    1
 43
0
 10
-65.26545324002508
 20
25.3509489639757
 10
-253.2039773972067
 20
93.75497762910953
 10
-254.2300378271837
 20
90.93589976675177
 10
-66.29151367000208
 20
22.53187110161797
  0
LWPOLYLINE
  5
CC
100
AcDbEntity
  8
Rod
  6
ByLayer
 62
  256
370
   -1
100
AcDbPolyline
 90
    4
 70
    1
 43
0
 10
-52.65892960379863
 20
46.14419934273624
 10
-244.1700403835431
 20
206.8411017643711
 10
-246.0984032126027
 20
204.5429684350142
 10
-54.58729243285826
 20
43.84606601337931
  0
LWPOLYLINE
  5
CD
100
AcDbEntity
  8
Rod
  6
ByLayer
 62
  256
370
   -1
100
AcDbPolyline
 90
    4
 70
    1
 43
0
 10
-70
 20
1.500000000000009
 10
-370
 20
1.500000000000045
 10
-370
 20
-1.499999999999955
 10
-70
 20
-1.499999999999991
  0
LWPOLYLINE
  5
CE
100
AcDbEntity
  8
Rod
  6
ByLayer
 62
  256
370
   -1
100
AcDbPolyline
 90
    4
 70
    1
 43
0
 10
-69.19701497735497
 20
-10.6781608071668
 10
-266.1585655797966
 20
-45.40779634055284
 10
-265.6376210467957
 20
-48.36221959958947
 10
-68.67607044435417
 20
-13.63258406620343
  0
LWPOLYLINE
  5
CF
100
AcDbEntity
  8
Rod
  6
ByLayer
 62
  256
370
   -1
100
AcDbPolyline
 90
    4
 70
    1
 43
0
 10
-68.67607044435417
 20
13.63258406620344
 10
-314.8780086974061
 20
57.04462848293606
 10
-315.398953230407
 20
54.09020522389942
 10
-69.19701497735497
 20
10.67816080716682
  0
LWPOLYLINE
  5
D0
100
AcDbEntity
  8
Rod
  6
ByLayer
 62
  256
370
   -1
100
AcDbPolyline
 90
    4
 70
    1
 43
0
 10
-61.37177826491072
 20
-33.70096189432332
 10
-321.1793994002423
 20
-183.7009618943232
 10
-319.6793994002423
 20
-186.2990381056765
 10
-59.87177826491072
 20
-36.29903810567664
  0
LWPOLYLINE
  5
D1
100
AcDbEntity
  8
Rod
  6
ByLayer
 62
  256
370
   -1
100
AcDbPolyline
 90
    4
 70
    1
 43
0
 10
-54.58729243285829
 20
-43.84606601337927
 10
-207.7961810566539
 20
-172.4035879506871
 10
-205.8678182275943
 20
-174.701721280044
 10
-52.65892960379867
 20
-46.1441993427362
  0
LWPOLYLINE
  5
D2
100
AcDbEntity
  8
Rod
  6
ByLayer
 62
  256
370
   -1
100
AcDbPolyline
 90
    4
 70
    1
 43
0
 10
-66.29151367000209
 20
-22.53187110161792
 10
-301.2146688664792
 20
-108.036906933035
 10
-300.1886084365022
 20
-110.8559847953928
 10
-65.2654532400251
 20
-25.35094896397565
  0
LWPOLYLINE
  5
D3
100
AcDbEntity
  8
Rod
  6
ByLayer
 62
  256
370
   -1
100
AcDbPolyline
 90
    4
 70
    1
 43
0
 10
-36.29903810567669
 20
-59.87177826491069
 10
-186.2990381056768
 20
-319.6793994002422
 10
-183.7009618943235
 20
-321.1793994002422
 10
-33.70096189432337
 20
-61.37177826491069
  0
LWPOLYLINE
  5
D4
100
AcDbEntity
  8
Rod
  6
ByLayer
 62
  256
370
   -1
100
AcDbPolyline
 90
    4
 70
    1
 43
0
 10
-25.35094896397571
 20
-65.26545324002508
 10
-93.75497762910956
 20
-253.2039773972067
 10
-90.93589976675182
 20
-254.2300378271837
 10
-22.53187110161798
 20
-66.29151367000208
  0
LWPOLYLINE
  5
D5
100
AcDbEntity
  8
Rod
  6
ByLayer
 62
  256
370
   -1
100
AcDbPolyline
 90
    4
 70
    1
 43
0
 10
-46.14419934273624
 20
-52.65892960379863
 10
-206.8411017643712
 20
-244.170040383543
 10
-204.5429684350142
 20
-246.0984032126027
 10
-43.84606601337931
 20
-54.58729243285826
  0
LWPOLYLINE
  5
D6
100
AcDbEntity
  8
Rod
  6
ByLayer
 62
  256
370
   -1
100
AcDbPolyline
 90
    4
 70
    1
 43
0
 10
-1.500000000000013
 20
-70
 10
-1.500000000000068
 20
-370
 10
1.499999999999932
 20
-370
 10
1.499999999999987
 20
-70
  0
LWPOLYLINE
  5
D7
100
AcDbEntity
  8
Rod
  6
ByLayer
 62
  256
370
   -1
100
AcDbPolyline
 90
    4
 70
    1
 43
0
 10
10.6781608071668
 20
-69.19701497735497
 10
45.40779634055282
 20
-266.1585655797966
 10
48.36221959958945
 20
-265.6376210467957
 10
13.63258406620342
 20
-68.67607044435417
  0
LWPOLYLINE
  5
D8
100
AcDbEntity
  8
Rod
  6
ByLayer
 62
  256
370
   -1
100
AcDbPolyline
 90
    4
 70
    1
 43
0
 10
-13.63258406620345
 20
-68.67607044435417
 10
-57.04462848293608
 20
-314.8780086974061
 10
-54.09020522389945
 20
-315.398953230407
 10
-10.67816080716682
 20
-69.19701497735497
  0
LWPOLYLINE
  5
D9
100
AcDbEntity
  8
Rod
  6
ByLayer
 62
  256
370
   -1
100
AcDbPolyline
 90
    4
 70
    1
 43
0
 10
33.70096189432329
 20
-61.37177826491073
 10
183.7009618943231
 20
-321.1793994002425
 10
186.2990381056764
 20
-319.6793994002425
 10
36.29903810567661
 20
-59.87177826491073
  0
LWPOLYLINE
  5
DA
100
AcDbEntity
  8
Rod
  6
ByLayer
 62
  256
370
   -1
100
AcDbPolyline
 90
    4
 70
    1
 43
0
 10
43.84606601337925
 20
-54.58729243285832
 10
172.403587950687
 20
-207.796181056654
 10
174.7017212800439
 20
-205.8678182275944
 10
46.14419934273618
 20
-52.65892960379869
  0
LWPOLYLINE
  5
DB
100
AcDbEntity
  8
Rod
  6
ByLayer
 62
  256
370
   -1
100
AcDbPolyline
 90
    4
 70
    1
 43
0
 10
22.5318711016179
 20
-66.2915136700021
 10
108.0369069330349
 20
-301.2146688664793
 10
110.8559847953926
 20
-300.1886084365022
 10
25.35094896397563
 20
-65.26545324002511
  0
LWPOLYLINE
  5
DC
100
AcDbEntity
  8
Rod
  6
ByLayer
 62
  256
370
   -1
100
AcDbPolyline
 90
    4
 70
    1
 43
0
 10
59.87177826491069
 20
-36.29903810567669
 10
319.6793994002422
 20
-186.2990381056768
 10
321.1793994002422
 20
-183.7009618943235
 10
61.37177826491069
 20
-33.70096189432337
  0
LWPOLYLINE
  5
DD
100
AcDbEntity
  8
Rod
  6
ByLayer
 62
  256
370
   -1
100
AcDbPolyline
 90
    4
 70
    1
 43
0
 10
65.26545324002508
 20
-25.35094896397571
 10
253.2039773972067
 20
-93.75497762910956
 10
254.2300378271837
 20
-90.93589976675182
 10
66.29151367000208
 20
-22.53187110161798
  0
LWPOLYLINE
  5
DE
100
AcDbEntity
  8
Rod
  6
ByLayer
 62
  256
370
   -1
100
AcDbPolyline
 90
    4
 70
    1
 43
0
 10
52.65892960379863
 20
-46.14419934273624
 10
244.170040383543
 20
-206.8411017643712
 10
246.0984032126027
 20
-204.5429684350142
 10
54.58729243285826
 20
-43.84606601337931
  0
CIRCLE
  5
DF
100
AcDbEntity
  8
Rod
  6
ByLayer
 62
  256
370
   -1
100
AcDbCircle
 10
370
 20
0
 40
25
  0
CIRCLE
  5
E0
100
AcDbEntity
  8
Rod
  6
ByLayer
 62
  256
370
   -1
100
AcDbCircle
 10
265.8980933132962
 20
46.88500797007119
 40
25
  0
CIRCLE
  5
E1
100
AcDbEntity
  8
Rod
  6
ByLayer
 62
  256
370
   -1
100
AcDbCircle
 10
300.7016386514907
 20
109.446445864214
 40
25
  0
CIRCLE
  5
E2
100
AcDbEntity
  8
Rod
  6
ByLayer
 62
  256
370
   -1
100
AcDbCircle
 10
320.4293994002423
 20
185
 40
25
  0
CIRCLE
  5
E3
100
AcDbEntity
  8
Rod
  6
ByLayer
 62
  256
370
   -1
100
AcDbCircle
 10
206.8319996421241
 20
173.5526546153656
 40
25
  0
CIRCLE
  5
E4
100
AcDbEntity
  8
Rod
  6
ByLayer
 62
  256
370
   -1
100
AcDbCircle
 10
205.6920350996926
 20
245.1342217980729
 40
25
  0
CIRCLE
  5
E5
100
AcDbEntity
  8
Rod
  6
ByLayer
 62
  256
370
   -1
100
AcDbCircle
 10
185
 20
320.4293994002423
 40
25
  0
CIRCLE
  5
E6
100
AcDbEntity
  8
Rod
  6
ByLayer
 62
  256
370
   -1
100
AcDbCircle
 10
92.34543869793059
 20
253.7170076121952
 40
25
  0
CIRCLE
  5
E7
100
AcDbEntity
  8
Rod
  6
ByLayer
 62
  256
370
   -1
100
AcDbCircle
 10
55.56741685341777
 20
315.1384809639065
 40
25
  0
CIRCLE
  5
E8
100
AcDbEntity
  8
Rod
  6
ByLayer
 62
  256
370
   -1
100
AcDbCircle
 10
2.265596578422603e-14
 20
370
 40
25
  0
CIRCLE
  5
E9
100
AcDbEntity
  8
Rod
  6
ByLayer
 62
  256
370
   -1
100
AcDbCircle
 10
-46.88500797007117
 20
265.8980933132962
 40
25
  0
CIRCLE
  5
EA
100
AcDbEntity
  8
Rod
  6
ByLayer
 62
  256
370
   -1
100
AcDbCircle
 10
-109.4464458642139
 20
300.7016386514907
 40
25
  0
CIRCLE
  5
EB
100
AcDbEntity
  8
Rod
  6
ByLayer
 62
  256
370
   -1
100
AcDbCircle
 10
-184.9999999999999
 20
320.4293994002423
 40
25
  0
CIRCLE
  5
EC
100
AcDbEntity
  8
Rod
  6
ByLayer
 62
  256
370
   -1
100
AcDbCircle
 10
-173.5526546153656
 20
206.8319996421241
 40
25
  0
CIRCLE
  5
ED
100
AcDbEntity
  8
Rod
  6
ByLayer
 62
  256
370
   -1
100
AcDbCircle
 10
-245.1342217980729
 20
205.6920350996926
 40
25
  0
CIRCLE
  5
EE
100
AcDbEntity
  8
Rod
  6
ByLayer
 62
  256
370
   -1
100
AcDbCircle
 10
-320.4293994002422
 20
185.0000000000001
 40
25
  0
CIRCLE
  5
EF
100
AcDbEntity
  8
Rod
  6
ByLayer
 62
  256
370
   -1
100
AcDbCircle
 10
-253.7170076121952
 20
92.34543869793065
 40
25
  0
CIRCLE
  5
F0
100
AcDbEntity
  8
Rod
  6
ByLayer
 62
  256
370
   -1
100
AcDbCircle
 10
-315.1384809639065
 20
55.56741685341787
 40
25
  0
CIRCLE
  5
F1
100
AcDbEntity
  8
Rod
  6
ByLayer
 62
  256
370
   -1
100
AcDbCircle
 10
-370
 20
4.531193156845207e-14
 40
25
  0
CIRCLE
  5
F2
100
AcDbEntity
  8
Rod
  6
ByLayer
 62
  256
370
   -1
100
AcDbCircle
 10
-265.8980933132962
 20
-46.88500797007115
 40
25
  0
CIRCLE
  5
F3
100
AcDbEntity
  8
Rod
  6
ByLayer
 62
  256
370
   -1
100
AcDbCircle
 10
-300.7016386514907
 20
-109.4464458642139
 40
25
  0
CIRCLE
  5
F4
100
AcDbEntity
  8
Rod
  6
ByLayer
 62
  256
370
   -1
100
AcDbCircle
 10
-320.4293994002423
 20
-184.9999999999999
 40
25
  0
CIRCLE
  5
F5
100
AcDbEntity
  8
Rod
  6
ByLayer
 62
  256
370
   -1
100
AcDbCircle
 10
-206.8319996421241
 20
-173.5526546153655
 40
25
  0
CIRCLE
  5
F6
100
AcDbEntity
  8
Rod
  6
ByLayer
 62
  256
370
   -1
100
AcDbCircle
 10
-205.6920350996927
 20
-245.1342217980729
 40
25
  0
CIRCLE
  5
F7
100
AcDbEntity
  8
Rod
  6
ByLayer
 62
  256
370
   -1
100
AcDbCircle
 10
-185.0000000000002
 20
-320.4293994002422
 40
25
  0
CIRCLE
  5
F8
100
AcDbEntity
  8
Rod
  6
ByLayer
 62
  256
370
   -1
100
AcDbCircle
 10
-92.34543869793069
 20
-253.7170076121952
 40
25
  0
CIRCLE
  5
F9
100
AcDbEntity
  8
Rod
  6
ByLayer
 62
  256
370
   -1
100
AcDbCircle
 10
-55.56741685341791
 20
-315.1384809639065
 40
25
  0
CIRCLE
  5
FA
100
AcDbEntity
  8
Rod
  6
ByLayer
 62
  256
370
   -1
100
AcDbCircle
 10
-6.79678973526781e-14
 20
-370
 40
25
  0
CIRCLE
  5
FB
100
AcDbEntity
  8
Rod
  6
ByLayer
 62
  256
370
   -1
100
AcDbCircle
 10
46.88500797007114
 20
-265.8980933132962
 40
25
  0
CIRCLE
  5
FC
100
AcDbEntity
  8
Rod
  6
ByLayer
 62
  256
370
   -1
100
AcDbCircle
 10
109.4464458642139
 20
-300.7016386514907
 40
25
  0
CIRCLE
  5
FD
100
AcDbEntity
  8
Rod
  6
ByLayer
 62
  256
370
   -1
100
AcDbCircle
 10
184.9999999999997
 20
-320.4293994002425
 40
25
  0
CIRCLE
  5
FE
100
AcDbEntity
  8
Rod
  6
ByLayer
 62
  256
370
   -1
100
AcDbCircle
 10
173.5526546153654
 20
-206.8319996421242
 40
25
  0
CIRCLE
  5
FF
100
AcDbEntity
  8
Rod
  6
ByLayer
 62
  256
370
   -1
100
AcDbCircle
 10
245.1342217980728
 20
-205.6920350996928
 40
25
  0
CIRCLE
  5
100
100
AcDbEntity
  8
Rod
  6
ByLayer
 62
  256
370
   -1
100
AcDbCircle
 10
320.4293994002422
 20
-185.0000000000002
 40
25
  0
CIRCLE
  5
101
100
AcDbEntity
  8
Rod
  6
ByLayer
 62
  256
370
   -1
100
AcDbCircle
 10
253.7170076121952
 20
-92.34543869793069
 40
25
  0
CIRCLE
  5
102
100
AcDbEntity
  8
Rod
  6
ByLayer
 62
  256
370
   -1
100
AcDbCircle
 10
315.1384809639065
 20
-55.56741685341791
 40
25
  0
ENDSEC
  0
SECTION
  2
OBJECTS
  0
DICTIONARY
  5
C
330
0
100
AcDbDictionary
281
    1
  3
ACAD_GROUP
350
D
  0
DICTIONARY
  5
D
330
C
100
AcDbDictionary
281
    1
  0
PLOTSETTINGS
  5
103
100
AcDbPlotSettings
  6
1x1
 40
0
 41
0
 42
0
 43
0
  0
ENDSEC
  0
EOF
