999
dxfrw 0.6.3
  0
SECTION
  2
HEADER
  9
$ACADVER
  1
AC1021
  9
$DWGCODEPAGE
  3
ANSI_1252
  9
$INSBASE
 10
0
 20
0
 30
0
  9
$EXTMIN
 10
-265.2976029667015
 20
-11
 30
0
  9
$EXTMAX
 10
56
 20
266
 30
0
  9
$LIMMIN
 10
0
 20
0
  9
$LIMMAX
 10
420
 20
297
  9
$ORTHOMODE
 70
    0
  9
$REGENMODE
 70
    1
  9
$FILLMODE
 70
    1
  9
$QTEXTMODE
 70
    0
  9
$MIRRTEXT
 70
    0
  9
$LTSCALE
 40
1
  9
$ATTMODE
 70
    0
  9
$TEXTSIZE
 40
2.5
  9
$TRACEWID
 40
15.68
  9
$TEXTSTYLE
  7
STANDARD
  9
$CLAYER
  8
Bung
  9
$CELTYPE
  6
BYLAYER
  9
$CECOLOR
 62
  256
  9
$CELTSCALE
 40
1
  9
$DISPSILH
 70
    0
  9
$DIMSCALE
 40
2.5
  9
$DIMASZ
 40
2.5
  9
$DIMEXO
 40
0.625
  9
$DIMDLI
 40
3.75
  9
$DIMRND
 40
0
  9
$DIMDLE
 40
0
  9
$DIMEXE
 40
1.25
  9
$DIMTP
 40
0
  9
$DIMTM
 40
0
  9
$DIMTXT
 40
2.5
  9
$DIMCEN
 40
2.5
  9
$DIMTSZ
 40
0
  9
$DIMTOL
 70
    0
  9
$DIMLIM
 70
    0
  9
$DIMTIH
 70
    0
  9
$DIMTOH
 70
    0
  9
$DIMSE1
 70
    0
  9
$DIMSE2
 70
    0
  9
$DIMTAD
 70
    1
  9
$DIMZIN
 70
    8
  9
$DIMBLK
  1

  9
$DIMASO
 70
    1
  9
$DIMSHO
 70
    1
  9
$DIMPOST
  1

  9
$DIMAPOST
  1

  9
$DIMALT
 70
    0
  9
$DIMALTD
 70
    3
  9
$DIMALTF
 40
0.03937
  9
$DIMLFAC
 40
1
  9
$DIMTOFL
 70
    1
  9
$DIMTVP
 40
0
  9
$DIMTIX
 70
    0
  9
$DIMSOXD
 70
    0
  9
$DIMSAH
 70
    0
  9
$DIMBLK1
  1

  9
$DIMBLK2
  1

  9
$DIMSTYLE
  2
STANDARD
  9
$DIMCLRD
 70
    0
  9
$DIMCLRE
 70
    0
  9
$DIMCLRT
 70
    0
  9
$DIMTFAC
 40
1
  9
$DIMGAP
 40
0.625
  9
$DIMJUST
 70
    0
  9
$DIMSD1
 70
    0
  9
$DIMSD2
 70
    0
  9
$DIMTOLJ
 70
    0
  9
$DIMTZIN
 70
    8
  9
$DIMALTZ
 70
    0
  9
$DIMALTTZ
 70
    0
  9
$DIMUPT
 70
    0
  9
$DIMDEC
 70
    2
  9
$DIMTDEC
 70
    2
  9
$DIMALTU
 70
    2
  9
$DIMALTTD
 70
    3
  9
$DIMTXSTY
  7
STANDARD
  9
$DIMAUNIT
 70
    0
  9
$DIMADEC
 70
    0
  9
$DIMALTRND
 40
0
  9
$DIMAZIN
 70
    0
  9
$DIMDSEP
 70
   44
  9
$DIMATFIT
 70
    3
  9
$DIMFRAC
 70
    0
  9
$DIMLDRBLK
  1
STANDARD
  9
$DIMLUNIT
 70
    2
  9
$DIMLWD
 70
   -2
  9
$DIMLWE
 70
   -2
  9
$DIMTMOVE
 70
    0
  9
$DIMFXL
 40
1
  9
$DIMFXLON
 70
    0
  9
$DIMJOGANG
 40
0.7854
  9
$DIMTFILL
 70
    0
  9
$DIMTFILLCLR
 70
    0
  9
$DIMARCSYM
 70
    0
  9
$DIMLTYPE
  6

  9
$DIMLTEX1
  6

  9
$DIMLTEX2
  6

  9
$LUNITS
 70
    2
  9
$LUPREC
 70
    4
  9
$SKETCHINC
 40
1
  9
$FILLETRAD
 40
0
  9
$AUNITS
 70
    0
  9
$AUPREC
 70
    2
  9
$MENU
  1
.
  9
$ELEVATION
 40
0
  9
$PELEVATION
 40
0
  9
$THICKNESS
 40
0
  9
$LIMCHECK
 70
    0
  9
$CHAMFERA
 40
0
  9
$CHAMFERB
 40
0
  9
$CHAMFERC
 40
0
  9
$CHAMFERD
 40
0
  9
$SKPOLY
 70
    0
  9
$USRTIMER
 70
    1
  9
$ANGBASE
 50
0
  9
$ANGDIR
 70
    0
  9
$PDMODE
 70
   96
  9
$PDSIZE
 40
-2
  9
$PLINEWID
 40
0
  9
$SPLFRAME
 70
    0
  9
$SPLINETYPE
 70
    2
  9
$SPLINESEGS
 70
    8
  9
$HANDSEED
  5
20000
  9
$SURFTAB1
 70
    6
  9
$SURFTAB2
 70
    6
  9
$SURFTYPE
 70
    6
  9
$SURFU
 70
    6
  9
$SURFV
 70
    6
  9
$UCSBASE
  2

  9
$UCSNAME
  2

  9
$UCSORG
 10
0
 20
0
 30
0
  9
$UCSXDIR
 10
1
 20
0
 30
0
  9
$UCSYDIR
 10
0
 20
1
 30
0
  9
$UCSORTHOREF
  2

  9
$UCSORTHOVIEW
 70
    0
  9
$UCSORGTOP
 10
0
 20
0
 30
0
  9
$UCSORGBOTTOM
 10
0
 20
0
 30
0
  9
$UCSORGLEFT
 10
0
 20
0
 30
0
  9
$UCSORGRIGHT
 10
0
 20
0
 30
0
  9
$UCSORGFRONT
 10
0
 20
0
 30
0
  9
$UCSORGBACK
 10
0
 20
0
 30
0
  9
$PUCSBASE
  2

  9
$PUCSNAME
  2

  9
$PUCSORG
 10
0
 20
0
 30
0
  9
$PUCSXDIR
 10
1
 20
0
 30
0
  9
$PUCSYDIR
 10
0
 20
1
 30
0
  9
$PUCSORTHOREF
  2

  9
$PUCSORTHOVIEW
 70
    0
  9
$PUCSORGTOP
 10
0
 20
0
 30
0
  9
$PUCSORGBOTTOM
 10
0
 20
0
 30
0
  9
$PUCSORGLEFT
 10
0
 20
0
 30
0
  9
$PUCSORGRIGHT
 10
0
 20
0
 30
0
  9
$PUCSORGFRONT
 10
0
 20
0
 30
0
  9
$PUCSORGBACK
 10
0
 20
0
 30
0
  9
$USERI1
 70
    0
  9
$USERI2
 70
    0
  9
$USERI3
 70
    0
  9
$USERI4
 70
    0
  9
$USERI5
 70
    0
  9
$USERR1
 40
0
  9
$USERR2
 40
0
  9
$USERR3
 40
0
  9
$USERR4
 40
0
  9
$USERR5
 40
0
  9
$WORLDVIEW
 70
    1
  9
$SHADEDGE
 70
    3
  9
$SHADEDIF
 70
   70
  9
$TILEMODE
 70
    1
  9
$MAXACTVP
 70
   64
  9
$PINSBASE
 10
0
 20
0
 30
0
  9
$PLIMCHECK
 70
    0
  9
$PEXTMIN
 10
0
 20
0
 30
0
  9
$PEXTMAX
 10
0
 20
0
 30
0
  9
$GRIDMODE
 70
    1
  9
$SNAPSTYLE
 70
    0
  9
$PLIMMIN
 10
0
 20
0
  9
$PLIMMAX
 10
420
 20
297
  9
$UNITMODE
 70
    0
  9
$VISRETAIN
 70
    1
  9
$PLINEGEN
 70
    0
  9
$PSLTSCALE
 70
    1
  9
$TREEDEPTH
 70
 3020
  9
$CMLSTYLE
  2
Standard
  9
$CMLJUST
 70
    0
  9
$CMLSCALE
 40
20
  9
$PROXYGRAPHICS
 70
    1
  9
$MEASUREMENT
 70
    1
  9
$CELWEIGHT
370
   -1
  9
$ENDCAPS
280
    0
  9
$JOINSTYLE
280
    0
  9
$LWDISPLAY
290
    0
  9
$INSUNITS
 70
    4
  9
$HYPERLINKBASE
  1

  9
$STYLESHEET
  1

  9
$XEDIT
290
    1
  9
$CEPSNTYPE
380
    0
  9
$PSTYLEMODE
290
    1
  9
$EXTNAMES
290
    1
  9
$PSVPSCALE
 40
1
  9
$OLESTARTUP
290
    0
  9
$SORTENTS
280
  127
  9
$INDEXCTL
280
    0
  9
$HIDETEXT
280
    1
  9
$XCLIPFRAME
290
    0
  9
$HALOGAP
280
    0
  9
$OBSCOLOR
 70
  257
  9
$OBSLTYPE
280
    0
  9
$INTERSECTIONDISPLAY
280
    0
  9
$INTERSECTIONCOLOR
 70
  257
  9
$DIMASSOC
280
    1
  9
$PROJECTNAME
  1

  9
$CAMERADISPLAY
290
    0
  9
$LENSLENGTH
 40
50
  9
$CAMERAHEIGHT
 40
0
  9
$STEPSPERSEC
 40
2
  9
$STEPSIZE
 40
50
  9
$3DDWFPREC
 40
2
  9
$PSOLWIDTH
 40
5
  9
$PSOLHEIGHT
 40
80
  9
$LOFTANG1
 40
1.570796326794897
  9
$LOFTANG2
 40
1.570796326794897
  9
$LOFTMAG1
 40
0
  9
$LOFTMAG2
 40
0
  9
$LOFTPARAM
 70
    7
  9
$LOFTNORMALS
280
    1
  9
$LATITUDE
 40
1
  9
$LONGITUDE
 40
1
  9
$NORTHDIRECTION
 40
0
  9
$TIMEZONE
 70
-8000
  9
$LIGHTGLYPHDISPLAY
280
    1
  9
$TILEMODELIGHTSYNCH
280
    1
  9
$SOLIDHIST
280
    1
  9
$SHOWHIST
280
    1
  9
$DWFFRAME
280
    2
  9
$DGNFRAME
280
    0
  9
$REALWORLDSCALE
290
    1
  9
$INTERFERECOLOR
 62
    1
  9
$CSHADOW
280
    0
  9
$SHADOWPLANELOCATION
 40
0
  0
ENDSEC
  0
SECTION
  2
CLASSES
  0
ENDSEC
  0
SECTION
  2
TABLES
  0
TABLE
  2
VPORT
  5
8
330
0
100
AcDbSymbolTable
 70
    1
  0
VPORT
  5
31
330
2
100
AcDbSymbolTableRecord
100
AcDbViewportTableRecord
  2
*ACTIVE
 70
    0
 10
0
 20
0
 11
1
 21
1
 12
68.34423305588585
 22
134.7122473246135
 13
0
 23
0
 14
10
 24
10
 15
10
 25
10
 16
0
 26
0
 36
1
 17
0
 27
0
 37
0
 40
283.5873959571938
 41
1.70150987224158
 42
50
 43
0
 44
0
 50
0
 51
0
 71
    0
 72
  100
 73
    1
 74
    3
 75
    0
 76
    1
 77
    0
 78
    0
281
    0
 65
    1
110
0
120
0
130
0
111
1
121
0
131
0
112
0
122
1
132
0
 79
    0
146
0
348
10020
 60
    7
 61
    5
292
1
282
    1
141
0
142
0
 63
  250
421
3358443
  0
ENDTAB
  0
TABLE
  2
LTYPE
  5
5
330
0
100
AcDbSymbolTable
 70
    4
  0
LTYPE
  5
14
330
5
100
AcDbSymbolTableRecord
100
AcDbLinetypeTableRecord
  2
ByBlock
 70
    0
  3

 72
   65
 73
    0
 40
0
  0
LTYPE
  5
15
330
5
100
AcDbSymbolTableRecord
100
AcDbLinetypeTableRecord
  2
ByLayer
 70
    0
  3

 72
   65
 73
    0
 40
0
  0
LTYPE
  5
16
330
5
100
AcDbSymbolTableRecord
100
AcDbLinetypeTableRecord
  2
Continuous
 70
    0
  3
Solid line
 72
   65
 73
    0
 40
0
  0
LTYPE
  5
32
330
5
100
AcDbSymbolTableRecord
100
AcDbLinetypeTableRecord
  2
DOT
 70
    0
  3
Dot . . . . . . . . . . . . . . . . . . . . . .
 72
   65
 73
    2
 40
6.35
 49
0
 74
    0
 49
-6.35
 74
    0
  0
LTYPE
  5
33
330
5
100
AcDbSymbolTableRecord
100
AcDbLinetypeTableRecord
  2
DOTTINY
 70
    0
  3
Dot (.15x) .....................................
 72
   65
 73
    2
 40
0.9525
 49
0
 74
    0
 49
-0.9525
 74
    0
  0
LTYPE
  5
34
330
5
100
AcDbSymbolTableRecord
100
AcDbLinetypeTableRecord
  2
DOT2
 70
    0
  3
Dot (.5x) .....................................
 72
   65
 73
    2
 40
3.175
 49
0
 74
    0
 49
-3.175
 74
    0
  0
LTYPE
  5
35
330
5
100
AcDbSymbolTableRecord
100
AcDbLinetypeTableRecord
  2
DOTX2
 70
    0
  3
Dot (2x) .  .  .  .  .  .  .  .  .  .  .  .  .
 72
   65
 73
    2
 40
12.7
 49
0
 74
    0
 49
-12.7
 74
    0
  0
LTYPE
  5
36
330
5
100
AcDbSymbolTableRecord
100
AcDbLinetypeTableRecord
  2
DASHED
 70
    0
  3
Dashed _ _ _ _ _ _ _ _ _ _ _ _ _ _ _ _ _
 72
   65
 73
    2
 40
19.05
 49
12.7
 74
    0
 49
-6.35
 74
    0
  0
LTYPE
  5
37
330
5
100
AcDbSymbolTableRecord
100
AcDbLinetypeTableRecord
  2
DASHEDTINY
 70
    0
  3
Dashed (.15x) _ _ _ _ _ _ _ _ _ _ _ _ _ _ _ _ _
 72
   65
 73
    2
 40
2.8575
 49
1.905
 74
    0
 49
-0.9525
 74
    0
  0
LTYPE
  5
38
330
5
100
AcDbSymbolTableRecord
100
AcDbLinetypeTableRecord
  2
DASHED2
 70
    0
  3
Dashed (.5x) _ _ _ _ _ _ _ _ _ _ _ _ _ _ _ _ _
 72
   65
 73
    2
 40
9.524999999999999
 49
6.35
 74
    0
 49
-3.175
 74
    0
  0
LTYPE
  5
39
330
5
100
AcDbSymbolTableRecord
100
AcDbLinetypeTableRecord
  2
DASHEDX2
 70
    0
  3
Dashed (2x) ____  ____  ____  ____  ____  ___
 72
   65
 73
    2
 40
38.09999999999999
 49
25.4
 74
    0
 49
-12.7
 74
    0
  0
LTYPE
  5
3A
330
5
100
AcDbSymbolTableRecord
100
AcDbLinetypeTableRecord
  2
DASHDOT
 70
    0
  3
Dash dot __ . __ . __ . __ . __ . __ . __ . __
 72
   65
 73
    4
 40
25.4
 49
12.7
 74
    0
 49
-6.35
 74
    0
 49
0
 74
    0
 49
-6.35
 74
    0
  0
LTYPE
  5
3B
330
5
100
AcDbSymbolTableRecord
100
AcDbLinetypeTableRecord
  2
DASHDOTTINY
 70
    0
  3
Dash dot (.15x) _._._._._._._._._._._._._._._.
 72
   65
 73
    4
 40
3.81
 49
1.905
 74
    0
 49
-0.9525
 74
    0
 49
0
 74
    0
 49
-0.9525
 74
    0
  0
LTYPE
  5
3C
330
5
100
AcDbSymbolTableRecord
100
AcDbLinetypeTableRecord
  2
DASHDOT2
 70
    0
  3
Dash dot (.5x) _._._._._._._._._._._._._._._.
 72
   65
 73
    4
 40
12.7
 49
6.35
 74
    0
 49
-3.175
 74
    0
 49
0
 74
    0
 49
-3.175
 74
    0
  0
LTYPE
  5
3D
330
5
100
AcDbSymbolTableRecord
100
AcDbLinetypeTableRecord
  2
DASHDOTX2
 70
    0
  3
Dash dot (2x) ____  .  ____  .  ____  .  ___
 72
   65
 73
    4
 40
50.8
 49
25.4
 74
    0
 49
-12.7
 74
    0
 49
0
 74
    0
 49
-12.7
 74
    0
  0
LTYPE
  5
3E
330
5
100
AcDbSymbolTableRecord
100
AcDbLinetypeTableRecord
  2
DIVIDE
 70
    0
  3
Divide ____ . . ____ . . ____ . . ____ . . ____
 72
   65
 73
    6
 40
31.75
 49
12.7
 74
    0
 49
-6.35
 74
    0
 49
0
 74
    0
 49
-6.35
 74
    0
 49
0
 74
    0
 49
-6.35
 74
    0
  0
LTYPE
  5
3F
330
5
100
AcDbSymbolTableRecord
100
AcDbLinetypeTableRecord
  2
DIVIDETINY
 70
    0
  3
Divide (.15x) __..__..__..__..__..__..__..__.._
 72
   65
 73
    6
 40
4.7625
 49
1.905
 74
    0
 49
-0.9525
 74
    0
 49
0
 74
    0
 49
-0.9525
 74
    0
 49
0
 74
    0
 49
-0.9525
 74
    0
  0
LTYPE
  5
40
330
5
100
AcDbSymbolTableRecord
100
AcDbLinetypeTableRecord
  2
DIVIDE2
 70
    0
  3
Divide (.5x) __..__..__..__..__..__..__..__.._
 72
   65
 73
    6
 40
15.875
 49
6.35
 74
    0
 49
-3.175
 74
    0
 49
0
 74
    0
 49
-3.175
 74
    0
 49
0
 74
    0
 49
-3.175
 74
    0
  0
LTYPE
  5
41
330
5
100
AcDbSymbolTableRecord
100
AcDbLinetypeTableRecord
  2
DIVIDEX2
 70
    0
  3
Divide (2x) ________  .  .  ________  .  .  _
 72
   65
 73
    6
 40
63.5
 49
25.4
 74
    0
 49
-12.7
 74
    0
 49
0
 74
    0
 49
-12.7
 74
    0
 49
0
 74
    0
 49
-12.7
 74
    0
  0
LTYPE
  5
42
330
5
100
AcDbSymbolTableRecord
100
AcDbLinetypeTableRecord
  2
BORDER
 70
    0
  3
Border __ __ . __ __ . __ __ . __ __ . __ __ .
 72
   65
 73
    6
 40
44.45
 49
12.7
 74
    0
 49
-6.35
 74
    0
 49
12.7
 74
    0
 49
-6.35
 74
    0
 49
0
 74
    0
 49
-6.35
 74
    0
  0
LTYPE
  5
43
330
5
100
AcDbSymbolTableRecord
100
AcDbLinetypeTableRecord
  2
BORDERTINY
 70
    0
  3
Border (.15x) __.__.__.__.__.__.__.__.__.__.__.
 72
   65
 73
    6
 40
6.6675
 49
1.905
 74
    0
 49
-0.9525
 74
    0
 49
1.905
 74
    0
 49
-0.9525
 74
    0
 49
0
 74
    0
 49
-0.9525
 74
    0
  0
LTYPE
  5
44
330
5
100
AcDbSymbolTableRecord
100
AcDbLinetypeTableRecord
  2
BORDER2
 70
    0
  3
Border (.5x) __.__.__.__.__.__.__.__.__.__.__.
 72
   65
 73
    6
 40
22.225
 49
6.35
 74
    0
 49
-3.175
 74
    0
 49
6.35
 74
    0
 49
-3.175
 74
    0
 49
0
 74
    0
 49
-3.175
 74
    0
  0
LTYPE
  5
45
330
5
100
AcDbSymbolTableRecord
100
AcDbLinetypeTableRecord
  2
BORDERX2
 70
    0
  3
Border (2x) ____  ____  .  ____  ____  .  ___
 72
   65
 73
    6
 40
88.89999999999999
 49
25.4
 74
    0
 49
-12.7
 74
    0
 49
25.4
 74
    0
 49
-12.7
 74
    0
 49
0
 74
    0
 49
-12.7
 74
    0
  0
LTYPE
  5
46
330
5
100
AcDbSymbolTableRecord
100
AcDbLinetypeTableRecord
  2
CENTER
 70
    0
  3
Center ____ _ ____ _ ____ _ ____ _ ____ _ ____
 72
   65
 73
    4
 40
50.8
 49
31.75
 74
    0
 49
-6.35
 74
    0
 49
6.35
 74
    0
 49
-6.35
 74
    0
  0
LTYPE
  5
47
330
5
100
AcDbSymbolTableRecord
100
AcDbLinetypeTableRecord
  2
CENTERTINY
 70
    0
  3
Center (.15x) ___ _ ___ _ ___ _ ___ _ ___ _ ___
 72
   65
 73
    4
 40
7.619999999999999
 49
4.7625
 74
    0
 49
-0.9525
 74
    0
 49
0.9525
 74
    0
 49
-0.9525
 74
    0
  0
LTYPE
  5
48
330
5
100
AcDbSymbolTableRecord
100
AcDbLinetypeTableRecord
  2
CENTER2
 70
    0
  3
Center (.5x) ___ _ ___ _ ___ _ ___ _ ___ _ ___
 72
   65
 73
    4
 40
28.575
 49
19.05
 74
    0
 49
-3.175
 74
    0
 49
3.175
 74
    0
 49
-3.175
 74
    0
  0
LTYPE
  5
49
330
5
100
AcDbSymbolTableRecord
100
AcDbLinetypeTableRecord
  2
CENTERX2
 70
    0
  3
Center (2x) ________  __  ________  __  _____
 72
   65
 73
    4
 40
101.6
 49
63.5
 74
    0
 49
-12.7
 74
    0
 49
12.7
 74
    0
 49
-12.7
 74
    0
  0
ENDTAB
  0
TABLE
  2
LAYER
  5
2
330
0
100
AcDbSymbolTable
 70
    1
  0
LAYER
  5
10
330
2
100
AcDbSymbolTableRecord
100
AcDbLayerTableRecord
  2
0
 70
    0
 62
    7
  6
CONTINUOUS
370
   25
390
F
  0
LAYER
  5
4A
330
2
100
AcDbSymbolTableRecord
100
AcDbLayerTableRecord
  2
Bottle
 70
    0
 62
   96
420
32768
  6
CONTINUOUS
370
    0
390
F
  0
LAYER
  5
4B
330
2
100
AcDbSymbolTableRecord
100
AcDbLayerTableRecord
  2
Bung
 70
    0
 62
    1
  6
CONTINUOUS
370
    0
390
F
  0
LAYER
  5
4C
330
2
100
AcDbSymbolTableRecord
100
AcDbLayerTableRecord
  2
Bung1
 70
    0
 62
    7
  6
CONTINUOUS
370
    0
390
F
  0
LAYER
  5
4D
330
2
100
AcDbSymbolTableRecord
100
AcDbLayerTableRecord
  2
Divider
 70
    0
 62
    7
  6
CONTINUOUS
370
    0
390
F
  0
LAYER
  5
4E
330
2
100
AcDbSymbolTableRecord
100
AcDbLayerTableRecord
  2
Mask
 70
    0
 62
    2
  6
CONTINUOUS
370
    0
390
F
  0
LAYER
  5
4F
330
2
100
AcDbSymbolTableRecord
100
AcDbLayerTableRecord
  2
Notes
 70
    0
 62
    6
  6
CONTINUOUS
370
    0
390
F
  0
LAYER
  5
50
330
2
100
AcDbSymbolTableRecord
100
AcDbLayerTableRecord
  2
Outline
 70
    0
 62
    5
  6
CONTINUOUS
370
    0
390
F
  0
ENDTAB
  0
TABLE
  2
STYLE
  5
3
330
0
100
AcDbSymbolTable
 70
    3
  0
STYLE
  5
51
330
2
100
AcDbSymbolTableRecord
100
AcDbTextStyleTableRecord
  2
iso3098
 70
    0
 40
0
 41
1
 50
0
 71
    0
 42
1
  3
iso3098
  4

  0
STYLE
  5
52
330
2
100
AcDbSymbolTableRecord
100
AcDbTextStyleTableRecord
  2
Standard
 70
    0
 40
0
 41
1
 50
0
 71
    0
 42
1
  3
txt
  4

  0
ENDTAB
  0
TABLE
  2
VIEW
  5
6
330
0
100
AcDbSymbolTable
 70
    0
  0
ENDTAB
  0
TABLE
  2
UCS
  5
7
330
0
100
AcDbSymbolTable
 70
    0
  0
ENDTAB
  0
TABLE
  2
APPID
  5
9
330
0
100
AcDbSymbolTable
 70
    1
  0
APPID
  5
12
330
9
100
AcDbSymbolTableRecord
100
AcDbRegAppTableRecord
  2
ACAD
 70
    0
  0
APPID
  5
53
330
9
100
AcDbSymbolTableRecord
100
AcDbRegAppTableRecord
  2
LibreCad
 70
    0
  0
ENDTAB
  0
TABLE
  2
DIMSTYLE
  5
A
330
0
100
AcDbSymbolTable
 70
    1
100
AcDbDimStyleTable
 71
    1
  0
DIMSTYLE
105
54
330
A
100
AcDbSymbolTableRecord
100
AcDbDimStyleTableRecord
  2
Standard
 70
    0
 40
2.5
 41
2.5
 42
0.625
 43
0.38
 44
1.25
 45
0
 46
0
 47
0
 48
0
 49
1
140
2.5
141
0.09
142
0
143
25.4
144
1
145
0
146
1
147
0.625
148
0
 71
    0
 72
    0
 73
    0
 74
    1
 75
    0
 76
    0
 77
    0
 78
    8
 79
    0
170
    0
171
    2
172
    0
173
    0
174
    0
175
    0
176
    0
177
    0
178
    0
179
    0
271
    2
272
    4
273
    2
274
    2
275
    0
276
    0
277
    2
278
   44
279
    0
280
    0
281
    0
282
    0
283
    1
284
    0
285
    0
286
    0
288
    0
289
    3
340
52
  0
ENDTAB
  0
TABLE
  2
BLOCK_RECORD
  5
1
330
0
100
AcDbSymbolTable
 70
    2
  0
BLOCK_RECORD
  5
1F
330
1
100
AcDbSymbolTableRecord
100
AcDbBlockTableRecord
  2
*Model_Space
 70
    0
280
    1
281
    0
  0
BLOCK_RECORD
  5
1E
330
1
100
AcDbSymbolTableRecord
100
AcDbBlockTableRecord
  2
*Paper_Space
 70
    0
280
    1
281
    0
  0
ENDTAB
  0
ENDSEC
  0
SECTION
  2
BLOCKS
  0
BLOCK
  5
20
330
1F
100
AcDbEntity
  8
0
100
AcDbBlockBegin
  2
*Model_Space
 70
    0
 10
0
 20
0
 30
0
  3
*Model_Space
  1

  0
ENDBLK
  5
21
330
1F
100
AcDbEntity
  8
0
100
AcDbBlockEnd
  0
BLOCK
  5
1C
330
1B
100
AcDbEntity
  8
0
100
AcDbBlockBegin
  2
*Paper_Space
 70
    0
 10
0
 20
0
 30
0
  3
*Paper_Space
  1

  0
ENDBLK
  5
1D
330
1F
100
AcDbEntity
  8
0
100
AcDbBlockEnd
  0
ENDSEC
  0
SECTION
  2
ENTITIES
  0
LINE
  5
55
100
AcDbEntity
  8
Bottle
  6
ByLayer
 62
  256
370
   -1
100
AcDbLine
 10
-80
 20
-10
 11
-50
 21
-10
  0
LINE
  5
56
100
AcDbEntity
  8
Bottle
  6
ByLayer
 62
  256
370
   -1
100
AcDbLine
 10
-73
 20
39.50000000000003
 11
-77.826912067451
 21
38.11590523719494
  0
LINE
  5
57
100
AcDbEntity
  8
Bottle
  6
ByLayer
 62
  256
370
   -1
100
AcDbLine
 10
-80
 20
35.23212014937999
 11
-80
 21
-10
  0
ARC
  5
58
100
AcDbEntity
  8
Bottle
  6
ByLayer
 62
  256
370
   -1
100
AcDbCircle
 10
-77
 20
35.23212014937999
 40
3
100
AcDbArc
 50
106
 51
180
  0
LINE
  5
59
100
AcDbEntity
  8
Bottle
  6
ByLayer
 62
  256
370
   -1
100
AcDbLine
 10
-57
 20
39.50000000000003
 11
-52.173087932549
 21
38.11590523719494
  0
LINE
  5
5A
100
AcDbEntity
  8
Bottle
  6
ByLayer
 62
  256
370
   -1
100
AcDbLine
 10
-50
 20
35.23212014937999
 11
-50
 21
-10
  0
ARC
  5
5B
100
AcDbEntity
  8
Bottle
  6
ByLayer
 62
  256
370
   -1
100
AcDbCircle
 10
-53
 20
35.23212014937999
 40
3
100
AcDbArc
 50
0
 51
73.99999999999996
  0
LINE
  5
5C
100
AcDbEntity
  8
Bottle
  6
ByLayer
 62
  256
370
   -1
100
AcDbLine
 10
-75
 20
49
 11
-55
 21
49
  0
LINE
  5
5D
100
AcDbEntity
  8
Bottle
  6
ByLayer
 62
  256
370
   -1
100
AcDbLine
 10
-55
 20
49
 11
-55
 21
45
  0
LINE
  5
5E
100
AcDbEntity
  8
Bottle
  6
ByLayer
 62
  256
370
   -1
100
AcDbLine
 10
-55
 20
45
 11
-75
 21
45
  0
LINE
  5
5F
100
AcDbEntity
  8
Bottle
  6
ByLayer
 62
  256
370
   -1
100
AcDbLine
 10
-75
 20
45
 11
-75
 21
49
  0
LINE
  5
60
100
AcDbEntity
  8
Bottle
  6
ByLayer
 62
  256
370
   -1
100
AcDbLine
 10
-73
 20
45
 11
-57
 21
45
  0
LINE
  5
61
100
AcDbEntity
  8
Bottle
  6
ByLayer
 62
  256
370
   -1
100
AcDbLine
 10
-57
 20
45
 11
-57
 21
39.5
  0
LINE
  5
62
100
AcDbEntity
  8
Bottle
  6
ByLayer
 62
  256
370
   -1
100
AcDbLine
 10
-57
 20
39.5
 11
-73
 21
39.5
  0
LINE
  5
63
100
AcDbEntity
  8
Bottle
  6
ByLayer
 62
  256
370
   -1
100
AcDbLine
 10
-73
 20
39.5
 11
-73
 21
45
  0
LWPOLYLINE
  5
64
100
AcDbEntity
  8
Bung1
  6
ByLayer
 62
  256
370
   -1
100
AcDbPolyline
 90
    2
 70
    1
 43
0
 10
-75
 20
49
 10
-75
 20
49
  0
LWPOLYLINE
  5
65
100
AcDbEntity
  8
Outline
  6
ByLayer
 62
  256
370
   -1
100
AcDbPolyline
 90
    4
 70
    1
 43
0
 10
-80
 20
-10
 10
-50
 20
-10
 10
-50
 20
55
 10
-80
 20
55
  0
LWPOLYLINE
  5
66
100
AcDbEntity
  8
Outline
  6
ByLayer
 62
  256
370
   -1
100
AcDbPolyline
 90
    4
 70
    1
 43
0
 10
-81
 20
-11
 10
-49
 20
-11
 10
-49
 20
56
 10
-81
 20
56
  0
LWPOLYLINE
  5
67
100
AcDbEntity
  8
Bung1
  6
ByLayer
 62
  256
370
   -1
100
AcDbPolyline
 90
    4
 70
    1
 43
0
 10
-77
 20
49
 10
-53
 20
49
 10
-53
 20
55
 10
-77
 20
55
  0
ARC
  5
68
100
AcDbEntity
  8
Bung
  6
ByLayer
 62
  256
370
   -1
100
AcDbCircle
 10
-99.02017011849233
 20
24.94174035336869
 40
0.9419563295837948
100
AcDbArc
 50
182.4539375318456
 51
0
  0
LINE
  5
69
100
AcDbEntity
  8
Bottle
  6
ByLayer
 62
  256
370
   -1
100
AcDbLine
 10
-45
 20
-10
 11
-15
 21
-10
  0
LINE
  5
6A
100
AcDbEntity
  8
Bottle
  6
ByLayer
 62
  256
370
   -1
100
AcDbLine
 10
-38
 20
39.50000000000003
 11
-42.826912067451
 21
38.11590523719494
  0
LINE
  5
6B
100
AcDbEntity
  8
Bottle
  6
ByLayer
 62
  256
370
   -1
100
AcDbLine
 10
-45
 20
35.23212014937999
 11
-45
 21
-10
  0
ARC
  5
6C
100
AcDbEntity
  8
Bottle
  6
ByLayer
 62
  256
370
   -1
100
AcDbCircle
 10
-42
 20
35.23212014937999
 40
3
100
AcDbArc
 50
106
 51
180
  0
LINE
  5
6D
100
AcDbEntity
  8
Bottle
  6
ByLayer
 62
  256
370
   -1
100
AcDbLine
 10
-22
 20
39.50000000000003
 11
-17.173087932549
 21
38.11590523719494
  0
LINE
  5
6E
100
AcDbEntity
  8
Bottle
  6
ByLayer
 62
  256
370
   -1
100
AcDbLine
 10
-15
 20
35.23212014937999
 11
-15
 21
-10
  0
ARC
  5
6F
100
AcDbEntity
  8
Bottle
  6
ByLayer
 62
  256
370
   -1
100
AcDbCircle
 10
-18
 20
35.23212014937999
 40
3
100
AcDbArc
 50
0
 51
73.99999999999996
  0
LINE
  5
70
100
AcDbEntity
  8
Bottle
  6
ByLayer
 62
  256
370
   -1
100
AcDbLine
 10
-40
 20
49
 11
-20
 21
49
  0
LINE
  5
71
100
AcDbEntity
  8
Bottle
  6
ByLayer
 62
  256
370
   -1
100
AcDbLine
 10
-20
 20
49
 11
-20
 21
45
  0
LINE
  5
72
100
AcDbEntity
  8
Bottle
  6
ByLayer
 62
  256
370
   -1
100
AcDbLine
 10
-20
 20
45
 11
-40
 21
45
  0
LINE
  5
73
100
AcDbEntity
  8
Bottle
  6
ByLayer
 62
  256
370
   -1
100
AcDbLine
 10
-40
 20
45
 11
-40
 21
49
  0
LINE
  5
74
100
AcDbEntity
  8
Bottle
  6
ByLayer
 62
  256
370
   -1
100
AcDbLine
 10
-38
 20
45
 11
-22
 21
45
  0
LINE
  5
75
100
AcDbEntity
  8
Bottle
  6
ByLayer
 62
  256
370
   -1
100
AcDbLine
 10
-22
 20
45
 11
-22
 21
39.5
  0
LINE
  5
76
100
AcDbEntity
  8
Bottle
  6
ByLayer
 62
  256
370
   -1
100
AcDbLine
 10
-22
 20
39.5
 11
-38
 21
39.5
  0
LINE
  5
77
100
AcDbEntity
  8
Bottle
  6
ByLayer
 62
  256
370
   -1
100
AcDbLine
 10
-38
 20
39.5
 11
-38
 21
45
  0
LWPOLYLINE
  5
78
100
AcDbEntity
  8
Bung1
  6
ByLayer
 62
  256
370
   -1
100
AcDbPolyline
 90
    2
 70
    1
 43
0
 10
-40
 20
49
 10
-40
 20
49
  0
LWPOLYLINE
  5
79
100
AcDbEntity
  8
Outline
  6
ByLayer
 62
  256
370
   -1
100
AcDbPolyline
 90
    4
 70
    1
 43
0
 10
-45
 20
-10
 10
-15
 20
-10
 10
-15
 20
55
 10
-45
 20
55
  0
LWPOLYLINE
  5
7A
100
AcDbEntity
  8
Outline
  6
ByLayer
 62
  256
370
   -1
100
AcDbPolyline
 90
    4
 70
    1
 43
0
 10
-46
 20
-11
 10
-14
 20
-11
 10
-14
 20
56
 10
-46
 20
56
  0
LWPOLYLINE
  5
7B
100
AcDbEntity
  8
Bung1
  6
ByLayer
 62
  256
370
   -1
100
AcDbPolyline
 90
    4
 70
    1
 43
0
 10
-42
 20
49
 10
-18
 20
49
 10
-18
 20
55
 10
-42
 20
55
  0
LINE
  5
7C
100
AcDbEntity
  8
Bottle
  6
ByLayer
 62
  256
370
   -1
100
AcDbLine
 10
-10
 20
-10
 11
20
 21
-10
  0
LINE
  5
7D
100
AcDbEntity
  8
Bottle
  6
ByLayer
 62
  256
370
   -1
100
AcDbLine
 10
-3
 20
39.50000000000003
 11
-7.826912067451005
 21
38.11590523719494
  0
LINE
  5
7E
100
AcDbEntity
  8
Bottle
  6
ByLayer
 62
  256
370
   -1
100
AcDbLine
 10
-10
 20
35.23212014937999
 11
-10
 21
-10
  0
ARC
  5
7F
100
AcDbEntity
  8
Bottle
  6
ByLayer
 62
  256
370
   -1
100
AcDbCircle
 10
-7
 20
35.23212014937999
 40
3
100
AcDbArc
 50
106
 51
180
  0
LINE
  5
80
100
AcDbEntity
  8
Bottle
  6
ByLayer
 62
  256
370
   -1
100
AcDbLine
 10
13
 20
39.50000000000003
 11
17.826912067451
 21
38.11590523719494
  0
LINE
  5
81
100
AcDbEntity
  8
Bottle
  6
ByLayer
 62
  256
370
   -1
100
AcDbLine
 10
20
 20
35.23212014937999
 11
20
 21
-10
  0
ARC
  5
82
100
AcDbEntity
  8
Bottle
  6
ByLayer
 62
  256
370
   -1
100
AcDbCircle
 10
17
 20
35.23212014937999
 40
3
100
AcDbArc
 50
0
 51
73.99999999999996
  0
LINE
  5
83
100
AcDbEntity
  8
Bottle
  6
ByLayer
 62
  256
370
   -1
100
AcDbLine
 10
-5
 20
49
 11
15
 21
49
  0
LINE
  5
84
100
AcDbEntity
  8
Bottle
  6
ByLayer
 62
  256
370
   -1
100
AcDbLine
 10
15
 20
49
 11
15
 21
45
  0
LINE
  5
85
100
AcDbEntity
  8
Bottle
  6
ByLayer
 62
  256
370
   -1
100
AcDbLine
 10
15
 20
45
 11
-5
 21
45
  0
LINE
  5
86
100
AcDbEntity
  8
Bottle
  6
ByLayer
 62
  256
370
   -1
100
AcDbLine
 10
-5
 20
45
 11
-5
 21
49
  0
LINE
  5
87
100
AcDbEntity
  8
Bottle
  6
ByLayer
 62
  256
370
   -1
100
AcDbLine
 10
-3
 20
45
 11
13
 21
45
  0
LINE
  5
88
100
AcDbEntity
  8
Bottle
  6
ByLayer
 62
  256
370
   -1
100
AcDbLine
 10
13
 20
45
 11
13
 21
39.5
  0
LINE
  5
89
100
AcDbEntity
  8
Bottle
  6
ByLayer
 62
  256
370
   -1
100
AcDbLine
 10
13
 20
39.5
 11
-3
 21
39.5
  0
LINE
  5
8A
100
AcDbEntity
  8
Bottle
  6
ByLayer
 62
  256
370
   -1
100
AcDbLine
 10
-3
 20
39.5
 11
-3
 21
45
  0
LWPOLYLINE
  5
8B
100
AcDbEntity
  8
Bung1
  6
ByLayer
 62
  256
370
   -1
100
AcDbPolyline
 90
    2
 70
    1
 43
0
 10
-5
 20
49
 10
-5
 20
49
  0
LWPOLYLINE
  5
8C
100
AcDbEntity
  8
Outline
  6
ByLayer
 62
  256
370
   -1
100
AcDbPolyline
 90
    4
 70
    1
 43
0
 10
-10
 20
-10
 10
20
 20
-10
 10
20
 20
55
 10
-10
 20
55
  0
LWPOLYLINE
  5
8D
100
AcDbEntity
  8
Outline
  6
ByLayer
 62
  256
370
   -1
100
AcDbPolyline
 90
    4
 70
    1
 43
0
 10
-11
 20
-11
 10
21
 20
-11
 10
21
 20
56
 10
-11
 20
56
  0
LWPOLYLINE
  5
8E
100
AcDbEntity
  8
Bung1
  6
ByLayer
 62
  256
370
   -1
100
AcDbPolyline
 90
    4
 70
    1
 43
0
 10
-7
 20
49
 10
17
 20
49
 10
17
 20
55
 10
-7
 20
55
  0
LINE
  5
8F
100
AcDbEntity
  8
Bottle
  6
ByLayer
 62
  256
370
   -1
100
AcDbLine
 10
25
 20
-10
 11
55
 21
-10
  0
LINE
  5
90
100
AcDbEntity
  8
Bottle
  6
ByLayer
 62
  256
370
   -1
100
AcDbLine
 10
32
 20
39.50000000000003
 11
27.173087932549
 21
38.11590523719494
  0
LINE
  5
91
100
AcDbEntity
  8
Bottle
  6
ByLayer
 62
  256
370
   -1
100
AcDbLine
 10
25
 20
35.23212014937999
 11
25
 21
-10
  0
ARC
  5
92
100
AcDbEntity
  8
Bottle
  6
ByLayer
 62
  256
370
   -1
100
AcDbCircle
 10
28
 20
35.23212014937999
 40
3
100
AcDbArc
 50
106
 51
180
  0
LINE
  5
93
100
AcDbEntity
  8
Bottle
  6
ByLayer
 62
  256
370
   -1
100
AcDbLine
 10
48
 20
39.50000000000003
 11
52.826912067451
 21
38.11590523719494
  0
LINE
  5
94
100
AcDbEntity
  8
Bottle
  6
ByLayer
 62
  256
370
   -1
100
AcDbLine
 10
55
 20
35.23212014937999
 11
55
 21
-10
  0
ARC
  5
95
100
AcDbEntity
  8
Bottle
  6
ByLayer
 62
  256
370
   -1
100
AcDbCircle
 10
52
 20
35.23212014937999
 40
3
100
AcDbArc
 50
0
 51
73.99999999999996
  0
LINE
  5
96
100
AcDbEntity
  8
Bottle
  6
ByLayer
 62
  256
370
   -1
100
AcDbLine
 10
30
 20
49
 11
50
 21
49
  0
LINE
  5
97
100
AcDbEntity
  8
Bottle
  6
ByLayer
 62
  256
370
   -1
100
AcDbLine
 10
50
 20
49
 11
50
 21
45
  0
LINE
  5
98
100
AcDbEntity
  8
Bottle
  6
ByLayer
 62
  256
370
   -1
100
AcDbLine
 10
50
 20
45
 11
30
 21
45
  0
LINE
  5
99
100
AcDbEntity
  8
Bottle
  6
ByLayer
 62
  256
370
   -1
100
AcDbLine
 10
30
 20
45
 11
30
 21
49
  0
LINE
  5
9A
100
AcDbEntity
  8
Bottle
  6
ByLayer
 62
  256
370
   -1
100
AcDbLine
 10
32
 20
45
 11
48
 21
45
  0
LINE
  5
9B
100
AcDbEntity
  8
Bottle
  6
ByLayer
 62
  256
370
   -1
100
AcDbLine
 10
48
 20
45
 11
48
 21
39.5
  0
LINE
  5
9C
100
AcDbEntity
  8
Bottle
  6
ByLayer
 62
  256
370
   -1
100
AcDbLine
 10
48
 20
39.5
 11
32
 21
39.5
  0
LINE
  5
9D
100
AcDbEntity
  8
Bottle
  6
ByLayer
 62
  256
370
   -1
100
AcDbLine
 10
32
 20
39.5
 11
32
 21
45
  0
LWPOLYLINE
  5
9E
100
AcDbEntity
  8
Bung1
  6
ByLayer
 62
  256
370
   -1
100
AcDbPolyline
 90
    2
 70
    1
 43
0
 10
30
 20
49
 10
30
 20
49
  0
LWPOLYLINE
  5
9F
100
AcDbEntity
  8
Outline
  6
ByLayer
 62
  256
370
   -1
100
AcDbPolyline
 90
    4
 70
    1
 43
0
 10
25
 20
-10
 10
55
 20
-10
 10
55
 20
55
 10
25
 20
55
  0
LWPOLYLINE
  5
A0
100
AcDbEntity
  8
Outline
  6
ByLayer
 62
  256
370
   -1
100
AcDbPolyline
 90
    4
 70
    1
 43
0
 10
24
 20
-11
 10
56
 20
-11
 10
56
 20
56
 10
24
 20
56
  0
LWPOLYLINE
  5
A1
100
AcDbEntity
  8
Bung1
  6
ByLayer
 62
  256
370
   -1
100
AcDbPolyline
 90
    4
 70
    1
 43
0
 10
28
 20
49
 10
52
 20
49
 10
52
 20
55
 10
28
 20
55
  0
LINE
  5
A2
100
AcDbEntity
  8
Bottle
  6
ByLayer
 62
  256
370
   -1
100
AcDbLine
 10
-80
 20
60
 11
-50
 21
60
  0
LINE
  5
A3
100
AcDbEntity
  8
Bottle
  6
ByLayer
 62
  256
370
   -1
100
AcDbLine
 10
-73
 20
109.5
 11
-77.826912067451
 21
108.1159052371949
  0
LINE
  5
A4
100
AcDbEntity
  8
Bottle
  6
ByLayer
 62
  256
370
   -1
100
AcDbLine
 10
-80
 20
105.23212014938
 11
-80
 21
60
  0
ARC
  5
A5
100
AcDbEntity
  8
Bottle
  6
ByLayer
 62
  256
370
   -1
100
AcDbCircle
 10
-77
 20
105.23212014938
 40
3
100
AcDbArc
 50
106
 51
180
  0
LINE
  5
A6
100
AcDbEntity
  8
Bottle
  6
ByLayer
 62
  256
370
   -1
100
AcDbLine
 10
-57
 20
109.5
 11
-52.173087932549
 21
108.1159052371949
  0
LINE
  5
A7
100
AcDbEntity
  8
Bottle
  6
ByLayer
 62
  256
370
   -1
100
AcDbLine
 10
-50
 20
105.23212014938
 11
-50
 21
60
  0
ARC
  5
A8
100
AcDbEntity
  8
Bottle
  6
ByLayer
 62
  256
370
   -1
100
AcDbCircle
 10
-53
 20
105.23212014938
 40
3
100
AcDbArc
 50
0
 51
73.99999999999996
  0
LINE
  5
A9
100
AcDbEntity
  8
Bottle
  6
ByLayer
 62
  256
370
   -1
100
AcDbLine
 10
-75
 20
119
 11
-55
 21
119
  0
LINE
  5
AA
100
AcDbEntity
  8
Bottle
  6
ByLayer
 62
  256
370
   -1
100
AcDbLine
 10
-55
 20
119
 11
-55
 21
115
  0
LINE
  5
AB
100
AcDbEntity
  8
Bottle
  6
ByLayer
 62
  256
370
   -1
100
AcDbLine
 10
-55
 20
115
 11
-75
 21
115
  0
LINE
  5
AC
100
AcDbEntity
  8
Bottle
  6
ByLayer
 62
  256
370
   -1
100
AcDbLine
 10
-75
 20
115
 11
-75
 21
119
  0
LINE
  5
AD
100
AcDbEntity
  8
Bottle
  6
ByLayer
 62
  256
370
   -1
100
AcDbLine
 10
-73
 20
115
 11
-57
 21
115
  0
LINE
  5
AE
100
AcDbEntity
  8
Bottle
  6
ByLayer
 62
  256
370
   -1
100
AcDbLine
 10
-57
 20
115
 11
-57
 21
109.5
  0
LINE
  5
AF
100
AcDbEntity
  8
Bottle
  6
ByLayer
 62
  256
370
   -1
100
AcDbLine
 10
-57
 20
109.5
 11
-73
 21
109.5
  0
LINE
  5
B0
100
AcDbEntity
  8
Bottle
  6
ByLayer
 62
  256
370
   -1
100
AcDbLine
 10
-73
 20
109.5
 11
-73
 21
115
  0
LWPOLYLINE
  5
B1
100
AcDbEntity
  8
Bung1
  6
ByLayer
 62
  256
370
   -1
100
AcDbPolyline
 90
    2
 70
    1
 43
0
 10
-75
 20
119
 10
-75
 20
119
  0
LWPOLYLINE
  5
B2
100
AcDbEntity
  8
Outline
  6
ByLayer
 62
  256
370
   -1
100
AcDbPolyline
 90
    4
 70
    1
 43
0
 10
-80
 20
60
 10
-50
 20
60
 10
-50
 20
125
 10
-80
 20
125
  0
LWPOLYLINE
  5
B3
100
AcDbEntity
  8
Outline
  6
ByLayer
 62
  256
370
   -1
100
AcDbPolyline
 90
    4
 70
    1
 43
0
 10
-81
 20
59
 10
-49
 20
59
 10
-49
 20
126
 10
-81
 20
126
  0
LWPOLYLINE
  5
B4
100
AcDbEntity
  8
Bung1
  6
ByLayer
 62
  256
370
   -1
100
AcDbPolyline
 90
    4
 70
    1
 43
0
 10
-77
 20
119
 10
-53
 20
119
 10
-53
 20
125
 10
-77
 20
125
  0
LINE
  5
B5
100
AcDbEntity
  8
Bottle
  6
ByLayer
 62
  256
370
   -1
100
AcDbLine
 10
-45
 20
60
 11
-15
 21
60
  0
LINE
  5
B6
100
AcDbEntity
  8
Bottle
  6
ByLayer
 62
  256
370
   -1
100
AcDbLine
 10
-38
 20
109.5
 11
-42.826912067451
 21
108.1159052371949
  0
LINE
  5
B7
100
AcDbEntity
  8
Bottle
  6
ByLayer
 62
  256
370
   -1
100
AcDbLine
 10
-45
 20
105.23212014938
 11
-45
 21
60
  0
ARC
  5
B8
100
AcDbEntity
  8
Bottle
  6
ByLayer
 62
  256
370
   -1
100
AcDbCircle
 10
-42
 20
105.23212014938
 40
3
100
AcDbArc
 50
106
 51
180
  0
LINE
  5
B9
100
AcDbEntity
  8
Bottle
  6
ByLayer
 62
  256
370
   -1
100
AcDbLine
 10
-22
 20
109.5
 11
-17.173087932549
 21
108.1159052371949
  0
LINE
  5
BA
100
AcDbEntity
  8
Bottle
  6
ByLayer
 62
  256
370
   -1
100
AcDbLine
 10
-15
 20
105.23212014938
 11
-15
 21
60
  0
ARC
  5
BB
100
AcDbEntity
  8
Bottle
  6
ByLayer
 62
  256
370
   -1
100
AcDbCircle
 10
-18
 20
105.23212014938
 40
3
100
AcDbArc
 50
0
 51
73.99999999999996
  0
LINE
  5
BC
100
AcDbEntity
  8
Bottle
  6
ByLayer
 62
  256
370
   -1
100
AcDbLine
 10
-40
 20
119
 11
-20
 21
119
  0
LINE
  5
BD
100
AcDbEntity
  8
Bottle
  6
ByLayer
 62
  256
370
   -1
100
AcDbLine
 10
-20
 20
119
 11
-20
 21
115
  0
LINE
  5
BE
100
AcDbEntity
  8
Bottle
  6
ByLayer
 62
  256
370
   -1
100
AcDbLine
 10
-20
 20
115
 11
-40
 21
115
  0
LINE
  5
BF
100
AcDbEntity
  8
Bottle
  6
ByLayer
 62
  256
370
   -1
100
AcDbLine
 10
-40
 20
115
 11
-40
 21
119
  0
LINE
  5
C0
100
AcDbEntity
  8
Bottle
  6
ByLayer
 62
  256
370
   -1
100
AcDbLine
 10
-38
 20
115
 11
-22
 21
115
  0
LINE
  5
C1
100
AcDbEntity
  8
Bottle
  6
ByLayer
 62
  256
370
   -1
100
AcDbLine
 10
-22
 20
115
 11
-22
 21
109.5
  0
LINE
  5
C2
100
AcDbEntity
  8
Bottle
  6
ByLayer
 62
  256
370
   -1
100
AcDbLine
 10
-22
 20
109.5
 11
-38
 21
109.5
  0
LINE
  5
C3
100
AcDbEntity
  8
Bottle
  6
ByLayer
 62
  256
370
   -1
100
AcDbLine
 10
-38
 20
109.5
 11
-38
 21
115
  0
LWPOLYLINE
  5
C4
100
AcDbEntity
  8
Bung1
  6
ByLayer
 62
  256
370
   -1
100
AcDbPolyline
 90
    2
 70
    1
 43
0
 10
-40
 20
119
 10
-40
 20
119
  0
LWPOLYLINE
  5
C5
100
AcDbEntity
  8
Outline
  6
ByLayer
 62
  256
370
   -1
100
AcDbPolyline
 90
    4
 70
    1
 43
0
 10
-45
 20
60
 10
-15
 20
60
 10
-15
 20
125
 10
-45
 20
125
  0
LWPOLYLINE
  5
C6
100
AcDbEntity
  8
Outline
  6
ByLayer
 62
  256
370
   -1
100
AcDbPolyline
 90
    4
 70
    1
 43
0
 10
-46
 20
59
 10
-14
 20
59
 10
-14
 20
126
 10
-46
 20
126
  0
LWPOLYLINE
  5
C7
100
AcDbEntity
  8
Bung1
  6
ByLayer
 62
  256
370
   -1
100
AcDbPolyline
 90
    4
 70
    1
 43
0
 10
-42
 20
119
 10
-18
 20
119
 10
-18
 20
125
 10
-42
 20
125
  0
LINE
  5
C8
100
AcDbEntity
  8
Bottle
  6
ByLayer
 62
  256
370
   -1
100
AcDbLine
 10
-10
 20
60
 11
20
 21
60
  0
LINE
  5
C9
100
AcDbEntity
  8
Bottle
  6
ByLayer
 62
  256
370
   -1
100
AcDbLine
 10
-3
 20
109.5
 11
-7.826912067451005
 21
108.1159052371949
  0
LINE
  5
CA
100
AcDbEntity
  8
Bottle
  6
ByLayer
 62
  256
370
   -1
100
AcDbLine
 10
-10
 20
105.23212014938
 11
-10
 21
60
  0
ARC
  5
CB
100
AcDbEntity
  8
Bottle
  6
ByLayer
 62
  256
370
   -1
100
AcDbCircle
 10
-7
 20
105.23212014938
 40
3
100
AcDbArc
 50
106
 51
180
  0
LINE
  5
CC
100
AcDbEntity
  8
Bottle
  6
ByLayer
 62
  256
370
   -1
100
AcDbLine
 10
13
 20
109.5
 11
17.826912067451
 21
108.1159052371949
  0
LINE
  5
CD
100
AcDbEntity
  8
Bottle
  6
ByLayer
 62
  256
370
   -1
100
AcDbLine
 10
20
 20
105.23212014938
 11
20
 21
60
  0
ARC
  5
CE
100
AcDbEntity
  8
Bottle
  6
ByLayer
 62
  256
370
   -1
100
AcDbCircle
 10
17
 20
105.23212014938
 40
3
100
AcDbArc
 50
0
 51
73.99999999999996
  0
LINE
  5
CF
100
AcDbEntity
  8
Bottle
  6
ByLayer
 62
  256
370
   -1
100
AcDbLine
 10
-5
 20
119
 11
15
 21
119
  0
LINE
  5
D0
100
AcDbEntity
  8
Bottle
  6
ByLayer
 62
  256
370
   -1
100
AcDbLine
 10
15
 20
119
 11
15
 21
115
  0
LINE
  5
D1
100
AcDbEntity
  8
Bottle
  6
ByLayer
 62
  256
370
   -1
100
AcDbLine
 10
15
 20
115
 11
-5
 21
115
  0
LINE
  5
D2
100
AcDbEntity
  8
Bottle
  6
ByLayer
 62
  256
370
   -1
100
AcDbLine
 10
-5
 20
115
 11
-5
 21
119
  0
LINE
  5
D3
100
AcDbEntity
  8
Bottle
  6
ByLayer
 62
  256
370
   -1
100
AcDbLine
 10
-3
 20
115
 11
13
 21
115
  0
LINE
  5
D4
100
AcDbEntity
  8
Bottle
  6
ByLayer
 62
  256
370
   -1
100
AcDbLine
 10
13
 20
115
 11
13
 21
109.5
  0
LINE
  5
D5
100
AcDbEntity
  8
Bottle
  6
ByLayer
 62
  256
370
   -1
100
AcDbLine
 10
13
 20
109.5
 11
-3
 21
109.5
  0
LINE
  5
D6
100
AcDbEntity
  8
Bottle
  6
ByLayer
 62
  256
370
   -1
100
AcDbLine
 10
-3
 20
109.5
 11
-3
 21
115
  0
LWPOLYLINE
  5
D7
100
AcDbEntity
  8
Bung1
  6
ByLayer
 62
  256
370
   -1
100
AcDbPolyline
 90
    2
 70
    1
 43
0
 10
-5
 20
119
 10
-5
 20
119
  0
LWPOLYLINE
  5
D8
100
AcDbEntity
  8
Outline
  6
ByLayer
 62
  256
370
   -1
100
AcDbPolyline
 90
    4
 70
    1
 43
0
 10
-10
 20
60
 10
20
 20
60
 10
20
 20
125
 10
-10
 20
125
  0
LWPOLYLINE
  5
D9
100
AcDbEntity
  8
Outline
  6
ByLayer
 62
  256
370
   -1
100
AcDbPolyline
 90
    4
 70
    1
 43
0
 10
-11
 20
59
 10
21
 20
59
 10
21
 20
126
 10
-11
 20
126
  0
LWPOLYLINE
  5
DA
100
AcDbEntity
  8
Bung1
  6
ByLayer
 62
  256
370
   -1
100
AcDbPolyline
 90
    4
 70
    1
 43
0
 10
-7
 20
119
 10
17
 20
119
 10
17
 20
125
 10
-7
 20
125
  0
LINE
  5
DB
100
AcDbEntity
  8
Bottle
  6
ByLayer
 62
  256
370
   -1
100
AcDbLine
 10
25
 20
60
 11
55
 21
60
  0
LINE
  5
DC
100
AcDbEntity
  8
Bottle
  6
ByLayer
 62
  256
370
   -1
100
AcDbLine
 10
32
 20
109.5
 11
27.173087932549
 21
108.1159052371949
  0
LINE
  5
DD
100
AcDbEntity
  8
Bottle
  6
ByLayer
 62
  256
370
   -1
100
AcDbLine
 10
25
 20
105.23212014938
 11
25
 21
60
  0
ARC
  5
DE
100
AcDbEntity
  8
Bottle
  6
ByLayer
 62
  256
370
   -1
100
AcDbCircle
 10
28
 20
105.23212014938
 40
3
100
AcDbArc
 50
106
 51
180
  0
LINE
  5
DF
100
AcDbEntity
  8
Bottle
  6
ByLayer
 62
  256
370
   -1
100
AcDbLine
 10
48
 20
109.5
 11
52.826912067451
 21
108.1159052371949
  0
LINE
  5
E0
100
AcDbEntity
  8
Bottle
  6
ByLayer
 62
  256
370
   -1
100
AcDbLine
 10
55
 20
105.23212014938
 11
55
 21
60
  0
ARC
  5
E1
100
AcDbEntity
  8
Bottle
  6
ByLayer
 62
  256
370
   -1
100
AcDbCircle
 10
52
 20
105.23212014938
 40
3
100
AcDbArc
 50
0
 51
73.99999999999996
  0
LINE
  5
E2
100
AcDbEntity
  8
Bottle
  6
ByLayer
 62
  256
370
   -1
100
AcDbLine
 10
30
 20
119
 11
50
 21
119
  0
LINE
  5
E3
100
AcDbEntity
  8
Bottle
  6
ByLayer
 62
  256
370
   -1
100
AcDbLine
 10
50
 20
119
 11
50
 21
115
  0
LINE
  5
E4
100
AcDbEntity
  8
Bottle
  6
ByLayer
 62
  256
370
   -1
100
AcDbLine
 10
50
 20
115
 11
30
 21
115
  0
LINE
  5
E5
100
AcDbEntity
  8
Bottle
  6
ByLayer
 62
  256
370
   -1
100
AcDbLine
 10
30
 20
115
 11
30
 21
119
  0
LINE
  5
E6
100
AcDbEntity
  8
Bottle
  6
ByLayer
 62
  256
370
   -1
100
AcDbLine
 10
32
 20
115
 11
48
 21
115
  0
LINE
  5
E7
100
AcDbEntity
  8
Bottle
  6
ByLayer
 62
  256
370
   -1
100
AcDbLine
 10
48
 20
115
 11
48
 21
109.5
  0
LINE
  5
E8
100
AcDbEntity
  8
Bottle
  6
ByLayer
 62
  256
370
   -1
100
AcDbLine
 10
48
 20
109.5
 11
32
 21
109.5
  0
LINE
  5
E9
100
AcDbEntity
  8
Bottle
  6
ByLayer
 62
  256
370
   -1
100
AcDbLine
 10
32
 20
109.5
 11
32
 21
115
  0
LWPOLYLINE
  5
EA
100
AcDbEntity
  8
Bung1
  6
ByLayer
 62
  256
370
   -1
100
AcDbPolyline
 90
    2
 70
    1
 43
0
 10
30
 20
119
 10
30
 20
119
  0
LWPOLYLINE
  5
EB
100
AcDbEntity
  8
Outline
  6
ByLayer
 62
  256
370
   -1
100
AcDbPolyline
 90
    4
 70
    1
 43
0
 10
25
 20
60
 10
55
 20
60
 10
55
 20
125
 10
25
 20
125
  0
LWPOLYLINE
  5
EC
100
AcDbEntity
  8
Outline
  6
ByLayer
 62
  256
370
   -1
100
AcDbPolyline
 90
    4
 70
    1
 43
0
 10
24
 20
59
 10
56
 20
59
 10
56
 20
126
 10
24
 20
126
  0
LWPOLYLINE
  5
ED
100
AcDbEntity
  8
Bung1
  6
ByLayer
 62
  256
370
   -1
100
AcDbPolyline
 90
    4
 70
    1
 43
0
 10
28
 20
119
 10
52
 20
119
 10
52
 20
125
 10
28
 20
125
  0
LINE
  5
EE
100
AcDbEntity
  8
Bottle
  6
ByLayer
 62
  256
370
   -1
100
AcDbLine
 10
-80
 20
130
 11
-50
 21
130
  0
LINE
  5
EF
100
AcDbEntity
  8
Bottle
  6
ByLayer
 62
  256
370
   -1
100
AcDbLine
 10
-73
 20
179.5
 11
-77.826912067451
 21
178.1159052371949
  0
LINE
  5
F0
100
AcDbEntity
  8
Bottle
  6
ByLayer
 62
  256
370
   -1
100
AcDbLine
 10
-80
 20
175.23212014938
 11
-80
 21
130
  0
ARC
  5
F1
100
AcDbEntity
  8
Bottle
  6
ByLayer
 62
  256
370
   -1
100
AcDbCircle
 10
-77
 20
175.23212014938
 40
3
100
AcDbArc
 50
106
 51
180
  0
LINE
  5
F2
100
AcDbEntity
  8
Bottle
  6
ByLayer
 62
  256
370
   -1
100
AcDbLine
 10
-57
 20
179.5
 11
-52.173087932549
 21
178.1159052371949
  0
LINE
  5
F3
100
AcDbEntity
  8
Bottle
  6
ByLayer
 62
  256
370
   -1
100
AcDbLine
 10
-50
 20
175.23212014938
 11
-50
 21
130
  0
ARC
  5
F4
100
AcDbEntity
  8
Bottle
  6
ByLayer
 62
  256
370
   -1
100
AcDbCircle
 10
-53
 20
175.23212014938
 40
3
100
AcDbArc
 50
0
 51
73.99999999999996
  0
LINE
  5
F5
100
AcDbEntity
  8
Bottle
  6
ByLayer
 62
  256
370
   -1
100
AcDbLine
 10
-75
 20
189
 11
-55
 21
189
  0
LINE
  5
F6
100
AcDbEntity
  8
Bottle
  6
ByLayer
 62
  256
370
   -1
100
AcDbLine
 10
-55
 20
189
 11
-55
 21
185
  0
LINE
  5
F7
100
AcDbEntity
  8
Bottle
  6
ByLayer
 62
  256
370
   -1
100
AcDbLine
 10
-55
 20
185
 11
-75
 21
185
  0
LINE
  5
F8
100
AcDbEntity
  8
Bottle
  6
ByLayer
 62
  256
370
   -1
100
AcDbLine
 10
-75
 20
185
 11
-75
 21
189
  0
LINE
  5
F9
100
AcDbEntity
  8
Bottle
  6
ByLayer
 62
  256
370
   -1
100
AcDbLine
 10
-73
 20
185
 11
-57
 21
185
  0
LINE
  5
FA
100
AcDbEntity
  8
Bottle
  6
ByLayer
 62
  256
370
   -1
100
AcDbLine
 10
-57
 20
185
 11
-57
 21
179.5
  0
LINE
  5
FB
100
AcDbEntity
  8
Bottle
  6
ByLayer
 62
  256
370
   -1
100
AcDbLine
 10
-57
 20
179.5
 11
-73
 21
179.5
  0
LINE
  5
FC
100
AcDbEntity
  8
Bottle
  6
ByLayer
 62
  256
370
   -1
100
AcDbLine
 10
-73
 20
179.5
 11
-73
 21
185
  0
LWPOLYLINE
  5
FD
100
AcDbEntity
  8
Bung1
  6
ByLayer
 62
  256
370
   -1
100
AcDbPolyline
 90
    2
 70
    1
 43
0
 10
-75
 20
189
 10
-75
 20
189
  0
LWPOLYLINE
  5
FE
100
AcDbEntity
  8
Outline
  6
ByLayer
 62
  256
370
   -1
100
AcDbPolyline
 90
    4
 70
    1
 43
0
 10
-80
 20
130
 10
-50
 20
130
 10
-50
 20
195
 10
-80
 20
195
  0
LWPOLYLINE
  5
FF
100
AcDbEntity
  8
Outline
  6
ByLayer
 62
  256
370
   -1
100
AcDbPolyline
 90
    4
 70
    1
 43
0
 10
-81
 20
129
 10
-49
 20
129
 10
-49
 20
196
 10
-81
 20
196
  0
LWPOLYLINE
  5
100
100
AcDbEntity
  8
Bung1
  6
ByLayer
 62
  256
370
   -1
100
AcDbPolyline
 90
    4
 70
    1
 43
0
 10
-77
 20
189
 10
-53
 20
189
 10
-53
 20
195
 10
-77
 20
195
  0
LINE
  5
101
100
AcDbEntity
  8
Bottle
  6
ByLayer
 62
  256
370
   -1
100
AcDbLine
 10
-45
 20
130
 11
-15
 21
130
  0
LINE
  5
102
100
AcDbEntity
  8
Bottle
  6
ByLayer
 62
  256
370
   -1
100
AcDbLine
 10
-38
 20
179.5
 11
-42.826912067451
 21
178.1159052371949
  0
LINE
  5
103
100
AcDbEntity
  8
Bottle
  6
ByLayer
 62
  256
370
   -1
100
AcDbLine
 10
-45
 20
175.23212014938
 11
-45
 21
130
  0
ARC
  5
104
100
AcDbEntity
  8
Bottle
  6
ByLayer
 62
  256
370
   -1
100
AcDbCircle
 10
-42
 20
175.23212014938
 40
3
100
AcDbArc
 50
106
 51
180
  0
LINE
  5
105
100
AcDbEntity
  8
Bottle
  6
ByLayer
 62
  256
370
   -1
100
AcDbLine
 10
-22
 20
179.5
 11
-17.173087932549
 21
178.1159052371949
  0
LINE
  5
106
100
AcDbEntity
  8
Bottle
  6
ByLayer
 62
  256
370
   -1
100
AcDbLine
 10
-15
 20
175.23212014938
 11
-15
 21
130
  0
ARC
  5
107
100
AcDbEntity
  8
Bottle
  6
ByLayer
 62
  256
370
   -1
100
AcDbCircle
 10
-18
 20
175.23212014938
 40
3
100
AcDbArc
 50
0
 51
73.99999999999996
  0
LINE
  5
108
100
AcDbEntity
  8
Bottle
  6
ByLayer
 62
  256
370
   -1
100
AcDbLine
 10
-40
 20
189
 11
-20
 21
189
  0
LINE
  5
109
100
AcDbEntity
  8
Bottle
  6
ByLayer
 62
  256
370
   -1
100
AcDbLine
 10
-20
 20
189
 11
-20
 21
185
  0
LINE
  5
10A
100
AcDbEntity
  8
Bottle
  6
ByLayer
 62
  256
370
   -1
100
AcDbLine
 10
-20
 20
185
 11
-40
 21
185
  0
LINE
  5
10B
100
AcDbEntity
  8
Bottle
  6
ByLayer
 62
  256
370
   -1
100
AcDbLine
 10
-40
 20
185
 11
-40
 21
189
  0
LINE
  5
10C
100
AcDbEntity
  8
Bottle
  6
ByLayer
 62
  256
370
   -1
100
AcDbLine
 10
-38
 20
185
 11
-22
 21
185
  0
LINE
  5
10D
100
AcDbEntity
  8
Bottle
  6
ByLayer
 62
  256
370
   -1
100
AcDbLine
 10
-22
 20
185
 11
-22
 21
179.5
  0
LINE
  5
10E
100
AcDbEntity
  8
Bottle
  6
ByLayer
 62
  256
370
   -1
100
AcDbLine
 10
-22
 20
179.5
 11
-38
 21
179.5
  0
LINE
  5
10F
100
AcDbEntity
  8
Bottle
  6
ByLayer
 62
  256
370
   -1
100
AcDbLine
 10
-38
 20
179.5
 11
-38
 21
185
  0
LWPOLYLINE
  5
110
100
AcDbEntity
  8
Bung1
  6
ByLayer
 62
  256
370
   -1
100
AcDbPolyline
 90
    2
 70
    1
 43
0
 10
-40
 20
189
 10
-40
 20
189
  0
LWPOLYLINE
  5
111
100
AcDbEntity
  8
Outline
  6
ByLayer
 62
  256
370
   -1
100
AcDbPolyline
 90
    4
 70
    1
 43
0
 10
-45
 20
130
 10
-15
 20
130
 10
-15
 20
195
 10
-45
 20
195
  0
LWPOLYLINE
  5
112
100
AcDbEntity
  8
Outline
  6
ByLayer
 62
  256
370
   -1
100
AcDbPolyline
 90
    4
 70
    1
 43
0
 10
-46
 20
129
 10
-14
 20
129
 10
-14
 20
196
 10
-46
 20
196
  0
LWPOLYLINE
  5
113
100
AcDbEntity
  8
Bung1
  6
ByLayer
 62
  256
370
   -1
100
AcDbPolyline
 90
    4
 70
    1
 43
0
 10
-42
 20
189
 10
-18
 20
189
 10
-18
 20
195
 10
-42
 20
195
  0
LINE
  5
114
100
AcDbEntity
  8
Bottle
  6
ByLayer
 62
  256
370
   -1
100
AcDbLine
 10
-10
 20
130
 11
20
 21
130
  0
LINE
  5
115
100
AcDbEntity
  8
Bottle
  6
ByLayer
 62
  256
370
   -1
100
AcDbLine
 10
-3
 20
179.5
 11
-7.826912067451005
 21
178.1159052371949
  0
LINE
  5
116
100
AcDbEntity
  8
Bottle
  6
ByLayer
 62
  256
370
   -1
100
AcDbLine
 10
-10
 20
175.23212014938
 11
-10
 21
130
  0
ARC
  5
117
100
AcDbEntity
  8
Bottle
  6
ByLayer
 62
  256
370
   -1
100
AcDbCircle
 10
-7
 20
175.23212014938
 40
3
100
AcDbArc
 50
106
 51
180
  0
LINE
  5
118
100
AcDbEntity
  8
Bottle
  6
ByLayer
 62
  256
370
   -1
100
AcDbLine
 10
13
 20
179.5
 11
17.826912067451
 21
178.1159052371949
  0
LINE
  5
119
100
AcDbEntity
  8
Bottle
  6
ByLayer
 62
  256
370
   -1
100
AcDbLine
 10
20
 20
175.23212014938
 11
20
 21
130
  0
ARC
  5
11A
100
AcDbEntity
  8
Bottle
  6
ByLayer
 62
  256
370
   -1
100
AcDbCircle
 10
17
 20
175.23212014938
 40
3
100
AcDbArc
 50
0
 51
73.99999999999996
  0
LINE
  5
11B
100
AcDbEntity
  8
Bottle
  6
ByLayer
 62
  256
370
   -1
100
AcDbLine
 10
-5
 20
189
 11
15
 21
189
  0
LINE
  5
11C
100
AcDbEntity
  8
Bottle
  6
ByLayer
 62
  256
370
   -1
100
AcDbLine
 10
15
 20
189
 11
15
 21
185
  0
LINE
  5
11D
100
AcDbEntity
  8
Bottle
  6
ByLayer
 62
  256
370
   -1
100
AcDbLine
 10
15
 20
185
 11
-5
 21
185
  0
LINE
  5
11E
100
AcDbEntity
  8
Bottle
  6
ByLayer
 62
  256
370
   -1
100
AcDbLine
 10
-5
 20
185
 11
-5
 21
189
  0
LINE
  5
11F
100
AcDbEntity
  8
Bottle
  6
ByLayer
 62
  256
370
   -1
100
AcDbLine
 10
-3
 20
185
 11
13
 21
185
  0
LINE
  5
120
100
AcDbEntity
  8
Bottle
  6
ByLayer
 62
  256
370
   -1
100
AcDbLine
 10
13
 20
185
 11
13
 21
179.5
  0
LINE
  5
121
100
AcDbEntity
  8
Bottle
  6
ByLayer
 62
  256
370
   -1
100
AcDbLine
 10
13
 20
179.5
 11
-3
 21
179.5
  0
LINE
  5
122
100
AcDbEntity
  8
Bottle
  6
ByLayer
 62
  256
370
   -1
100
AcDbLine
 10
-3
 20
179.5
 11
-3
 21
185
  0
LWPOLYLINE
  5
123
100
AcDbEntity
  8
Bung1
  6
ByLayer
 62
  256
370
   -1
100
AcDbPolyline
 90
    2
 70
    1
 43
0
 10
-5
 20
189
 10
-5
 20
189
  0
LWPOLYLINE
  5
124
100
AcDbEntity
  8
Outline
  6
ByLayer
 62
  256
370
   -1
100
AcDbPolyline
 90
    4
 70
    1
 43
0
 10
-10
 20
130
 10
20
 20
130
 10
20
 20
195
 10
-10
 20
195
  0
LWPOLYLINE
  5
125
100
AcDbEntity
  8
Outline
  6
ByLayer
 62
  256
370
   -1
100
AcDbPolyline
 90
    4
 70
    1
 43
0
 10
-11
 20
129
 10
21
 20
129
 10
21
 20
196
 10
-11
 20
196
  0
LWPOLYLINE
  5
126
100
AcDbEntity
  8
Bung1
  6
ByLayer
 62
  256
370
   -1
100
AcDbPolyline
 90
    4
 70
    1
 43
0
 10
-7
 20
189
 10
17
 20
189
 10
17
 20
195
 10
-7
 20
195
  0
LINE
  5
127
100
AcDbEntity
  8
Bottle
  6
ByLayer
 62
  256
370
   -1
100
AcDbLine
 10
25
 20
130
 11
55
 21
130
  0
LINE
  5
128
100
AcDbEntity
  8
Bottle
  6
ByLayer
 62
  256
370
   -1
100
AcDbLine
 10
32
 20
179.5
 11
27.173087932549
 21
178.1159052371949
  0
LINE
  5
129
100
AcDbEntity
  8
Bottle
  6
ByLayer
 62
  256
370
   -1
100
AcDbLine
 10
25
 20
175.23212014938
 11
25
 21
130
  0
ARC
  5
12A
100
AcDbEntity
  8
Bottle
  6
ByLayer
 62
  256
370
   -1
100
AcDbCircle
 10
28
 20
175.23212014938
 40
3
100
AcDbArc
 50
106
 51
180
  0
LINE
  5
12B
100
AcDbEntity
  8
Bottle
  6
ByLayer
 62
  256
370
   -1
100
AcDbLine
 10
48
 20
179.5
 11
52.826912067451
 21
178.1159052371949
  0
LINE
  5
12C
100
AcDbEntity
  8
Bottle
  6
ByLayer
 62
  256
370
   -1
100
AcDbLine
 10
55
 20
175.23212014938
 11
55
 21
130
  0
ARC
  5
12D
100
AcDbEntity
  8
Bottle
  6
ByLayer
 62
  256
370
   -1
100
AcDbCircle
 10
52
 20
175.23212014938
 40
3
100
AcDbArc
 50
0
 51
73.99999999999996
  0
LINE
  5
12E
100
AcDbEntity
  8
Bottle
  6
ByLayer
 62
  256
370
   -1
100
AcDbLine
 10
30
 20
189
 11
50
 21
189
  0
LINE
  5
12F
100
AcDbEntity
  8
Bottle
  6
ByLayer
 62
  256
370
   -1
100
AcDbLine
 10
50
 20
189
 11
50
 21
185
  0
LINE
  5
130
100
AcDbEntity
  8
Bottle
  6
ByLayer
 62
  256
370
   -1
100
AcDbLine
 10
50
 20
185
 11
30
 21
185
  0
LINE
  5
131
100
AcDbEntity
  8
Bottle
  6
ByLayer
 62
  256
370
   -1
100
AcDbLine
 10
30
 20
185
 11
30
 21
189
  0
LINE
  5
132
100
AcDbEntity
  8
Bottle
  6
ByLayer
 62
  256
370
   -1
100
AcDbLine
 10
32
 20
185
 11
48
 21
185
  0
LINE
  5
133
100
AcDbEntity
  8
Bottle
  6
ByLayer
 62
  256
370
   -1
100
AcDbLine
 10
48
 20
185
 11
48
 21
179.5
  0
LINE
  5
134
100
AcDbEntity
  8
Bottle
  6
ByLayer
 62
  256
370
   -1
100
AcDbLine
 10
48
 20
179.5
 11
32
 21
179.5
  0
LINE
  5
135
100
AcDbEntity
  8
Bottle
  6
ByLayer
 62
  256
370
   -1
100
AcDbLine
 10
32
 20
179.5
 11
32
 21
185
  0
LWPOLYLINE
  5
136
100
AcDbEntity
  8
Bung1
  6
ByLayer
 62
  256
370
   -1
100
AcDbPolyline
 90
    2
 70
    1
 43
0
 10
30
 20
189
 10
30
 20
189
  0
LWPOLYLINE
  5
137
100
AcDbEntity
  8
Outline
  6
ByLayer
 62
  256
370
   -1
100
AcDbPolyline
 90
    4
 70
    1
 43
0
 10
25
 20
130
 10
55
 20
130
 10
55
 20
195
 10
25
 20
195
  0
LWPOLYLINE
  5
138
100
AcDbEntity
  8
Outline
  6
ByLayer
 62
  256
370
   -1
100
AcDbPolyline
 90
    4
 70
    1
 43
0
 10
24
 20
129
 10
56
 20
129
 10
56
 20
196
 10
24
 20
196
  0
LWPOLYLINE
  5
139
100
AcDbEntity
  8
Bung1
  6
ByLayer
 62
  256
370
   -1
100
AcDbPolyline
 90
    4
 70
    1
 43
0
 10
28
 20
189
 10
52
 20
189
 10
52
 20
195
 10
28
 20
195
  0
LINE
  5
13A
100
AcDbEntity
  8
Bottle
  6
ByLayer
 62
  256
370
   -1
100
AcDbLine
 10
-80
 20
200
 11
-50
 21
200
  0
LINE
  5
13B
100
AcDbEntity
  8
Bottle
  6
ByLayer
 62
  256
370
   -1
100
AcDbLine
 10
-73
 20
249.5
 11
-77.826912067451
 21
248.1159052371949
  0
LINE
  5
13C
100
AcDbEntity
  8
Bottle
  6
ByLayer
 62
  256
370
   -1
100
AcDbLine
 10
-80
 20
245.23212014938
 11
-80
 21
200
  0
ARC
  5
13D
100
AcDbEntity
  8
Bottle
  6
ByLayer
 62
  256
370
   -1
100
AcDbCircle
 10
-77
 20
245.23212014938
 40
3
100
AcDbArc
 50
106
 51
180
  0
LINE
  5
13E
100
AcDbEntity
  8
Bottle
  6
ByLayer
 62
  256
370
   -1
100
AcDbLine
 10
-57
 20
249.5
 11
-52.173087932549
 21
248.1159052371949
  0
LINE
  5
13F
100
AcDbEntity
  8
Bottle
  6
ByLayer
 62
  256
370
   -1
100
AcDbLine
 10
-50
 20
245.23212014938
 11
-50
 21
200
  0
ARC
  5
140
100
AcDbEntity
  8
Bottle
  6
ByLayer
 62
  256
370
   -1
100
AcDbCircle
 10
-53
 20
245.23212014938
 40
3
100
AcDbArc
 50
0
 51
73.99999999999996
  0
LINE
  5
141
100
AcDbEntity
  8
Bottle
  6
ByLayer
 62
  256
370
   -1
100
AcDbLine
 10
-75
 20
259
 11
-55
 21
259
  0
LINE
  5
142
100
AcDbEntity
  8
Bottle
  6
ByLayer
 62
  256
370
   -1
100
AcDbLine
 10
-55
 20
259
 11
-55
 21
255
  0
LINE
  5
143
100
AcDbEntity
  8
Bottle
  6
ByLayer
 62
  256
370
   -1
100
AcDbLine
 10
-55
 20
255
 11
-75
 21
255
  0
LINE
  5
144
100
AcDbEntity
  8
Bottle
  6
ByLayer
 62
  256
370
   -1
100
AcDbLine
 10
-75
 20
255
 11
-75
 21
259
  0
LINE
  5
145
100
AcDbEntity
  8
Bottle
  6
ByLayer
 62
  256
370
   -1
100
AcDbLine
 10
-73
 20
255
 11
-57
 21
255
  0
LINE
  5
146
100
AcDbEntity
  8
Bottle
  6
ByLayer
 62
  256
370
   -1
100
AcDbLine
 10
-57
 20
255
 11
-57
 21
249.5
  0
LINE
  5
147
100
AcDbEntity
  8
Bottle
  6
ByLayer
 62
  256
370
   -1
100
AcDbLine
 10
-57
 20
249.5
 11
-73
 21
249.5
  0
LINE
  5
148
100
AcDbEntity
  8
Bottle
  6
ByLayer
 62
  256
370
   -1
100
AcDbLine
 10
-73
 20
249.5
 11
-73
 21
255
  0
LWPOLYLINE
  5
149
100
AcDbEntity
  8
Bung1
  6
ByLayer
 62
  256
370
   -1
100
AcDbPolyline
 90
    2
 70
    1
 43
0
 10
-75
 20
259
 10
-75
 20
259
  0
LWPOLYLINE
  5
14A
100
AcDbEntity
  8
Outline
  6
ByLayer
 62
  256
370
   -1
100
AcDbPolyline
 90
    4
 70
    1
 43
0
 10
-80
 20
200
 10
-50
 20
200
 10
-50
 20
265
 10
-80
 20
265
  0
LWPOLYLINE
  5
14B
100
AcDbEntity
  8
Outline
  6
ByLayer
 62
  256
370
   -1
100
AcDbPolyline
 90
    4
 70
    1
 43
0
 10
-81
 20
199
 10
-49
 20
199
 10
-49
 20
266
 10
-81
 20
266
  0
LWPOLYLINE
  5
14C
100
AcDbEntity
  8
Bung1
  6
ByLayer
 62
  256
370
   -1
100
AcDbPolyline
 90
    4
 70
    1
 43
0
 10
-77
 20
259
 10
-53
 20
259
 10
-53
 20
265
 10
-77
 20
265
  0
LINE
  5
14D
100
AcDbEntity
  8
Bottle
  6
ByLayer
 62
  256
370
   -1
100
AcDbLine
 10
-45
 20
200
 11
-15
 21
200
  0
LINE
  5
14E
100
AcDbEntity
  8
Bottle
  6
ByLayer
 62
  256
370
   -1
100
AcDbLine
 10
-38
 20
249.5
 11
-42.826912067451
 21
248.1159052371949
  0
LINE
  5
14F
100
AcDbEntity
  8
Bottle
  6
ByLayer
 62
  256
370
   -1
100
AcDbLine
 10
-45
 20
245.23212014938
 11
-45
 21
200
  0
ARC
  5
150
100
AcDbEntity
  8
Bottle
  6
ByLayer
 62
  256
370
   -1
100
AcDbCircle
 10
-42
 20
245.23212014938
 40
3
100
AcDbArc
 50
106
 51
180
  0
LINE
  5
151
100
AcDbEntity
  8
Bottle
  6
ByLayer
 62
  256
370
   -1
100
AcDbLine
 10
-22
 20
249.5
 11
-17.173087932549
 21
248.1159052371949
  0
LINE
  5
152
100
AcDbEntity
  8
Bottle
  6
ByLayer
 62
  256
370
   -1
100
AcDbLine
 10
-15
 20
245.23212014938
 11
-15
 21
200
  0
ARC
  5
153
100
AcDbEntity
  8
Bottle
  6
ByLayer
 62
  256
370
   -1
100
AcDbCircle
 10
-18
 20
245.23212014938
 40
3
100
AcDbArc
 50
0
 51
73.99999999999996
  0
LINE
  5
154
100
AcDbEntity
  8
Bottle
  6
ByLayer
 62
  256
370
   -1
100
AcDbLine
 10
-40
 20
259
 11
-20
 21
259
  0
LINE
  5
155
100
AcDbEntity
  8
Bottle
  6
ByLayer
 62
  256
370
   -1
100
AcDbLine
 10
-20
 20
259
 11
-20
 21
255
  0
LINE
  5
156
100
AcDbEntity
  8
Bottle
  6
ByLayer
 62
  256
370
   -1
100
AcDbLine
 10
-20
 20
255
 11
-40
 21
255
  0
LINE
  5
157
100
AcDbEntity
  8
Bottle
  6
ByLayer
 62
  256
370
   -1
100
AcDbLine
 10
-40
 20
255
 11
-40
 21
259
  0
LINE
  5
158
100
AcDbEntity
  8
Bottle
  6
ByLayer
 62
  256
370
   -1
100
AcDbLine
 10
-38
 20
255
 11
-22
 21
255
  0
LINE
  5
159
100
AcDbEntity
  8
Bottle
  6
ByLayer
 62
  256
370
   -1
100
AcDbLine
 10
-22
 20
255
 11
-22
 21
249.5
  0
LINE
  5
15A
100
AcDbEntity
  8
Bottle
  6
ByLayer
 62
  256
370
   -1
100
AcDbLine
 10
-22
 20
249.5
 11
-38
 21
249.5
  0
LINE
  5
15B
100
AcDbEntity
  8
Bottle
  6
ByLayer
 62
  256
370
   -1
100
AcDbLine
 10
-38
 20
249.5
 11
-38
 21
255
  0
LWPOLYLINE
  5
15C
100
AcDbEntity
  8
Bung1
  6
ByLayer
 62
  256
370
   -1
100
AcDbPolyline
 90
    2
 70
    1
 43
0
 10
-40
 20
259
 10
-40
 20
259
  0
LWPOLYLINE
  5
15D
100
AcDbEntity
  8
Outline
  6
ByLayer
 62
  256
370
   -1
100
AcDbPolyline
 90
    4
 70
    1
 43
0
 10
-45
 20
200
 10
-15
 20
200
 10
-15
 20
265
 10
-45
 20
265
  0
LWPOLYLINE
  5
15E
100
AcDbEntity
  8
Outline
  6
ByLayer
 62
  256
370
   -1
100
AcDbPolyline
 90
    4
 70
    1
 43
0
 10
-46
 20
199
 10
-14
 20
199
 10
-14
 20
266
 10
-46
 20
266
  0
LWPOLYLINE
  5
15F
100
AcDbEntity
  8
Bung1
  6
ByLayer
 62
  256
370
   -1
100
AcDbPolyline
 90
    4
 70
    1
 43
0
 10
-42
 20
259
 10
-18
 20
259
 10
-18
 20
265
 10
-42
 20
265
  0
LINE
  5
160
100
AcDbEntity
  8
Bottle
  6
ByLayer
 62
  256
370
   -1
100
AcDbLine
 10
-10
 20
200
 11
20
 21
200
  0
LINE
  5
161
100
AcDbEntity
  8
Bottle
  6
ByLayer
 62
  256
370
   -1
100
AcDbLine
 10
-3
 20
249.5
 11
-7.826912067451005
 21
248.1159052371949
  0
LINE
  5
162
100
AcDbEntity
  8
Bottle
  6
ByLayer
 62
  256
370
   -1
100
AcDbLine
 10
-10
 20
245.23212014938
 11
-10
 21
200
  0
ARC
  5
163
100
AcDbEntity
  8
Bottle
  6
ByLayer
 62
  256
370
   -1
100
AcDbCircle
 10
-7
 20
245.23212014938
 40
3
100
AcDbArc
 50
106
 51
180
  0
LINE
  5
164
100
AcDbEntity
  8
Bottle
  6
ByLayer
 62
  256
370
   -1
100
AcDbLine
 10
13
 20
249.5
 11
17.826912067451
 21
248.1159052371949
  0
LINE
  5
165
100
AcDbEntity
  8
Bottle
  6
ByLayer
 62
  256
370
   -1
100
AcDbLine
 10
20
 20
245.23212014938
 11
20
 21
200
  0
ARC
  5
166
100
AcDbEntity
  8
Bottle
  6
ByLayer
 62
  256
370
   -1
100
AcDbCircle
 10
17
 20
245.23212014938
 40
3
100
AcDbArc
 50
0
 51
73.99999999999996
  0
LINE
  5
167
100
AcDbEntity
  8
Bottle
  6
ByLayer
 62
  256
370
   -1
100
AcDbLine
 10
-5
 20
259
 11
15
 21
259
  0
LINE
  5
168
100
AcDbEntity
  8
Bottle
  6
ByLayer
 62
  256
370
   -1
100
AcDbLine
 10
15
 20
259
 11
15
 21
255
  0
LINE
  5
169
100
AcDbEntity
  8
Bottle
  6
ByLayer
 62
  256
370
   -1
100
AcDbLine
 10
15
 20
255
 11
-5
 21
255
  0
LINE
  5
16A
100
AcDbEntity
  8
Bottle
  6
ByLayer
 62
  256
370
   -1
100
AcDbLine
 10
-5
 20
255
 11
-5
 21
259
  0
LINE
  5
16B
100
AcDbEntity
  8
Bottle
  6
ByLayer
 62
  256
370
   -1
100
AcDbLine
 10
-3
 20
255
 11
13
 21
255
  0
LINE
  5
16C
100
AcDbEntity
  8
Bottle
  6
ByLayer
 62
  256
370
   -1
100
AcDbLine
 10
13
 20
255
 11
13
 21
249.5
  0
LINE
  5
16D
100
AcDbEntity
  8
Bottle
  6
ByLayer
 62
  256
370
   -1
100
AcDbLine
 10
13
 20
249.5
 11
-3
 21
249.5
  0
LINE
  5
16E
100
AcDbEntity
  8
Bottle
  6
ByLayer
 62
  256
370
   -1
100
AcDbLine
 10
-3
 20
249.5
 11
-3
 21
255
  0
LWPOLYLINE
  5
16F
100
AcDbEntity
  8
Bung1
  6
ByLayer
 62
  256
370
   -1
100
AcDbPolyline
 90
    2
 70
    1
 43
0
 10
-5
 20
259
 10
-5
 20
259
  0
LWPOLYLINE
  5
170
100
AcDbEntity
  8
Outline
  6
ByLayer
 62
  256
370
   -1
100
AcDbPolyline
 90
    4
 70
    1
 43
0
 10
-10
 20
200
 10
20
 20
200
 10
20
 20
265
 10
-10
 20
265
  0
LWPOLYLINE
  5
171
100
AcDbEntity
  8
Outline
  6
ByLayer
 62
  256
370
   -1
100
AcDbPolyline
 90
    4
 70
    1
 43
0
 10
-11
 20
199
 10
21
 20
199
 10
21
 20
266
 10
-11
 20
266
  0
LWPOLYLINE
  5
172
100
AcDbEntity
  8
Bung1
  6
ByLayer
 62
  256
370
   -1
100
AcDbPolyline
 90
    4
 70
    1
 43
0
 10
-7
 20
259
 10
17
 20
259
 10
17
 20
265
 10
-7
 20
265
  0
LINE
  5
173
100
AcDbEntity
  8
Bottle
  6
ByLayer
 62
  256
370
   -1
100
AcDbLine
 10
25
 20
200
 11
55
 21
200
  0
LINE
  5
174
100
AcDbEntity
  8
Bottle
  6
ByLayer
 62
  256
370
   -1
100
AcDbLine
 10
32
 20
249.5
 11
27.173087932549
 21
248.1159052371949
  0
LINE
  5
175
100
AcDbEntity
  8
Bottle
  6
ByLayer
 62
  256
370
   -1
100
AcDbLine
 10
25
 20
245.23212014938
 11
25
 21
200
  0
ARC
  5
176
100
AcDbEntity
  8
Bottle
  6
ByLayer
 62
  256
370
   -1
100
AcDbCircle
 10
28
 20
245.23212014938
 40
3
100
AcDbArc
 50
106
 51
180
  0
LINE
  5
177
100
AcDbEntity
  8
Bottle
  6
ByLayer
 62
  256
370
   -1
100
AcDbLine
 10
48
 20
249.5
 11
52.826912067451
 21
248.1159052371949
  0
LINE
  5
178
100
AcDbEntity
  8
Bottle
  6
ByLayer
 62
  256
370
   -1
100
AcDbLine
 10
55
 20
245.23212014938
 11
55
 21
200
  0
ARC
  5
179
100
AcDbEntity
  8
Bottle
  6
ByLayer
 62
  256
370
   -1
100
AcDbCircle
 10
52
 20
245.23212014938
 40
3
100
AcDbArc
 50
0
 51
73.99999999999996
  0
LINE
  5
17A
100
AcDbEntity
  8
Bottle
  6
ByLayer
 62
  256
370
   -1
100
AcDbLine
 10
30
 20
259
 11
50
 21
259
  0
LINE
  5
17B
100
AcDbEntity
  8
Bottle
  6
ByLayer
 62
  256
370
   -1
100
AcDbLine
 10
50
 20
259
 11
50
 21
255
  0
LINE
  5
17C
100
AcDbEntity
  8
Bottle
  6
ByLayer
 62
  256
370
   -1
100
AcDbLine
 10
50
 20
255
 11
30
 21
255
  0
LINE
  5
17D
100
AcDbEntity
  8
Bottle
  6
ByLayer
 62
  256
370
   -1
100
AcDbLine
 10
30
 20
255
 11
30
 21
259
  0
LINE
  5
17E
100
AcDbEntity
  8
Bottle
  6
ByLayer
 62
  256
370
   -1
100
AcDbLine
 10
32
 20
255
 11
48
 21
255
  0
LINE
  5
17F
100
AcDbEntity
  8
Bottle
  6
ByLayer
 62
  256
370
   -1
100
AcDbLine
 10
48
 20
255
 11
48
 21
249.5
  0
LINE
  5
180
100
AcDbEntity
  8
Bottle
  6
ByLayer
 62
  256
370
   -1
100
AcDbLine
 10
48
 20
249.5
 11
32
 21
249.5
  0
LINE
  5
181
100
AcDbEntity
  8
Bottle
  6
ByLayer
 62
  256
370
   -1
100
AcDbLine
 10
32
 20
249.5
 11
32
 21
255
  0
LWPOLYLINE
  5
182
100
AcDbEntity
  8
Bung1
  6
ByLayer
 62
  256
370
   -1
100
AcDbPolyline
 90
    2
 70
    1
 43
0
 10
30
 20
259
 10
30
 20
259
  0
LWPOLYLINE
  5
183
100
AcDbEntity
  8
Outline
  6
ByLayer
 62
  256
370
   -1
100
AcDbPolyline
 90
    4
 70
    1
 43
0
 10
25
 20
200
 10
55
 20
200
 10
55
 20
265
 10
25
 20
265
  0
LWPOLYLINE
  5
184
100
AcDbEntity
  8
Outline
  6
ByLayer
 62
  256
370
   -1
100
AcDbPolyline
 90
    4
 70
    1
 43
0
 10
24
 20
199
 10
56
 20
199
 10
56
 20
266
 10
24
 20
266
  0
LWPOLYLINE
  5
185
100
AcDbEntity
  8
Bung1
  6
ByLayer
 62
  256
370
   -1
100
AcDbPolyline
 90
    4
 70
    1
 43
0
 10
28
 20
259
 10
52
 20
259
 10
52
 20
265
 10
28
 20
265
  0
LWPOLYLINE
  5
186
100
AcDbEntity
  8
Mask
  6
ByLayer
 62
  256
370
   -1
100
AcDbPolyline
 90
    4
 70
    1
 43
0
 10
-60
 20
55
 10
40
 20
55
 10
40
 20
249
 10
-60
 20
249
  0
LINE
  5
187
100
AcDbEntity
  8
Mask
  6
ByLayer
 62
  256
370
   -1
100
AcDbLine
 10
-58.88416662940841
 20
188.4957983193277
 11
-34.44208331470421
 21
74.7478991596639
  0
LINE
  5
188
100
AcDbEntity
  8
Mask
  6
ByLayer
 62
  256
370
   -1
100
AcDbLine
 10
38.8841666294083
 20
188.4957983193277
 11
14.44208331470421
 21
74.7478991596639
  0
ARC
  5
189
100
AcDbEntity
  8
Mask
  6
ByLayer
 62
  256
370
   -1
100
AcDbCircle
 10
-10
 20
199
 40
49.99999999999999
100
AcDbArc
 50
347.8727222748482
 51
192.127276873011
  0
ARC
  5
18A
100
AcDbEntity
  8
Mask
  6
ByLayer
 62
  256
370
   -1
100
AcDbCircle
 10
-10
 20
80
 40
25.00000000000001
100
AcDbArc
 50
192.1272768730111
 51
347.8727231269889
  0
TEXT
  5
18B
100
AcDbEntity
  8
Notes
  6
ByLayer
 62
  256
370
   -1
100
AcDbText
 10
-113.4600564145084
 20
-2.75951311243103
 30
0
 40
3
  1
BOTTLE 30x65
 50
0
 41
1
 51
0
  7
iso3098
 71
    0
210
0
220
0
230
1
100
AcDbText
  0
TEXT
  5
18C
100
AcDbEntity
  8
Notes
  6
ByLayer
 62
  256
370
   -1
100
AcDbText
 10
-122.5378945591836
 20
-8.211061191344807
 30
0
 40
3
  1
PIGEONHOLE 32x67
 50
0
 41
1
 51
0
  7
iso3098
 71
    0
210
0
220
0
230
1
100
AcDbText
  0
ARC
  5
18D
100
AcDbEntity
  8
Bung
  6
ByLayer
 62
  256
370
   -1
100
AcDbCircle
 10
-90.46023746420651
 20
20.26387664165487
 40
0.9419563295837948
100
AcDbArc
 50
122.4539375318456
 51
299.9999999999999
  0
ARC
  5
18E
100
AcDbEntity
  8
Bung
  6
ByLayer
 62
  256
370
   -1
100
AcDbCircle
 10
-98.80889999999999
 20
15.1846
 40
9.79608
100
AcDbArc
 50
336.936
 51
25.7995
  0
ARC
  5
18F
100
AcDbEntity
  8
Bung
  6
ByLayer
 62
  256
370
   -1
100
AcDbCircle
 10
-99.03335133662529
 20
24.954392164448
 40
0.9419563295837948
100
AcDbArc
 50
182.4539375318456
 51
359.9999999999999
  0
ARC
  5
190
100
AcDbEntity
  8
Bung
  6
ByLayer
 62
  256
370
   -1
100
AcDbCircle
 10
-98.80889999999999
 20
15.1846
 40
9.79608
100
AcDbArc
 50
36.93599999999995
 51
85.79949999999999
  0
ARC
  5
191
100
AcDbEntity
  8
Bung
  6
ByLayer
 62
  256
370
   -1
100
AcDbCircle
 10
-107.3820138724188
 20
19.87511552279313
 40
0.9419563295837948
100
AcDbArc
 50
242.4539375318455
 51
59.99999999999993
  0
ARC
  5
192
100
AcDbEntity
  8
Bung
  6
ByLayer
 62
  256
370
   -1
100
AcDbCircle
 10
-98.80889999999999
 20
15.1846
 40
9.79608
100
AcDbArc
 50
96.93599999999994
 51
145.7995
  0
ARC
  5
193
100
AcDbEntity
  8
Bung
  6
ByLayer
 62
  256
370
   -1
100
AcDbCircle
 10
-107.1575625357935
 20
10.10532335834512
 40
0.9419563295837948
100
AcDbArc
 50
302.4539375318456
 51
120
  0
ARC
  5
194
100
AcDbEntity
  8
Bung
  6
ByLayer
 62
  256
370
   -1
100
AcDbCircle
 10
-98.80889999999999
 20
15.1846
 40
9.79608
100
AcDbArc
 50
156.936
 51
205.7995
  0
ARC
  5
195
100
AcDbEntity
  8
Bung
  6
ByLayer
 62
  256
370
   -1
100
AcDbCircle
 10
-98.5844486633747
 20
5.414807835551999
 40
0.9419563295837948
100
AcDbArc
 50
2.453937531845555
 51
180
  0
ARC
  5
196
100
AcDbEntity
  8
Bung
  6
ByLayer
 62
  256
370
   -1
100
AcDbCircle
 10
-98.80889999999999
 20
15.1846
 40
9.79608
100
AcDbArc
 50
216.9359999999999
 51
265.7995
  0
ARC
  5
197
100
AcDbEntity
  8
Bung
  6
ByLayer
 62
  256
370
   -1
100
AcDbCircle
 10
-90.23578612758122
 20
10.49408447720687
 40
0.9419563295837948
100
AcDbArc
 50
62.45393753184554
 51
239.9999999999999
  0
ARC
  5
198
100
AcDbEntity
  8
Bung
  6
ByLayer
 62
  256
370
   -1
100
AcDbCircle
 10
-98.80889999999999
 20
15.1846
 40
9.79608
100
AcDbArc
 50
276.9359999999999
 51
325.7995
  0
CIRCLE
  5
199
100
AcDbEntity
  8
Bung
  6
ByLayer
 62
  256
370
   -1
100
AcDbCircle
 10
-98.80889999999999
 20
15.1846
 40
1.200000000000003
  0
CIRCLE
  5
19A
100
AcDbEntity
  8
Bung
  6
ByLayer
 62
  256
370
   -1
100
AcDbCircle
 10
-99.16268013533724
 20
32.16884563914214
 40
6.400000000000006
  0
TEXT
  5
19B
100
AcDbEntity
  8
Notes
  6
ByLayer
 62
  256
370
   -1
100
AcDbText
 10
-104.4126801353372
 20
31.16884563914214
 30
0
 40
3
  1
12.8
 50
0
 41
1
 51
0
  7
iso3098
 71
    0
210
0
220
0
230
1
100
AcDbText
  0
CIRCLE
  5
19C
100
AcDbEntity
  8
Bung
  6
ByLayer
 62
  256
370
   -1
100
AcDbCircle
 10
-99.16268013533724
 20
32.16884563914214
 40
2
  0
ARC
  5
19D
100
AcDbEntity
  8
Bung
  6
ByLayer
 62
  256
370
   -1
100
AcDbCircle
 10
-118.60674798933
 20
24.47408580649553
 40
0.9419563295837948
100
AcDbArc
 50
182.4539375318456
 51
0
  0
ARC
  5
19E
100
AcDbEntity
  8
Bung
  6
ByLayer
 62
  256
370
   -1
100
AcDbCircle
 10
-110.0468153350442
 20
19.79622209478172
 40
0.9419563295837948
100
AcDbArc
 50
122.4539375318456
 51
299.9999999999999
  0
ARC
  5
19F
100
AcDbEntity
  8
Bung
  6
ByLayer
 62
  256
370
   -1
100
AcDbCircle
 10
-118.3954778708377
 20
14.71694545312684
 40
9.79608
100
AcDbArc
 50
336.936
 51
25.7995
  0
ARC
  5
1A0
100
AcDbEntity
  8
Bung
  6
ByLayer
 62
  256
370
   -1
100
AcDbCircle
 10
-118.619929207463
 20
24.48673761757485
 40
0.9419563295837948
100
AcDbArc
 50
182.4539375318456
 51
359.9999999999999
  0
ARC
  5
1A1
100
AcDbEntity
  8
Bung
  6
ByLayer
 62
  256
370
   -1
100
AcDbCircle
 10
-118.3954778708377
 20
14.71694545312684
 40
9.79608
100
AcDbArc
 50
36.93599999999995
 51
85.79949999999999
  0
ARC
  5
1A2
100
AcDbEntity
  8
Bung
  6
ByLayer
 62
  256
370
   -1
100
AcDbCircle
 10
-126.9685917432565
 20
19.40746097591997
 40
0.9419563295837948
100
AcDbArc
 50
242.4539375318455
 51
59.99999999999993
  0
ARC
  5
1A3
100
AcDbEntity
  8
Bung
  6
ByLayer
 62
  256
370
   -1
100
AcDbCircle
 10
-118.3954778708377
 20
14.71694545312684
 40
9.79608
100
AcDbArc
 50
96.93599999999994
 51
145.7995
  0
ARC
  5
1A4
100
AcDbEntity
  8
Bung
  6
ByLayer
 62
  256
370
   -1
100
AcDbCircle
 10
-126.7441404066312
 20
9.637668811471967
 40
0.9419563295837948
100
AcDbArc
 50
302.4539375318456
 51
120
  0
ARC
  5
1A5
100
AcDbEntity
  8
Bung
  6
ByLayer
 62
  256
370
   -1
100
AcDbCircle
 10
-118.3954778708377
 20
14.71694545312684
 40
9.79608
100
AcDbArc
 50
156.936
 51
205.7995
  0
ARC
  5
1A6
100
AcDbEntity
  8
Bung
  6
ByLayer
 62
  256
370
   -1
100
AcDbCircle
 10
-118.1710265342124
 20
4.947153288678841
 40
0.9419563295837948
100
AcDbArc
 50
2.453937531845555
 51
180
  0
ARC
  5
1A7
100
AcDbEntity
  8
Bung
  6
ByLayer
 62
  256
370
   -1
100
AcDbCircle
 10
-118.3954778708377
 20
14.71694545312684
 40
9.79608
100
AcDbArc
 50
216.9359999999999
 51
265.7995
  0
ARC
  5
1A8
100
AcDbEntity
  8
Bung
  6
ByLayer
 62
  256
370
   -1
100
AcDbCircle
 10
-109.8223639984189
 20
10.02642993033371
 40
0.9419563295837948
100
AcDbArc
 50
62.45393753184554
 51
239.9999999999999
  0
ARC
  5
1A9
100
AcDbEntity
  8
Bung
  6
ByLayer
 62
  256
370
   -1
100
AcDbCircle
 10
-118.3954778708377
 20
14.71694545312684
 40
9.79608
100
AcDbArc
 50
276.9359999999999
 51
325.7995
  0
CIRCLE
  5
1AA
100
AcDbEntity
  8
Bung
  6
ByLayer
 62
  256
370
   -1
100
AcDbCircle
 10
-118.3954778708377
 20
14.71694545312684
 40
1.200000000000003
  0
CIRCLE
  5
1AB
100
AcDbEntity
  8
Bung
  6
ByLayer
 62
  256
370
   -1
100
AcDbCircle
 10
-118.7492580061749
 20
31.70119109226899
 40
6.400000000000006
  0
CIRCLE
  5
1AC
100
AcDbEntity
  8
Bung
  6
ByLayer
 62
  256
370
   -1
100
AcDbCircle
 10
-118.7492580061749
 20
31.70119109226899
 40
2
  0
ARC
  5
1AD
100
AcDbEntity
  8
Bung
  6
ByLayer
 62
  256
370
   -1
100
AcDbCircle
 10
-138.1933258601677
 20
24.00643125962237
 40
0.9419563295837948
100
AcDbArc
 50
182.4539375318456
 51
0
  0
ARC
  5
1AE
100
AcDbEntity
  8
Bung
  6
ByLayer
 62
  256
370
   -1
100
AcDbCircle
 10
-129.6333932058819
 20
19.32856754790856
 40
0.9419563295837948
100
AcDbArc
 50
122.4539375318456
 51
299.9999999999999
  0
ARC
  5
1AF
100
AcDbEntity
  8
Bung
  6
ByLayer
 62
  256
370
   -1
100
AcDbCircle
 10
-137.9820557416754
 20
14.24929090625368
 40
9.79608
100
AcDbArc
 50
336.936
 51
25.7995
  0
ARC
  5
1B0
100
AcDbEntity
  8
Bung
  6
ByLayer
 62
  256
370
   -1
100
AcDbCircle
 10
-138.2065070783007
 20
24.01908307070169
 40
0.9419563295837948
100
AcDbArc
 50
182.4539375318456
 51
359.9999999999999
  0
ARC
  5
1B1
100
AcDbEntity
  8
Bung
  6
ByLayer
 62
  256
370
   -1
100
AcDbCircle
 10
-137.9820557416754
 20
14.24929090625368
 40
9.79608
100
AcDbArc
 50
36.93599999999995
 51
85.79949999999999
  0
ARC
  5
1B2
100
AcDbEntity
  8
Bung
  6
ByLayer
 62
  256
370
   -1
100
AcDbCircle
 10
-146.5551696140942
 20
18.93980642904681
 40
0.9419563295837948
100
AcDbArc
 50
242.4539375318455
 51
59.99999999999993
  0
ARC
  5
1B3
100
AcDbEntity
  8
Bung
  6
ByLayer
 62
  256
370
   -1
100
AcDbCircle
 10
-137.9820557416754
 20
14.24929090625368
 40
9.79608
100
AcDbArc
 50
96.93599999999994
 51
145.7995
  0
ARC
  5
1B4
100
AcDbEntity
  8
Bung
  6
ByLayer
 62
  256
370
   -1
100
AcDbCircle
 10
-146.3307182774689
 20
9.170014264598809
 40
0.9419563295837948
100
AcDbArc
 50
302.4539375318456
 51
120
  0
ARC
  5
1B5
100
AcDbEntity
  8
Bung
  6
ByLayer
 62
  256
370
   -1
100
AcDbCircle
 10
-137.9820557416754
 20
14.24929090625368
 40
9.79608
100
AcDbArc
 50
156.936
 51
205.7995
  0
ARC
  5
1B6
100
AcDbEntity
  8
Bung
  6
ByLayer
 62
  256
370
   -1
100
AcDbCircle
 10
-137.7576044050501
 20
4.479498741805683
 40
0.9419563295837948
100
AcDbArc
 50
2.453937531845555
 51
180
  0
ARC
  5
1B7
100
AcDbEntity
  8
Bung
  6
ByLayer
 62
  256
370
   -1
100
AcDbCircle
 10
-137.9820557416754
 20
14.24929090625368
 40
9.79608
100
AcDbArc
 50
216.9359999999999
 51
265.7995
  0
ARC
  5
1B8
100
AcDbEntity
  8
Bung
  6
ByLayer
 62
  256
370
   -1
100
AcDbCircle
 10
-129.4089418692566
 20
9.558775383460551
 40
0.9419563295837948
100
AcDbArc
 50
62.45393753184554
 51
239.9999999999999
  0
ARC
  5
1B9
100
AcDbEntity
  8
Bung
  6
ByLayer
 62
  256
370
   -1
100
AcDbCircle
 10
-137.9820557416754
 20
14.24929090625368
 40
9.79608
100
AcDbArc
 50
276.9359999999999
 51
325.7995
  0
CIRCLE
  5
1BA
100
AcDbEntity
  8
Bung
  6
ByLayer
 62
  256
370
   -1
100
AcDbCircle
 10
-137.9820557416754
 20
14.24929090625368
 40
1.200000000000003
  0
CIRCLE
  5
1BB
100
AcDbEntity
  8
Bung
  6
ByLayer
 62
  256
370
   -1
100
AcDbCircle
 10
-138.3358358770126
 20
31.23353654539583
 40
6.400000000000006
  0
CIRCLE
  5
1BC
100
AcDbEntity
  8
Bung
  6
ByLayer
 62
  256
370
   -1
100
AcDbCircle
 10
-138.3358358770126
 20
31.23353654539583
 40
2
  0
ARC
  5
1BD
100
AcDbEntity
  8
Bung
  6
ByLayer
 62
  256
370
   -1
100
AcDbCircle
 10
-157.7799037310054
 20
23.53877671274921
 40
0.9419563295837948
100
AcDbArc
 50
182.4539375318456
 51
0
  0
ARC
  5
1BE
100
AcDbEntity
  8
Bung
  6
ByLayer
 62
  256
370
   -1
100
AcDbCircle
 10
-149.2199710767196
 20
18.8609130010354
 40
0.9419563295837948
100
AcDbArc
 50
122.4539375318456
 51
299.9999999999999
  0
ARC
  5
1BF
100
AcDbEntity
  8
Bung
  6
ByLayer
 62
  256
370
   -1
100
AcDbCircle
 10
-157.5686336125131
 20
13.78163635938053
 40
9.79608
100
AcDbArc
 50
336.936
 51
25.7995
  0
ARC
  5
1C0
100
AcDbEntity
  8
Bung
  6
ByLayer
 62
  256
370
   -1
100
AcDbCircle
 10
-157.7930849491383
 20
23.55142852382853
 40
0.9419563295837948
100
AcDbArc
 50
182.4539375318456
 51
359.9999999999999
  0
ARC
  5
1C1
100
AcDbEntity
  8
Bung
  6
ByLayer
 62
  256
370
   -1
100
AcDbCircle
 10
-157.5686336125131
 20
13.78163635938053
 40
9.79608
100
AcDbArc
 50
36.93599999999995
 51
85.79949999999999
  0
ARC
  5
1C2
100
AcDbEntity
  8
Bung
  6
ByLayer
 62
  256
370
   -1
100
AcDbCircle
 10
-166.1417474849318
 20
18.47215188217366
 40
0.9419563295837948
100
AcDbArc
 50
242.4539375318455
 51
59.99999999999993
  0
ARC
  5
1C3
100
AcDbEntity
  8
Bung
  6
ByLayer
 62
  256
370
   -1
100
AcDbCircle
 10
-157.5686336125131
 20
13.78163635938053
 40
9.79608
100
AcDbArc
 50
96.93599999999994
 51
145.7995
  0
ARC
  5
1C4
100
AcDbEntity
  8
Bung
  6
ByLayer
 62
  256
370
   -1
100
AcDbCircle
 10
-165.9172961483065
 20
8.702359717725651
 40
0.9419563295837948
100
AcDbArc
 50
302.4539375318456
 51
120
  0
ARC
  5
1C5
100
AcDbEntity
  8
Bung
  6
ByLayer
 62
  256
370
   -1
100
AcDbCircle
 10
-157.5686336125131
 20
13.78163635938053
 40
9.79608
100
AcDbArc
 50
156.936
 51
205.7995
  0
ARC
  5
1C6
100
AcDbEntity
  8
Bung
  6
ByLayer
 62
  256
370
   -1
100
AcDbCircle
 10
-157.3441822758878
 20
4.011844194932525
 40
0.9419563295837948
100
AcDbArc
 50
2.453937531845555
 51
180
  0
ARC
  5
1C7
100
AcDbEntity
  8
Bung
  6
ByLayer
 62
  256
370
   -1
100
AcDbCircle
 10
-157.5686336125131
 20
13.78163635938053
 40
9.79608
100
AcDbArc
 50
216.9359999999999
 51
265.7995
  0
ARC
  5
1C8
100
AcDbEntity
  8
Bung
  6
ByLayer
 62
  256
370
   -1
100
AcDbCircle
 10
-148.9955197400943
 20
9.091120836587393
 40
0.9419563295837948
100
AcDbArc
 50
62.45393753184554
 51
239.9999999999999
  0
ARC
  5
1C9
100
AcDbEntity
  8
Bung
  6
ByLayer
 62
  256
370
   -1
100
AcDbCircle
 10
-157.5686336125131
 20
13.78163635938053
 40
9.79608
100
AcDbArc
 50
276.9359999999999
 51
325.7995
  0
CIRCLE
  5
1CA
100
AcDbEntity
  8
Bung
  6
ByLayer
 62
  256
370
   -1
100
AcDbCircle
 10
-157.5686336125131
 20
13.78163635938053
 40
1.200000000000003
  0
CIRCLE
  5
1CB
100
AcDbEntity
  8
Bung
  6
ByLayer
 62
  256
370
   -1
100
AcDbCircle
 10
-157.9224137478503
 20
30.76588199852267
 40
6.400000000000006
  0
CIRCLE
  5
1CC
100
AcDbEntity
  8
Bung
  6
ByLayer
 62
  256
370
   -1
100
AcDbCircle
 10
-157.9224137478503
 20
30.76588199852267
 40
2
  0
ARC
  5
1CD
100
AcDbEntity
  8
Bung
  6
ByLayer
 62
  256
370
   -1
100
AcDbCircle
 10
-177.3664816018431
 20
23.07112216587606
 40
0.9419563295837948
100
AcDbArc
 50
182.4539375318456
 51
0
  0
ARC
  5
1CE
100
AcDbEntity
  8
Bung
  6
ByLayer
 62
  256
370
   -1
100
AcDbCircle
 10
-168.8065489475572
 20
18.39325845416224
 40
0.9419563295837948
100
AcDbArc
 50
122.4539375318456
 51
299.9999999999999
  0
ARC
  5
1CF
100
AcDbEntity
  8
Bung
  6
ByLayer
 62
  256
370
   -1
100
AcDbCircle
 10
-177.1552114833507
 20
13.31398181250737
 40
9.79608
100
AcDbArc
 50
336.936
 51
25.7995
  0
ARC
  5
1D0
100
AcDbEntity
  8
Bung
  6
ByLayer
 62
  256
370
   -1
100
AcDbCircle
 10
-177.379662819976
 20
23.08377397695537
 40
0.9419563295837948
100
AcDbArc
 50
182.4539375318456
 51
359.9999999999999
  0
ARC
  5
1D1
100
AcDbEntity
  8
Bung
  6
ByLayer
 62
  256
370
   -1
100
AcDbCircle
 10
-177.1552114833507
 20
13.31398181250737
 40
9.79608
100
AcDbArc
 50
36.93599999999995
 51
85.79949999999999
  0
ARC
  5
1D2
100
AcDbEntity
  8
Bung
  6
ByLayer
 62
  256
370
   -1
100
AcDbCircle
 10
-185.7283253557695
 20
18.0044973353005
 40
0.9419563295837948
100
AcDbArc
 50
242.4539375318455
 51
59.99999999999993
  0
ARC
  5
1D3
100
AcDbEntity
  8
Bung
  6
ByLayer
 62
  256
370
   -1
100
AcDbCircle
 10
-177.1552114833507
 20
13.31398181250737
 40
9.79608
100
AcDbArc
 50
96.93599999999994
 51
145.7995
  0
ARC
  5
1D4
100
AcDbEntity
  8
Bung
  6
ByLayer
 62
  256
370
   -1
100
AcDbCircle
 10
-185.5038740191442
 20
8.234705170852493
 40
0.9419563295837948
100
AcDbArc
 50
302.4539375318456
 51
120
  0
ARC
  5
1D5
100
AcDbEntity
  8
Bung
  6
ByLayer
 62
  256
370
   -1
100
AcDbCircle
 10
-177.1552114833507
 20
13.31398181250737
 40
9.79608
100
AcDbArc
 50
156.936
 51
205.7995
  0
ARC
  5
1D6
100
AcDbEntity
  8
Bung
  6
ByLayer
 62
  256
370
   -1
100
AcDbCircle
 10
-176.9307601467254
 20
3.544189648059367
 40
0.9419563295837948
100
AcDbArc
 50
2.453937531845555
 51
180
  0
ARC
  5
1D7
100
AcDbEntity
  8
Bung
  6
ByLayer
 62
  256
370
   -1
100
AcDbCircle
 10
-177.1552114833507
 20
13.31398181250737
 40
9.79608
100
AcDbArc
 50
216.9359999999999
 51
265.7995
  0
ARC
  5
1D8
100
AcDbEntity
  8
Bung
  6
ByLayer
 62
  256
370
   -1
100
AcDbCircle
 10
-168.582097610932
 20
8.623466289714235
 40
0.9419563295837948
100
AcDbArc
 50
62.45393753184554
 51
239.9999999999999
  0
ARC
  5
1D9
100
AcDbEntity
  8
Bung
  6
ByLayer
 62
  256
370
   -1
100
AcDbCircle
 10
-177.1552114833507
 20
13.31398181250737
 40
9.79608
100
AcDbArc
 50
276.9359999999999
 51
325.7995
  0
CIRCLE
  5
1DA
100
AcDbEntity
  8
Bung
  6
ByLayer
 62
  256
370
   -1
100
AcDbCircle
 10
-177.1552114833507
 20
13.31398181250737
 40
1.200000000000003
  0
CIRCLE
  5
1DB
100
AcDbEntity
  8
Bung
  6
ByLayer
 62
  256
370
   -1
100
AcDbCircle
 10
-177.508991618688
 20
30.29822745164951
 40
6.400000000000006
  0
CIRCLE
  5
1DC
100
AcDbEntity
  8
Bung
  6
ByLayer
 62
  256
370
   -1
100
AcDbCircle
 10
-177.508991618688
 20
30.29822745164951
 40
2
  0
ARC
  5
1DD
100
AcDbEntity
  8
Bung
  6
ByLayer
 62
  256
370
   -1
100
AcDbCircle
 10
-196.9530594726808
 20
22.6034676190029
 40
0.9419563295837948
100
AcDbArc
 50
182.4539375318456
 51
0
  0
ARC
  5
1DE
100
AcDbEntity
  8
Bung
  6
ByLayer
 62
  256
370
   -1
100
AcDbCircle
 10
-188.3931268183949
 20
17.92560390728909
 40
0.9419563295837948
100
AcDbArc
 50
122.4539375318456
 51
299.9999999999999
  0
ARC
  5
1DF
100
AcDbEntity
  8
Bung
  6
ByLayer
 62
  256
370
   -1
100
AcDbCircle
 10
-196.7417893541884
 20
12.84632726563421
 40
9.79608
100
AcDbArc
 50
336.936
 51
25.7995
  0
ARC
  5
1E0
100
AcDbEntity
  8
Bung
  6
ByLayer
 62
  256
370
   -1
100
AcDbCircle
 10
-196.9662406908137
 20
22.61611943008221
 40
0.9419563295837948
100
AcDbArc
 50
182.4539375318456
 51
359.9999999999999
  0
ARC
  5
1E1
100
AcDbEntity
  8
Bung
  6
ByLayer
 62
  256
370
   -1
100
AcDbCircle
 10
-196.7417893541884
 20
12.84632726563421
 40
9.79608
100
AcDbArc
 50
36.93599999999995
 51
85.79949999999999
  0
ARC
  5
1E2
100
AcDbEntity
  8
Bung
  6
ByLayer
 62
  256
370
   -1
100
AcDbCircle
 10
-205.3149032266072
 20
17.53684278842734
 40
0.9419563295837948
100
AcDbArc
 50
242.4539375318455
 51
59.99999999999993
  0
ARC
  5
1E3
100
AcDbEntity
  8
Bung
  6
ByLayer
 62
  256
370
   -1
100
AcDbCircle
 10
-196.7417893541884
 20
12.84632726563421
 40
9.79608
100
AcDbArc
 50
96.93599999999994
 51
145.7995
  0
ARC
  5
1E4
100
AcDbEntity
  8
Bung
  6
ByLayer
 62
  256
370
   -1
100
AcDbCircle
 10
-205.0904518899819
 20
7.767050623979335
 40
0.9419563295837948
100
AcDbArc
 50
302.4539375318456
 51
120
  0
ARC
  5
1E5
100
AcDbEntity
  8
Bung
  6
ByLayer
 62
  256
370
   -1
100
AcDbCircle
 10
-196.7417893541884
 20
12.84632726563421
 40
9.79608
100
AcDbArc
 50
156.936
 51
205.7995
  0
ARC
  5
1E6
100
AcDbEntity
  8
Bung
  6
ByLayer
 62
  256
370
   -1
100
AcDbCircle
 10
-196.5173380175631
 20
3.076535101186209
 40
0.9419563295837948
100
AcDbArc
 50
2.453937531845555
 51
180
  0
ARC
  5
1E7
100
AcDbEntity
  8
Bung
  6
ByLayer
 62
  256
370
   -1
100
AcDbCircle
 10
-196.7417893541884
 20
12.84632726563421
 40
9.79608
100
AcDbArc
 50
216.9359999999999
 51
265.7995
  0
ARC
  5
1E8
100
AcDbEntity
  8
Bung
  6
ByLayer
 62
  256
370
   -1
100
AcDbCircle
 10
-188.1686754817696
 20
8.155811742841077
 40
0.9419563295837948
100
AcDbArc
 50
62.45393753184554
 51
239.9999999999999
  0
ARC
  5
1E9
100
AcDbEntity
  8
Bung
  6
ByLayer
 62
  256
370
   -1
100
AcDbCircle
 10
-196.7417893541884
 20
12.84632726563421
 40
9.79608
100
AcDbArc
 50
276.9359999999999
 51
325.7995
  0
CIRCLE
  5
1EA
100
AcDbEntity
  8
Bung
  6
ByLayer
 62
  256
370
   -1
100
AcDbCircle
 10
-196.7417893541884
 20
12.84632726563421
 40
1.200000000000003
  0
CIRCLE
  5
1EB
100
AcDbEntity
  8
Bung
  6
ByLayer
 62
  256
370
   -1
100
AcDbCircle
 10
-197.0955694895257
 20
29.83057290477635
 40
6.400000000000006
  0
CIRCLE
  5
1EC
100
AcDbEntity
  8
Bung
  6
ByLayer
 62
  256
370
   -1
100
AcDbCircle
 10
-197.0955694895257
 20
29.83057290477635
 40
2
  0
ARC
  5
1ED
100
AcDbEntity
  8
Bung
  6
ByLayer
 62
  256
370
   -1
100
AcDbCircle
 10
-216.5396373435185
 20
22.13581307212974
 40
0.9419563295837948
100
AcDbArc
 50
182.4539375318456
 51
0
  0
ARC
  5
1EE
100
AcDbEntity
  8
Bung
  6
ByLayer
 62
  256
370
   -1
100
AcDbCircle
 10
-207.9797046892326
 20
17.45794936041593
 40
0.9419563295837948
100
AcDbArc
 50
122.4539375318456
 51
299.9999999999999
  0
ARC
  5
1EF
100
AcDbEntity
  8
Bung
  6
ByLayer
 62
  256
370
   -1
100
AcDbCircle
 10
-216.3283672250261
 20
12.37867271876105
 40
9.79608
100
AcDbArc
 50
336.936
 51
25.7995
  0
ARC
  5
1F0
100
AcDbEntity
  8
Bung
  6
ByLayer
 62
  256
370
   -1
100
AcDbCircle
 10
-216.5528185616514
 20
22.14846488320905
 40
0.9419563295837948
100
AcDbArc
 50
182.4539375318456
 51
359.9999999999999
  0
ARC
  5
1F1
100
AcDbEntity
  8
Bung
  6
ByLayer
 62
  256
370
   -1
100
AcDbCircle
 10
-216.3283672250261
 20
12.37867271876105
 40
9.79608
100
AcDbArc
 50
36.93599999999995
 51
85.79949999999999
  0
ARC
  5
1F2
100
AcDbEntity
  8
Bung
  6
ByLayer
 62
  256
370
   -1
100
AcDbCircle
 10
-224.9014810974449
 20
17.06918824155418
 40
0.9419563295837948
100
AcDbArc
 50
242.4539375318455
 51
59.99999999999993
  0
ARC
  5
1F3
100
AcDbEntity
  8
Bung
  6
ByLayer
 62
  256
370
   -1
100
AcDbCircle
 10
-216.3283672250261
 20
12.37867271876105
 40
9.79608
100
AcDbArc
 50
96.93599999999994
 51
145.7995
  0
ARC
  5
1F4
100
AcDbEntity
  8
Bung
  6
ByLayer
 62
  256
370
   -1
100
AcDbCircle
 10
-224.6770297608196
 20
7.299396077106177
 40
0.9419563295837948
100
AcDbArc
 50
302.4539375318456
 51
120
  0
ARC
  5
1F5
100
AcDbEntity
  8
Bung
  6
ByLayer
 62
  256
370
   -1
100
AcDbCircle
 10
-216.3283672250261
 20
12.37867271876105
 40
9.79608
100
AcDbArc
 50
156.936
 51
205.7995
  0
ARC
  5
1F6
100
AcDbEntity
  8
Bung
  6
ByLayer
 62
  256
370
   -1
100
AcDbCircle
 10
-216.1039158884008
 20
2.608880554313052
 40
0.9419563295837948
100
AcDbArc
 50
2.453937531845555
 51
180
  0
ARC
  5
1F7
100
AcDbEntity
  8
Bung
  6
ByLayer
 62
  256
370
   -1
100
AcDbCircle
 10
-216.3283672250261
 20
12.37867271876105
 40
9.79608
100
AcDbArc
 50
216.9359999999999
 51
265.7995
  0
ARC
  5
1F8
100
AcDbEntity
  8
Bung
  6
ByLayer
 62
  256
370
   -1
100
AcDbCircle
 10
-207.7552533526073
 20
7.68815719596792
 40
0.9419563295837948
100
AcDbArc
 50
62.45393753184554
 51
239.9999999999999
  0
ARC
  5
1F9
100
AcDbEntity
  8
Bung
  6
ByLayer
 62
  256
370
   -1
100
AcDbCircle
 10
-216.3283672250261
 20
12.37867271876105
 40
9.79608
100
AcDbArc
 50
276.9359999999999
 51
325.7995
  0
CIRCLE
  5
1FA
100
AcDbEntity
  8
Bung
  6
ByLayer
 62
  256
370
   -1
100
AcDbCircle
 10
-216.3283672250261
 20
12.37867271876105
 40
1.200000000000003
  0
CIRCLE
  5
1FB
100
AcDbEntity
  8
Bung
  6
ByLayer
 62
  256
370
   -1
100
AcDbCircle
 10
-216.6821473603634
 20
29.36291835790319
 40
6.400000000000006
  0
CIRCLE
  5
1FC
100
AcDbEntity
  8
Bung
  6
ByLayer
 62
  256
370
   -1
100
AcDbCircle
 10
-216.6821473603634
 20
29.36291835790319
 40
2
  0
ARC
  5
1FD
100
AcDbEntity
  8
Bung
  6
ByLayer
 62
  256
370
   -1
100
AcDbCircle
 10
-236.1262152143561
 20
21.66815852525658
 40
0.9419563295837948
100
AcDbArc
 50
182.4539375318456
 51
0
  0
ARC
  5
1FE
100
AcDbEntity
  8
Bung
  6
ByLayer
 62
  256
370
   -1
100
AcDbCircle
 10
-227.5662825600703
 20
16.99029481354277
 40
0.9419563295837948
100
AcDbArc
 50
122.4539375318456
 51
299.9999999999999
  0
ARC
  5
1FF
100
AcDbEntity
  8
Bung
  6
ByLayer
 62
  256
370
   -1
100
AcDbCircle
 10
-235.9149450958638
 20
11.91101817188789
 40
9.79608
100
AcDbArc
 50
336.936
 51
25.7995
  0
ARC
  5
200
100
AcDbEntity
  8
Bung
  6
ByLayer
 62
  256
370
   -1
100
AcDbCircle
 10
-236.1393964324891
 20
21.6808103363359
 40
0.9419563295837948
100
AcDbArc
 50
182.4539375318456
 51
359.9999999999999
  0
ARC
  5
201
100
AcDbEntity
  8
Bung
  6
ByLayer
 62
  256
370
   -1
100
AcDbCircle
 10
-235.9149450958638
 20
11.91101817188789
 40
9.79608
100
AcDbArc
 50
36.93599999999995
 51
85.79949999999999
  0
ARC
  5
202
100
AcDbEntity
  8
Bung
  6
ByLayer
 62
  256
370
   -1
100
AcDbCircle
 10
-244.4880589682826
 20
16.60153369468102
 40
0.9419563295837948
100
AcDbArc
 50
242.4539375318455
 51
59.99999999999993
  0
ARC
  5
203
100
AcDbEntity
  8
Bung
  6
ByLayer
 62
  256
370
   -1
100
AcDbCircle
 10
-235.9149450958638
 20
11.91101817188789
 40
9.79608
100
AcDbArc
 50
96.93599999999994
 51
145.7995
  0
ARC
  5
204
100
AcDbEntity
  8
Bung
  6
ByLayer
 62
  256
370
   -1
100
AcDbCircle
 10
-244.2636076316573
 20
6.831741530233019
 40
0.9419563295837948
100
AcDbArc
 50
302.4539375318456
 51
120
  0
ARC
  5
205
100
AcDbEntity
  8
Bung
  6
ByLayer
 62
  256
370
   -1
100
AcDbCircle
 10
-235.9149450958638
 20
11.91101817188789
 40
9.79608
100
AcDbArc
 50
156.936
 51
205.7995
  0
ARC
  5
206
100
AcDbEntity
  8
Bung
  6
ByLayer
 62
  256
370
   -1
100
AcDbCircle
 10
-235.6904937592385
 20
2.141226007439894
 40
0.9419563295837948
100
AcDbArc
 50
2.453937531845555
 51
180
  0
ARC
  5
207
100
AcDbEntity
  8
Bung
  6
ByLayer
 62
  256
370
   -1
100
AcDbCircle
 10
-235.9149450958638
 20
11.91101817188789
 40
9.79608
100
AcDbArc
 50
216.9359999999999
 51
265.7995
  0
ARC
  5
208
100
AcDbEntity
  8
Bung
  6
ByLayer
 62
  256
370
   -1
100
AcDbCircle
 10
-227.341831223445
 20
7.220502649094762
 40
0.9419563295837948
100
AcDbArc
 50
62.45393753184554
 51
239.9999999999999
  0
ARC
  5
209
100
AcDbEntity
  8
Bung
  6
ByLayer
 62
  256
370
   -1
100
AcDbCircle
 10
-235.9149450958638
 20
11.91101817188789
 40
9.79608
100
AcDbArc
 50
276.9359999999999
 51
325.7995
  0
CIRCLE
  5
20A
100
AcDbEntity
  8
Bung
  6
ByLayer
 62
  256
370
   -1
100
AcDbCircle
 10
-235.9149450958638
 20
11.91101817188789
 40
1.200000000000003
  0
CIRCLE
  5
20B
100
AcDbEntity
  8
Bung
  6
ByLayer
 62
  256
370
   -1
100
AcDbCircle
 10
-236.268725231201
 20
28.89526381103003
 40
6.400000000000006
  0
CIRCLE
  5
20C
100
AcDbEntity
  8
Bung
  6
ByLayer
 62
  256
370
   -1
100
AcDbCircle
 10
-236.268725231201
 20
28.89526381103003
 40
2
  0
ARC
  5
20D
100
AcDbEntity
  8
Bung
  6
ByLayer
 62
  256
370
   -1
100
AcDbCircle
 10
-255.7127930851938
 20
21.20050397838342
 40
0.9419563295837948
100
AcDbArc
 50
182.4539375318456
 51
0
  0
ARC
  5
20E
100
AcDbEntity
  8
Bung
  6
ByLayer
 62
  256
370
   -1
100
AcDbCircle
 10
-247.152860430908
 20
16.52264026666961
 40
0.9419563295837948
100
AcDbArc
 50
122.4539375318456
 51
299.9999999999999
  0
ARC
  5
20F
100
AcDbEntity
  8
Bung
  6
ByLayer
 62
  256
370
   -1
100
AcDbCircle
 10
-255.5015229667015
 20
11.44336362501474
 40
9.79608
100
AcDbArc
 50
336.936
 51
25.7995
  0
ARC
  5
210
100
AcDbEntity
  8
Bung
  6
ByLayer
 62
  256
370
   -1
100
AcDbCircle
 10
-255.7259743033268
 20
21.21315578946274
 40
0.9419563295837948
100
AcDbArc
 50
182.4539375318456
 51
359.9999999999999
  0
ARC
  5
211
100
AcDbEntity
  8
Bung
  6
ByLayer
 62
  256
370
   -1
100
AcDbCircle
 10
-255.5015229667015
 20
11.44336362501474
 40
9.79608
100
AcDbArc
 50
36.93599999999995
 51
85.79949999999999
  0
ARC
  5
212
100
AcDbEntity
  8
Bung
  6
ByLayer
 62
  256
370
   -1
100
AcDbCircle
 10
-264.0746368391203
 20
16.13387914780786
 40
0.9419563295837948
100
AcDbArc
 50
242.4539375318455
 51
59.99999999999993
  0
ARC
  5
213
100
AcDbEntity
  8
Bung
  6
ByLayer
 62
  256
370
   -1
100
AcDbCircle
 10
-255.5015229667015
 20
11.44336362501474
 40
9.79608
100
AcDbArc
 50
96.93599999999994
 51
145.7995
  0
ARC
  5
214
100
AcDbEntity
  8
Bung
  6
ByLayer
 62
  256
370
   -1
100
AcDbCircle
 10
-263.850185502495
 20
6.364086983359861
 40
0.9419563295837948
100
AcDbArc
 50
302.4539375318456
 51
120
  0
ARC
  5
215
100
AcDbEntity
  8
Bung
  6
ByLayer
 62
  256
370
   -1
100
AcDbCircle
 10
-255.5015229667015
 20
11.44336362501474
 40
9.79608
100
AcDbArc
 50
156.936
 51
205.7995
  0
ARC
  5
216
100
AcDbEntity
  8
Bung
  6
ByLayer
 62
  256
370
   -1
100
AcDbCircle
 10
-255.2770716300762
 20
1.673571460566736
 40
0.9419563295837948
100
AcDbArc
 50
2.453937531845555
 51
180
  0
ARC
  5
217
100
AcDbEntity
  8
Bung
  6
ByLayer
 62
  256
370
   -1
100
AcDbCircle
 10
-255.5015229667015
 20
11.44336362501474
 40
9.79608
100
AcDbArc
 50
216.9359999999999
 51
265.7995
  0
ARC
  5
218
100
AcDbEntity
  8
Bung
  6
ByLayer
 62
  256
370
   -1
100
AcDbCircle
 10
-246.9284090942827
 20
6.752848102221604
 40
0.9419563295837948
100
AcDbArc
 50
62.45393753184554
 51
239.9999999999999
  0
ARC
  5
219
100
AcDbEntity
  8
Bung
  6
ByLayer
 62
  256
370
   -1
100
AcDbCircle
 10
-255.5015229667015
 20
11.44336362501474
 40
9.79608
100
AcDbArc
 50
276.9359999999999
 51
325.7995
  0
CIRCLE
  5
21A
100
AcDbEntity
  8
Bung
  6
ByLayer
 62
  256
370
   -1
100
AcDbCircle
 10
-255.5015229667015
 20
11.44336362501474
 40
1.200000000000003
  0
CIRCLE
  5
21B
100
AcDbEntity
  8
Bung
  6
ByLayer
 62
  256
370
   -1
100
AcDbCircle
 10
-255.8553031020387
 20
28.42760926415688
 40
6.400000000000006
  0
CIRCLE
  5
21C
100
AcDbEntity
  8
Bung
  6
ByLayer
 62
  256
370
   -1
100
AcDbCircle
 10
-255.8553031020387
 20
28.42760926415688
 40
2
  0
ENDSEC
  0
SECTION
  2
OBJECTS
  0
DICTIONARY
  5
C
330
0
100
AcDbDictionary
281
    1
  3
ACAD_GROUP
350
D
  0
DICTIONARY
  5
D
330
C
100
AcDbDictionary
281
    1
  0
PLOTSETTINGS
  5
21D
100
AcDbPlotSettings
  6
1x1
 40
0
 41
0
 42
0
 43
0
  0
ENDSEC
  0
EOF
